<?xml version="1.0" standalone="no"?>
<!DOCTYPE svg PUBLIC "-//W3C//DTD SVG 1.1//EN" "http://www.w3.org/Graphics/SVG/1.1/DTD/svg11.dtd" >
<svg xmlns="http://www.w3.org/2000/svg" xmlns:xlink="http://www.w3.org/1999/xlink" version="1.1">
<metadata></metadata>
<defs>
<font id="heartwell_italic" horiz-adv-x="1015" >
<font-face units-per-em="2048" ascent="1638" descent="-410" />
<missing-glyph horiz-adv-x="1024" />
<glyph horiz-adv-x="0" />
<glyph horiz-adv-x="682" />
<glyph unicode=" "  horiz-adv-x="1024" />
<glyph unicode="&#x09;" horiz-adv-x="1024" />
<glyph unicode="&#xa0;" horiz-adv-x="1024" />
<glyph unicode="!" horiz-adv-x="704" d="M-99 -134.5q5 55.5 19 86.5t30.5 81t18.5 100q82 -22 132 -47.5t75 -75.5q-5 -29 -14 -41t-18 -11.5t-21.5 -11t-22.5 -38.5q-5 -14 -13.5 -45t-18 -53t-25.5 -39q2 -16 -5.5 -36t-6.5 -34q-5 12 -14 12.5t-22 -5.5t-18 -7q-24 39 -61 49q-20 60 -15 115.5zM8 389 q7 96 62 260q-4 31 16 88t18 82q9 6 14.5 34.5t20.5 31.5q12 91 54 141q1 34 29 89t32 69q3 10 8.5 37t12 42.5t18.5 26.5q-4 6 -4 27q8 -4 12.5 2t5.5 6q11 46 46.5 117t45.5 98q-7 -2 -12.5 -5.5t-8.5 -6t-7 -9.5t-5 -9.5t-5 -13t-5 -13.5q-4 1 -5.5 3t-0.5 5t2.5 6t4 6.5 t3.5 5.5q35 100 82 168q36 -2 68 -22t52.5 -44t48.5 -53.5t53 -44.5q-2 -26 -6 -41.5t-16 -29.5t-32 -15q-15 -31 -54.5 -88.5t-55.5 -93.5q-6 -40 -32.5 -105.5t-33.5 -99.5q-5 -2 -11 -9.5t-11 -8.5q-14 -52 -66.5 -151t-64.5 -160q-3 -14 -6 -55.5t-11 -71.5t-26 -54 q-4 -38 -21.5 -107t-19.5 -114q-1 -1 -11.5 -4.5t-9.5 -11.5q-1 -6 0 -7.5t3 0t6 3t8 0.5q-12 -14 -25 -20.5t-31.5 -3.5t-27.5 5.5t-33 13.5t-29 13q-1 4 -3 40t-13 52q-4 4 -7 4t-7.5 -2t-8.5 -2z" />
<glyph unicode="&#x22;" horiz-adv-x="407" d="M-8 1968q22 51 78 107q6 0 8 -3.5t1 -7.5t-0.5 -6.5t3.5 -1.5q7 5 22 18.5t28 22t26 10.5q8 -8 8 -13t-4.5 -17t-5.5 -17q4 -28 4 -69t-2 -73.5t-6 -86t-5 -78.5q-6 -88 -15 -113q-20 -61 -75 -22l-20 -12q-4 8 -29 22q6 28 4.5 84.5t-3.5 83t-8 84.5t-9 88zM193 1968 q23 53 77 107q5 0 7.5 -2.5t2.5 -5.5t-0.5 -6t0 -4.5t3.5 -0.5q7 5 21.5 18.5t27.5 22t26 10.5q8 -8 8 -13t-4.5 -17t-5.5 -17q4 -28 4.5 -69.5t-1.5 -72.5t-6 -86.5t-5 -78.5q-6 -88 -15 -113q-20 -61 -75 -22l-20 -12q-4 8 -29 22q6 28 4.5 84.5t-3.5 83t-8 84.5t-9 88z " />
<glyph unicode="#" horiz-adv-x="808" d="M0 725q7 3 25 29q54 -9 106 -11q13 46 43 142h-6q-89 9 -115 20q-57 24 -16 76l-12 18q5 3 8.5 7t7.5 11t8 11q62 -7 166 -10q2 8 6 20q29 87 47 112q36 44 76 -5l21 8q2 -6 5 -10.5t8 -10t9 -10.5q-12 -28 -33 -106q49 2 144 2q2 8 6 20q29 87 47 112q35 46 76 -5l20 8 q2 -6 5 -10.5t8.5 -10t9.5 -10.5q-23 -67 -31 -100q4 0 13.5 1t13.5 1q52 -23 102 -82q0 -8 -11 -7q-8 1 -7 -5q3 -3 18 -23q-15 -27 -39 -45q-2 -4 -10 -8q-23 0 -121 4q-16 -64 -27 -113q16 0 39 1.5t31 1.5q52 -23 102 -82q0 -9 -9.5 -8t-8.5 -3q4 -8 18 -22 q-18 -32 -38 -47q-1 -1 -11 -6q-46 -3 -155 4q-2 -13 -6 -33t-5 -27q-35 -47 -102 -84q-7 2 -6.5 7.5t2.5 9t-4 4.5q-2 -1 -25 -12q-27 23 -37 49q-2 2 -6 10q2 8 9.5 37t13.5 47q-38 4 -113 8q-3 -14 -7.5 -40t-6.5 -36q-35 -46 -103 -84q-7 2 -6.5 7.5t2.5 9t-4 4.5 l-24 -12q-27 23 -37 49q-2 2 -6 10q10 40 28 106q-143 18 -84 91zM289 741h125q8 30 37 123q-42 4 -134 8q-5 -21 -14 -65t-14 -66z" />
<glyph unicode="$" horiz-adv-x="917" d="M4 248q-20 144 84 301q1 6 -1 8t1.5 7.5t3 7t4.5 6t5.5 6t6.5 5.5t7 5t7 5t7 5q-1 -1 -3.5 -4t-3.5 -4.5t-0.5 -4t3.5 -5.5q23 33 81 37.5t101 -15.5q3 -17 -10 -27t-14 -16q-36 3 -54.5 -16.5t-22 -46t-9.5 -60.5t-17 -51q13 -8 17 -32t8 -31q18 -32 66.5 -52.5 t90.5 -15.5q70 9 111 64q3 0 11.5 -3t15.5 -2q28 35 45 80.5t16.5 98.5t-24.5 96q-25 -1 -55 14t-49 30t-52 44q-13 11 -42.5 35t-50 42t-34.5 34q-84 92 -64 196q0 1 9.5 23t5.5 37q18 18 28 44t19 70.5t12 57.5q12 -3 19 4q8 15 57 93.5t68 125.5q86 90 184 82 q15 35 38 106t46.5 123.5t58.5 87.5q4 1 19.5 4.5t24 4.5t22 1t25 -5t22.5 -15q0 -4 2 -15t-2 -12q0 -7 10 -9.5t12 -4.5q-4 -42 -20.5 -77.5t-39.5 -62t-47 -51t-46.5 -56t-34.5 -64.5q3 -3 16.5 -17.5t24.5 -21t27 -8.5q2 -5 12 -17t12 -22q86 -25 100 -109 q1 -40 0.5 -51.5t-10.5 -52t-12 -52.5q-5 -25 -16 -56.5t-17 -46.5t-26.5 -59t-22.5 -48q-7 -16 -26.5 -47.5t-24.5 -41.5q-33 -26 -86 -24t-78 33q20 46 53 136.5t49 129.5q3 8 16.5 28t16.5 33q5 16 15 99q0 2 5.5 18t6.5 25t-4 24q-15 21 -41.5 18t-52 -16t-35.5 -26 q-7 -8 -18 -31t-19 -33q-3 -3 -14.5 -10.5t-14.5 -13.5q-33 -47 -78 -152q-8 -18 -20.5 -67t-20.5 -68q0 -3 3 -15.5t3 -17t-2 -14.5q22 -29 75 -71t69 -58q5 -1 2.5 -6t-2.5 -9q10 -11 34.5 -40t39.5 -44q7 8 3 12.5t-13 12.5t-9 14q9 4 22.5 -17t24.5 -46q-4 0 -9 5t-9 -1 q5 -12 18 -25q4 1 3 2.5t-3 7t0 9.5q26 -27 40.5 -78.5t4.5 -103.5q-2 -7 -9.5 -23t-8.5 -25q-1 -6 0 -20.5t0 -20.5t-31 -73q-5 -11 -24 -31t-23 -25q-3 -5 -8.5 -17.5t-9.5 -16.5q-36 -43 -94.5 -78.5t-110.5 -42.5q-11 -2 -35 -2t-35 -4q-2 -13 -12.5 -29t-14 -23 t4.5 -22q-3 3 -5 3t-3 -1.5t-3 -3t-4 -2.5q8 -1 8.5 -6t-2 -14.5t-0.5 -16.5q-3 -4 -9 -2.5t-9 -1.5q5 -12 12 -14q-20 -136 -8 -199q-16 -11 -47 -13t-45 9q11 24 -18 31q1 7 -2 21t-2 24t12 14q-1 3 -7.5 5.5t-7.5 4.5q31 212 37 250q-11 10 -46 22.5t-46 26.5 q0 2 1.5 2.5t4 0.5t4.5 1q-53 43 -78 101q0 4 -7.5 4.5t-8.5 3.5zM649 1419q0 -4 1 -7t3.5 -5t5 -3t7 -1h8h8.5h8q0 14 -13 18.5t-28 -2.5z" />
<glyph unicode="%" horiz-adv-x="1261" d="M0 1030q1 75 23 138.5t62 112.5t84.5 85.5t102.5 71.5q4 -1 12.5 -2.5t14 -4t8.5 -6.5q31 37 82.5 40.5t98 -17.5t75.5 -53q-12 -122 -114 -299q-10 -19 -34.5 -47t-31.5 -37q-73 -94 -184 -97q-66 -1 -119 30t-80 85zM115 1081q-2 -31 21 -44t55.5 -9t63 13.5t44.5 19.5 t40 45t44 68q67 128 43 167q-10 6 -19 9.5t-18 3t-16 -1t-16 -6t-13.5 -8t-14 -11.5t-12 -11t-12 -12.5t-10.5 -11.5q-6 6 -27 6q-11 -12 -40 -38.5t-52 -52t-35 -50.5q-26 -47 -26 -76zM212 26.5q2 7.5 4.5 11.5t8.5 10.5t8 10.5q11 53 239 674t267 715q3 6 9 20t11 24 t12 24.5t13.5 23.5t15 18.5t16.5 13t17 3.5t19 -7.5t20 -21.5l21 4q1 -4 3 -8t4 -6.5t6 -7t7 -8.5q-35 -71 -251 -700t-242 -728q-44 -47 -111 -74q-9 3 -4.5 12t0.5 9q-8 -2 -26.5 -10t-34 -12.5t-29.5 -2.5q-5 5 -3 12.5zM657 322q1 74 23 138t63 113.5t85 85.5t102 70 q4 -1 13 -2.5t15 -3.5t9 -6q31 38 82 41t97 -18.5t75 -53.5q-12 -120 -115 -299q-10 -19 -34.5 -47t-31.5 -37q-72 -93 -184 -96q-66 -1 -119 30.5t-80 84.5zM772 375q-2 -31 21 -44.5t55.5 -10t63 12.5t44.5 19q15 10 40.5 46t43.5 69q68 125 45 166q-11 7 -22 9.5t-19 3.5 t-19 -4t-16.5 -7t-17 -11.5t-14 -11.5t-13.5 -14l-12 -12q-4 4 -26 4q-9 -9 -39.5 -37t-52.5 -53.5t-35 -50.5q-23 -42 -27 -74z" />
<glyph unicode="&#x26;" horiz-adv-x="1601" d="M-0.5 350q-1.5 22 3 42t13.5 40q0 6 -7 1t-7 1q-3 40 18 64q0 8 -6 4t-6 0q40 79 74 136.5t84 122t103 109.5t126 83t158 57q-46 79 -58 115q-19 56 -14 120q0 12 3.5 27.5t10.5 36.5t9 30q3 13 9.5 43t10.5 43q14 40 53 89t70 53q25 35 87 63.5t130.5 32.5t122.5 -33 q26 2 55 -12t45 -16q7 -11 25 -29t23 -25q33 33 112 123.5t113 124.5q10 10 46 -7.5t48 -14.5q-25 -35 -81 -92t-75 -80q-22 -27 -43 -58t-47.5 -73.5t-40.5 -63.5q-2 -17 -11.5 -39t-17 -37t-11 -38.5t7.5 -43.5q-4 -7 -12 -9.5t-15.5 -2t-22 2.5t-22.5 3q-5 9 -9 45 t-18 47q11 33 11 60q25 17 32 43t-1.5 51t-26 47t-39.5 35q-27 1 -51 -2t-47 -12.5t-38.5 -16.5t-38 -24t-31.5 -24t-33 -29t-30 -27q-22 -52 -36 -93t-28 -100.5t-9 -114t30 -98.5q168 -36 256 -86q-15 -24 -84 -102q-19 4 -51 -0.5t-57 -3t-43 19.5q-105 0 -172 -22 q-6 -2 -15 -9.5t-14 -9.5q-11 -5 -31.5 -11t-31.5 -11q-63 -38 -123 -105t-82 -129q-2 -6 -3 -24.5t-3 -26.5q-26 -94 -17 -186q6 -75 56 -207q11 -29 50 -80t46 -80q5 -4 29.5 -29t42.5 -36.5t39 -14.5q87 -8 221 49q66 27 110.5 75.5t83.5 123.5q33 60 47.5 124t0.5 132 t-64 111q-1 -1 -20 -14t-24.5 -17t-22.5 -16.5t-26 -20t-22 -19t-23 -23t-18 -22.5q-57 -83 -35 -139q-32 -5 -58.5 4.5t-42.5 24.5t-38 34t-41 27q-2 9 3 15.5t5 11.5q-3 4 -28 14q79 141 268 248q121 34 172.5 49t141.5 53.5t149 83.5q12 10 43 39.5t53 42.5q3 5 16.5 30 t21 41t18 42t14.5 52t2 52q-4 69 -28.5 105.5t-90.5 32.5q15 10 4 25t-4 28q4 2 6 2t9 -2.5t12 -3.5q8 -1 28.5 -3t29 -3.5t23.5 -4t26 -6.5t22 -10q58 -30 90.5 -93t33 -132t-25.5 -137q-5 -12 -13.5 -25t-26.5 -33.5t-24 -27.5q-11 -11 -32.5 -41t-34.5 -41 q-15 -13 -70 -40t-73 -52q-36 -20 -83.5 -37t-106.5 -35.5t-91 -30.5q19 -18 32.5 -33t30 -39.5t24.5 -46.5t8.5 -51t-11.5 -57q7 -41 -3 -78.5t-33.5 -84t-31.5 -69.5q-22 -15 -53.5 -54t-50.5 -54q-126 -97 -275 -117q-41 -28 -106 -34.5t-113 16.5q-9 4 -32 21t-37 24 q-54 33 -96 63t-90.5 74t-80 96t-41.5 107q-1 6 0 17.5t0 17.5q-2 10 -8 35.5t-8.5 40t-4 36.5zM33 475q1 10 9.5 24.5t12 22t-1.5 17.5q-1 -10 -12 -31.5t-8 -32.5zM100 72q0 -16 21 -29q4 5 -3 17t-18 12z" />
<glyph unicode="'" horiz-adv-x="206" d="M-8 1968q22 51 78 107q6 0 8 -3.5t1 -7.5t-0.5 -6.5t3.5 -1.5q7 5 22 18.5t28 22t26 10.5q8 -8 8 -13t-4.5 -17t-5.5 -17q4 -28 4 -69t-2 -73.5t-6 -86t-5 -78.5q-6 -88 -15 -113q-20 -61 -75 -22l-20 -12q-4 8 -29 22q6 28 4.5 84.5t-3.5 83t-8 84.5t-9 88z" />
<glyph unicode="(" horiz-adv-x="794" d="M-0.5 412.5q1.5 47.5 14.5 154.5q12 107 66 287q-3 82 45 172q14 29 32 59.5t31.5 51t36.5 55t35 53.5q6 9 20.5 31.5t22 33.5t21.5 25.5t28 24.5q9 26 28.5 48.5t51 50t43.5 40.5q6 6 19.5 20t25.5 26t23 22q56 52 88 65q0 3 3.5 6.5t4.5 6.5q66 -18 115 -105 q-27 -19 -77.5 -52t-82 -56t-71 -55.5t-68.5 -69.5t-49 -80q-20 -19 -43.5 -50.5t-35.5 -50.5t-41 -66t-34 -56q-8 -12 -27.5 -48t-34.5 -55q-8 -65 -35.5 -201t-33.5 -176q7 -35 -8.5 -73.5t-10.5 -77.5q17 -182 144 -373q-8 -38 -17 -57h-61q-15 6 -28 16.5t-28.5 26 t-23.5 22.5q-60 95 -80 254q-10 103 -8.5 150.5z" />
<glyph unicode=")" horiz-adv-x="794" d="M0 47q27 20 76.5 52t82 55t71 55.5t68 70t50.5 80.5q20 19 43 50t36 51.5t40.5 66t34.5 56.5q5 8 17.5 31.5t22 39t21.5 29.5q8 66 35.5 201t34.5 178q-7 34 7.5 73.5t10.5 77.5q-20 191 -145 373q7 37 18 58h62q19 -9 44 -33.5t36 -32.5q60 -95 77 -256q8 -61 9 -109.5 t-1.5 -80t-11.5 -113.5q-15 -111 -67 -287q3 -79 -43 -172q-19 -37 -40 -70.5t-53 -82t-44 -66.5q-4 -6 -13 -21t-13.5 -22t-13.5 -20t-16 -20.5t-17 -16t-20 -15.5q-8 -26 -27 -48.5t-51.5 -51t-44.5 -41.5q-2 -2 -26.5 -28t-38.5 -38q-56 -52 -88 -65q-1 -3 -4.5 -6 t-3.5 -6q-67 18 -115 104z" />
<glyph unicode="*" horiz-adv-x="563" d="M-6 1389q6 -2 8 1t1.5 7.5t0.5 7.5q16 0 51 -5.5t61.5 -4t49.5 15.5q-57 74 -78 105q28 3 45 -4.5t39 -31t25 -26.5q9 16 11 65.5t11 65.5q11 1 20.5 -1.5t20.5 -7.5t16 -7q2 -11 2 -26t-1 -33t-1 -25q11 17 54 65q9 1 19 -5t16 -7q-5 -32 -33.5 -71t-32.5 -48 q29 -10 110.5 -9t112.5 -9q-17 -15 -40 -19.5t-65 -3t-52 1.5q-13 -1 -43 -5.5t-46 -4.5q49 -75 119 -84q-13 -13 -32.5 -11.5t-33 8.5t-33.5 16t-34 10q-2 -10 -6 -48.5t-13 -65.5t-28 -36q-3 4 -6 8.5t-4.5 10.5t-3 10.5t-2.5 12.5l-1.5 12t-0.5 14.5v13.5v15v14 q-24 -6 -46 -31.5t-47 -30.5q1 3 7 14.5t8.5 15.5t8 14t9.5 14.5t10 11t12.5 11t14.5 7.5q0 9 -12 9q23 26 31 57q-30 2 -76 -10t-78 -9q-2 13 -21.5 24t-23.5 22z" />
<glyph unicode="+" horiz-adv-x="741" d="M-16 983q5 8 12.5 9.5t14.5 -1t16.5 -6t15.5 -4.5q86 10 240 0q9 205 56 233q22 13 54 -10l23 17q5 -7 10 -11t14 -9t15 -9q-11 -75 -4 -223q195 -9 235 -49q25 -26 -2 -64l14 -22q-7 -4 -11 -8.5t-8.5 -13.5t-8.5 -15q-80 11 -207 4q8 -82 10 -117q-23 -62 -96 -135 q-5 0 -7.5 2t-2.5 4.5v6v6t-1 3.5t-4 0q-9 -7 -27.5 -23.5t-34.5 -27.5t-32 -14q-11 6 -11 16t5.5 23t5.5 20q-7 73 0 221q-42 -2 -106 -10q-64 27 -135 98q0 7 4.5 9t9 1t8 -0.5t2.5 5.5q-6 8 -24.5 27t-29 34.5t-13.5 32.5z" />
<glyph unicode="," horiz-adv-x="335" d="M-8 55v27q1 9 2 26.5t2 26.5q1 8 1.5 28.5t1.5 34.5t5 27q5 23 23 37q12 5 28 8h39q4 1 7 3t4.5 4t3 6.5t2.5 5.5q49 8 68.5 -5.5t19.5 -45.5q2 1 2.5 3t0.5 6.5t1 8.5q4 -9 23 -6t30 0q-5 -7 -20 0q1 -8 -6 -14.5t-7 -10.5q9 -2 14.5 5.5t14.5 5.5q3 -9 -8.5 -12.5 t-12.5 -6.5q4 -6 18.5 -5.5t18.5 -6.5q6 12 4 14q9 7 11 -5.5t-7 -14.5q6 0 9 6q8 -24 8 -27q2 -6 2 -14v-6q0 -20 -4 -52q0 -4 2 -6q-2 0 -4 -2q0 -3 -1 -9t-1 -9h2q-1 0 -2 -1t-2 -1q-12 -49 -52.5 -108.5t-79 -95t-47.5 -28.5q-10 9 -13 21t0 23t7.5 21t8.5 17l4 6 q2 3 45 58h-4l-2 4q-51 4 -80.5 12.5t-40.5 30.5q3 3 6.5 1t9.5 -1q-2 3 -13 8t-14 8t3 6q-5 -1 -15.5 -3t-15.5 -3z" />
<glyph unicode="-" horiz-adv-x="663" d="M-16 946q5 8 12.5 9.5t14.5 -1t16.5 -6t15.5 -4.5q36 4 89.5 4t90 -2t111 -7.5t96.5 -6.5q107 -6 141 -17q82 -25 31 -96l14 -22q-7 -4 -11 -9t-8.5 -13.5t-8.5 -14.5q-41 5 -83 6t-86.5 -2t-80.5 -6.5t-89 -9.5t-87 -9q-68 29 -135 99q0 7 4.5 9t9 0.5t8 -1t2.5 5.5 q-6 8 -24.5 27t-29 34.5t-13.5 32.5z" />
<glyph unicode="." horiz-adv-x="378" d="M-4.5 115.5q-1.5 10.5 2 18.5t10.5 16q-6 20 -3.5 24.5t-0.5 24.5q-8 20 -8 40t24 33q38 7 117 7q5 1 7.5 3.5t5 7.5t4.5 7q49 8 68.5 -5.5t19.5 -45.5q2 1 2 3v6.5t2 8.5q4 -9 23 -6t30 0q-8 -8 -20 0q1 -8 -6 -14.5t-7 -10.5q9 -2 14 5.5t15 5.5q3 -9 -8.5 -12.5 t-12.5 -6.5q4 -6 18.5 -5.5t16.5 -6.5q6 13 4 14q9 8 11.5 -5.5t-7.5 -14.5q9 0 9 6q15 -23 9 -51t-1 -53q-4 -2 -8.5 -1.5t-8.5 -1.5v-7.5t1 -5.5t4 -5t8 0q-8 -8 -17 2q0 4 -4 12q0 -4 4 -12q2 -16 -6.5 -29t-26 -28.5t-24.5 -24.5q-2 -2 -10 -2q-6 -1 -19.5 -2t-19.5 -2 q-4 -2 -10 -2q0 4 -4 4q-51 4 -80.5 12.5t-40.5 30.5q2 3 7 1.5t9 -1.5q-2 4 -10.5 8t-13.5 7.5t-1 7.5q-4 -1 -13 -3t-18.5 -3.5t-19.5 -0.5q-1 4 -6.5 17t-7 19t-3 16.5z" />
<glyph unicode="/" horiz-adv-x="743" d="M0 66q36 71 252 700t242 727q43 46 110 76q9 -4 4.5 -13t-0.5 -10q8 2 26.5 10.5t34 13t29.5 1.5q5 -5 3 -11.5t-4.5 -10.5t-8.5 -10.5t-8 -10.5q-11 -53 -239 -675t-267 -716q-3 -5 -9 -20t-10.5 -24t-12 -23.5t-14 -23.5t-15 -18.5t-16.5 -12.5t-17.5 -3t-19 7.5 t-19.5 21.5l-21 -6q-1 5 -3 9.5t-4 6.5t-6.5 7t-6.5 8z" />
<glyph unicode="0" horiz-adv-x="1087" d="M8 434q-24 180 10.5 345t106.5 343q63 156 154 250q-6 4 -1 15t5 18q30 24 61 65t62.5 78.5t70.5 59.5q10 0 35.5 -8t42.5 -1q9 -6 31 -19t32 -21q8 4 18.5 1.5t17 -3t16.5 -7t15 -10.5t14 -12.5t13.5 -13.5t12.5 -14t12 -13q18 -4 76.5 -5t81.5 -12q23 -10 56 -50.5 t44 -69.5q25 -63 45 -160q4 -20 5 -42t-1.5 -46.5t-5 -42.5t-7.5 -46t-7 -40q-5 -33 -37 -123q-6 -15 -21 -56t-24 -64t-23.5 -57.5t-28 -63.5t-28.5 -54q-57 -102 -129 -211q-3 -5 -15 -23t-15 -23t-14 -21t-15.5 -22t-14.5 -19.5t-16.5 -20.5t-16.5 -18.5t-18.5 -19.5 t-19 -17t-21.5 -17q-13 -10 -43.5 -26t-51 -32.5t-28.5 -39.5q-95 -15 -202 12q-6 5 -29 26.5t-31 29t-27 26.5t-29 31.5t-23 30.5t-23 35q9 40 -17 69q-4 3 -6 3t-3 -2.5t-1 -8.5l-7 17.5t-8.5 20.5t-7.5 21t-6 22t-2 19t3 17q-2 4 -8.5 10t-8.5 10zM33 700q8 -4 10 9 q3 18 -7 20q-1 1 -3 0v-29zM319 649q1 -2 10 -3t7 -9q-16 -47 -16 -102.5t13 -108t30 -97t38 -81.5q35 -59 70 -59.5t76 42.5q68 84 109 139t100 155t90 192q26 78 49 153q5 13 18.5 47.5t21 59t11.5 47.5q29 198 -47 317q-11 20 -33.5 47t-36.5 37q-18 12 -36 13.5t-30 -4 t-32.5 -15.5t-34.5 -14q-19 -24 -69 -84.5t-74 -93t-54.5 -89t-45.5 -114.5q-14 -5 -22 -34.5t-23 -33.5q-2 -25 -20.5 -61t-22.5 -49q-2 -10 -2 -35t-3 -37q-17 -83 -41 -125z" />
<glyph unicode="1" horiz-adv-x="790" d="M-104 924q78 53 152.5 130t124 145t119.5 163t122 156v20q3 2 11.5 10.5t13.5 12t14 8.5t18 6q-1 3 1.5 6t2.5 6q25 1 48.5 -4.5t37 -12.5t36 -20.5l32.5 -19.5q16 -9 40 -21t40.5 -22t31.5 -25v-5q-1 -5 -1 -8.5t2.5 -5.5t7.5 -1q0 -4 -2 -7.5t-6 -6t-5 -3.5 q3 -129 -84 -260q-2 -6 1.5 -11.5t2.5 -10.5q-78 -149 -90 -297q-26 -27 -46.5 -101.5t-37.5 -101.5q-9 -56 -37.5 -168t-41 -207.5t-3.5 -201.5q0 -7 6 -22.5t7 -18.5q-8 -1 -10 -5t-1 -8.5t-2 -7.5q-19 4 -50.5 -15t-49.5 -22q-41 -6 -112.5 9t-127.5 41.5t-55 48.5 q3 3 9.5 4t11.5 1t13.5 -0.5t12.5 -0.5q-7 5 -19 17.5t-20 16.5q11 57 22 127t17 105q-2 6 5.5 8.5t7.5 7.5q2 6 -5 8t-4 9q1 1 4 3.5t4.5 3.5t4.5 3.5t4 4.5t2.5 4.5t2 4t0.5 4t-1.5 5t-3.5 4.5q15 0 20 8q1 3 -1.5 4.5t-5.5 1l-6 -1t-5.5 0t-1.5 3.5q2 11 15.5 23t16.5 20 q0 4 -2 7.5t-5.5 7t-4.5 5.5q20 18 29.5 92t36.5 91q2 7 -6.5 9.5t-6.5 10.5q1 9 13 32.5t16 37.5q3 11 2.5 31.5t3 34t15.5 18.5q0 4 -9.5 6t-11.5 6q0 16 6 35t19 22q-17 31 22 62q-6 19 1 41t17.5 37t15.5 32.5t-5 26.5q0 5 7.5 6t8.5 2q-4 28 -1.5 37.5t14.5 30t16 33.5 q-18 -3 -30.5 -15t-24 -26.5t-23.5 -20.5q-84 -127 -141 -184q-65 -60 -89 -75q-65 -38 -93 26z" />
<glyph unicode="2" horiz-adv-x="1261" d="M-19 18.5q-4 7.5 1 26.5q40 27 78 70.5t59.5 76t57.5 94.5t52 87q160 199 232 323q5 2 13 6.5t13 6.5q22 55 55.5 104t78 103.5t69.5 91.5q0 1 0.5 5.5t1 6t1.5 6t1.5 6t2.5 4.5t3.5 4.5t4.5 2.5t6 1q0 4 -2.5 8.5t-1.5 8.5q23 23 49 87t49 87q10 46 61.5 131t63.5 139 q-18 16 -46.5 13.5t-47.5 -11t-47.5 -21t-45.5 -16.5q-6 0 -8 -9t-4 -11q-144 -86 -219 -227q-43 -44 -90.5 -156.5t-75.5 -151.5q-10 2 -29.5 16t-37.5 13q2 11 3.5 15.5t5.5 12.5t7 15q8 13 15.5 43t11.5 39q38 85 102 168.5t133 146.5q32 67 145 129q58 32 102 47.5 t102 12.5t112 -35q2 -2 3.5 -12.5t4.5 -12.5q37 -6 67 -22t54 -44t38 -49t36 -59q-1 -3 -7 -4t-6 -4q0 -8 9 -8q-1 -2 -5.5 -8t-6.5 -9.5t-2 -9.5t5 -12q-49 -96 -133 -170q-4 -12 0 -24q-19 0 -16 -25q-41 -39 -104.5 -145t-110.5 -146q-4 -17 -14 -30.5t-26.5 -28.5 t-23.5 -23q-2 -66 -78 -133q-1 -21 -17 -44.5t-36 -37.5q2 -5 -0.5 -11.5t-4 -9t4.5 -5.5q-30 -22 -86.5 -88t-97.5 -91q7 -7 2.5 -18.5t-10 -18t-15.5 -17t-14 -15.5q44 20 181 54.5t184 61.5q27 3 125 29.5t165 24.5q15 -17 84 -25q-5 -5 -22.5 -5.5t-20.5 -6.5 q6 -8 26 -8t26 -9q3 -7 1.5 -11.5t-10.5 -4.5q2 -5 13 -8t12 -4q-3 0 -8.5 -2l-11 -4t-11 -3.5t-8.5 -0.5t-4 6h8q-34 -5 -163.5 -10.5t-188.5 -28.5q-6 -2 -16 -12t-17 -13q-8 -4 -28 -6t-29 -6q-21 -8 -75.5 -38.5t-82.5 -39.5q-16 -13 -25 -31q-60 -26 -148 -99.5 t-134 -98.5q-34 0 -37 -8q-11 8 -40.5 12t-41.5 8q-23 7 -43 21t-42 35t-32 28q-4 3 -16.5 7t-16.5 11.5zM516 328q7 -1 9.5 3t2.5 13q-15 0 -12 -16z" />
<glyph unicode="3" horiz-adv-x="1046" d="M4 328q40 -10 53 -9q21 -21 53 -64.5t54.5 -70t65 -46t96.5 -13.5q40 4 73 14t65 31t49.5 35t53.5 45q4 31 29 41q1 19 17 45.5t27.5 55t4.5 57.5q5 15 5 24.5t-2.5 15.5t-7 22.5t-7.5 39.5q-7 57 -60 100t-125.5 50t-150.5 -31q-9 4 -57 4q-25 22 -47 73.5t-33 67.5 q-14 -4 -23 2.5t-17.5 20.5t-13.5 18q157 56 224 92q168 86 274 203q51 58 96 133q55 101 62 146q8 47 -13.5 72.5t-59 26t-81.5 -12.5q-19 -7 -62 -32.5t-59 -33.5q-8 -4 -31 -10.5t-33 -16t-13 -28.5q-51 -31 -99.5 -78t-104 -111t-83.5 -92q-5 -2 -19.5 1.5t-25.5 -1.5 q-3 4 -8 10.5t-8 11t-7 11t-6 12.5q72 89 219 236q35 16 85.5 51t90 63t98.5 49.5t120 20.5q156 -8 190 -100q13 -18 62 -62.5t63 -79.5q8 -18 11.5 -61.5t12.5 -58.5q-1 -35 -14 -66.5t-24 -46t-43 -53.5q-7 -8 -16.5 -20t-14.5 -17.5t-15 -11.5t-22 -9q0 -8 10 -8 q-22 -25 -49 -48.5t-64 -53t-53 -43.5q80 -25 144.5 -74.5t87.5 -120.5q1 -4 9.5 -12t10.5 -12q2 -5 -4 -13q2 -4 11 -11.5t10 -16.5q5 -29 16 -63.5t17.5 -55t4.5 -52.5t-18 -69q-3 -27 -10.5 -50.5t-23.5 -46.5t-25 -34.5t-33.5 -36.5t-30.5 -31q-75 -32 -129 -96 q-17 -2 -33 -12q-17 -15 -41 -27t-41.5 -19t-54.5 -15t-51 -10.5t-60.5 -10t-54.5 -8.5q0 6 10.5 8t10.5 8q-10 0 -21 1t-15.5 1.5t-11 0t-13 -2t-17.5 -4.5q-1 5 5 10.5t-1 9.5q-3 -5 -44 -2.5t-44 2.5q-1 6 2 9t8 3.5t10 0.5t9 2t4 6q-41 16 -45 0q-4 1 -9 11t-16 5 q-1 4 1 6.5t3.5 3.5t6.5 2t6 1q-33 11 -84 43t-70 41q-5 1 -2 -5q5 -12 -2 -12q-44 34 -64.5 105.5t-9.5 130.5zM143 96q1 -6 5.5 -9.5t8 -5t11.5 -3t10 -2.5q-1 8 -16.5 13t-18.5 7z" />
<glyph unicode="4" horiz-adv-x="1128" d="M-2 772q1 1 15 21.5t18 35.5q53 46 114 165t84 151q0 6 -5.5 6t-6.5 -6q7 18 32 70t37.5 85t12.5 81t-25 87q-5 8 -19.5 20t-23 24.5t-6.5 29.5q30 11 62 0q8 8 -5 28.5t-3 24.5q4 7 9 3t18 -9.5t24 -1.5q5 -5 11 -20t15.5 -23.5t26.5 -5.5q-8 -8 -2.5 -11.5t17.5 -10 t14 -11.5q1 -26 21.5 -56.5t23.5 -51.5q-7 -8 -9.5 -17.5t-2.5 -23.5t-1 -21q-4 -26 -17.5 -69.5t-18.5 -71.5q-1 -10 -12 -23t-13 -18q-1 -3 2 -10t2 -10q-2 -11 -16.5 -39t-16.5 -33q-74 -147 -170 -264q114 37 158 69q3 1 29.5 9.5t33 11t27.5 10.5t30.5 14t23 15.5 t22.5 19.5q4 -1 8.5 -2t7 -1t6 0.5t7.5 2.5q8 2 18.5 14.5t13.5 14.5q32 -4 45 4q34 42 73.5 149.5t68.5 147.5q27 117 75 170q16 100 46 145q14 -1 27.5 -7t19 -10.5t19 -19t15.5 -16.5q4 -4 15.5 -6.5t15.5 -5.5q21 -15 55 -47t39 -49q5 -11 0 -50q-9 -50 -29.5 -109.5 t-50 -134t-40.5 -104.5q-4 -3 -14 -14.5t-19 -13.5q7 -41 -12 -90t-46 -85q2 -21 -5 -48.5t-23 -43.5q-17 -61 -37 -142t-43 -163q-6 -20 -13.5 -58t-16 -67t-23.5 -53q-2 -30 -22 -79.5t-17 -98.5q-4 -1 -7 -3.5t-5 -4.5t-5 -6.5t-4 -6.5q-21 1 -79 -6.5t-102 -4t-67 27.5 q-45 -11 -79 16q-9 38 10 103t18 88q22 22 37.5 91t34.5 91q3 4 1.5 19t-1.5 20q24 36 27.5 52.5t5 38t18.5 60.5q2 6 19.5 33.5t13.5 48.5q24 29 54 95t40 83q-53 -10 -117 -41.5t-114.5 -64t-121 -62.5t-136.5 -38q-33 -3 -52.5 3t-46.5 21q-6 22 -16 43z" />
<glyph unicode="5" horiz-adv-x="1173" d="M0 387q-1 14 13.5 55.5t27.5 61.5q2 2 13 8t16 12q8 9 24 38t27 40q22 23 58.5 47.5t56.5 28.5q35 6 59.5 -1.5t51.5 -27t42 -26.5q-55 -29 -87 -123.5t-19 -194t73 -137.5q23 -15 49 -16.5t45.5 4.5t51.5 20q64 61 93.5 90.5t75.5 85.5t74 109q7 23 27 77t35 97t27 99 t10 97t-25 76.5t-69 50.5q-80 3 -136 -16q-184 -65 -303 -141q-8 -4 -20.5 -14.5t-24.5 -17t-26 -5.5q-10 3 -18.5 24.5t-26.5 20.5q-2 8 4 14.5t4 14.5q-1 8 -16 2q-5 0 -5 2q2 27 11 53t28 64.5t23 48.5q3 7 -3.5 9t-4.5 9q41 91 107.5 271t100.5 259q0 3 -3.5 9.5t-4 10 t3.5 5.5q0 2 4 5.5t5 6.5q15 3 42 -10t35 -14q17 -3 53 -3t44 -1q100 -10 313 -64q24 -6 85.5 -6t88.5 -6q1 -2 4.5 -10.5t7.5 -13t11 -5.5q-10 -9 -38.5 -18.5t-37.5 -18.5q-57 -1 -181.5 22t-195.5 15q-91 -8 -162 4q-13 -19 -17.5 -61t-6.5 -51q-11 -40 -44.5 -110 t-43.5 -97q-12 -33 -28 -117t-34 -123q35 10 89.5 33.5t96 41.5t101.5 29t119 3q93 -11 157.5 -33.5t112.5 -64.5t70 -109t20 -162q-2 -108 -78 -276q-45 -99 -100 -174q-21 -29 -41 -50.5t-34 -32.5t-52 -38q-118 -82 -217 -105q-25 -6 -84 -14.5t-94 -18.5q4 -4 21 -3.5 t26 -0.5q4 -4 -6 -4h-20q-17 1 -21 0q-6 -2 -8.5 6t-8.5 7q-82 13 -145 34t-115.5 55t-83 85.5t-37.5 119.5q-2 20 6.5 54t6.5 51q-1 8 -12.5 24t-12.5 25zM1057 817q4 1 9.5 0t9 1t1.5 7h-20v-8z" />
<glyph unicode="6" horiz-adv-x="927" d="M0 438q2 6 3 0q1 -3 1 -6q6 0 8 3t1 8.5t-3 11t-4 11.5t-2 9q0 1 6 5.5t6 6.5q2 5 2 13t-1 17.5t-1 14.5q2 25 14.5 79t14.5 91q5 70 33 146q4 11 21.5 53.5t25.5 67.5q2 0 7 -2.5t9 -1.5q13 31 51.5 86t51.5 92q-2 5 -3 3t-5.5 -6t-8.5 -1q3 4 12.5 27.5t24.5 25.5 q2 7 -1 7l-2 -1q-5 -3 -5 2v4q52 70 171.5 189.5t168.5 183.5q56 50 117 -4q0 -31 15.5 -49.5t46.5 -34.5t42 -25q0 -11 4 -21.5t13 -20.5t15 -16t20 -17.5t18 -14.5q-205 -169 -418 -493q2 -2 17 -1t20 5q14 -12 44.5 -20t33.5 -9q54 -24 92.5 -80.5t54 -124t9.5 -142 t-35 -134.5q3 -33 -4 -60t-19.5 -56t-17.5 -46q-24 -28 -80 -70.5t-78 -66.5q-53 -31 -124.5 -48.5t-133.5 -0.5q-4 1 -18 10.5t-23 9.5q-21 27 -81.5 73t-84.5 85q-25 42 -32 90.5t-9 142.5zM295 367q-7 -67 12 -154q5 -5 16.5 -22t23.5 -26t30 -9q15 14 51 45t58 51.5 t46.5 56.5t34.5 74q3 14 4.5 43t3.5 41q2 13 9 51t8.5 51t4 42.5t0.5 46.5t-7 40.5t-15 44.5q-15 34 -58 70t-68 18q-36 -25 -57.5 -77t-43.5 -138q-5 -19 -15.5 -59.5t-16 -64.5t-12 -59t-9.5 -66z" />
<glyph unicode="7" horiz-adv-x="1261" d="M-135 731q13 5 88.5 39.5t118.5 48.5q4 0 4.5 10t3.5 11q114 51 221 86q32 12 94 27t88 24q14 5 22 13.5t17 26t15 25.5q30 41 105.5 119.5t96.5 104.5q4 6 11 21t14 22q7 6 30.5 16.5t32.5 20.5q12 12 21 53q47 32 82 104q-131 -15 -187 -59q-4 -1 -5.5 0.5t-1.5 4t-2 4 t-7 -0.5q-39 -20 -136.5 -39.5t-137.5 -38.5q-22 1 -85 -2t-110 -3t-91 15t-52 48q18 8 70.5 -1t80.5 -4q1 14 -12 24.5t-12 23.5q12 9 41.5 6.5t29.5 -25.5q53 0 106.5 3.5t95 8t96.5 16t85 18t89 23.5t79.5 23.5t85.5 27.5t80 26q22 -13 41 -13q12 -14 13 -40t3 -33 q7 -19 33 -42.5t50 -42t39.5 -49t7.5 -65.5q-29 -29 -33 -51q-30 -19 -58.5 -41.5t-59.5 -50.5t-50.5 -46.5t-56 -55l-50.5 -50.5q21 -6 70 -8t83 -11.5t46 -37.5q-20 0 -31.5 -12.5t-13.5 -26.5q-9 2 -16 5.5t-14.5 10t-10.5 8.5q4 1 15 -5.5t18 -7t16 12.5 q-13 10 -30.5 13.5t-46.5 4t-40 1.5q-70 3 -101 -11t-73 -65q-32 -39 -78 -110t-75 -109q-28 -37 -47 -66t-37 -69.5t-24 -54.5t-27.5 -77.5t-28.5 -82.5q-13 -35 -30.5 -106t-36.5 -127t-46 -91q-184 12 -239 12q-11 11 -49.5 34.5t-51.5 45.5q83 192 127.5 289t114.5 229 t151 258q-11 -3 -53 -16.5t-56.5 -18t-49.5 -16.5t-55.5 -20t-49.5 -20t-55 -25q-12 -6 -53.5 -33.5t-72.5 -36.5t-69 0q-4 8 -12 24.5t-12 24.5z" />
<glyph unicode="8" horiz-adv-x="1130" d="M-2 244q12 124 160 260q116 104 245 182q-3 21 -30 52.5t-33 43.5q-4 8 -7 26t-7 26q-2 4 -20.5 29.5t-22.5 43.5q-4 12 -10 36.5t-7 29.5q-3 11 -11.5 32t-10.5 31q-4 6 -1.5 33t1.5 37q-1 9 -6.5 27.5t-7.5 30t2 25.5t16 23q0 3 -2.5 16.5t-1 21.5t9.5 10q0 6 -7 2 q-3 -2 -3 -1v3q9 132 96 198q17 -2 43.5 -4t46 -4.5t35.5 -7.5q26 -20 66.5 -69t66.5 -70q-4 -14 -28 -48t-31 -63q-15 -91 -11 -123q3 -33 47 -127q4 -9 11.5 -33.5t16 -38.5t26.5 -24q45 37 67.5 56.5t57.5 54t58 70t40 75.5q5 14 19 57t24 70q1 5 8.5 16t9.5 15 q13 51 2.5 103.5t-36.5 94.5q-4 4 -24 21t-26.5 22t-25 18t-31.5 18t-33 11.5t-41 8.5q-10 1 -24 1.5t-22 1t-18.5 4t-19.5 9.5q6 9 19 11t24.5 0.5t22.5 0.5q5 2 16.5 9t18.5 8q73 21 147 8t134 -49t77 -76q2 -1 0.5 -11t-0.5 -16q1 -4 9 -23.5t8 -29.5q0 -31 -21 -96 q-1 -3 -7 -10t-7 -11q-2 -2 -0.5 -10t0.5 -12q-12 -32 -46.5 -95t-47.5 -98q-4 -14 -27.5 -38.5t-28.5 -34.5q-36 -85 -49 -101q-7 -8 -26.5 -25.5t-28.5 -27.5q-48 -54 -105 -86q12 -37 75.5 -115.5t76.5 -132.5q5 -21 17 -54.5t18 -55.5q22 -76 18 -119q-1 -11 -10 -40.5 t-4 -43.5q-1 -8 -12 -26t-9 -34q-3 -4 -23 -31t-25 -33t-24.5 -30t-28 -31t-29 -26t-35 -25.5t-37.5 -18.5t-44 -16t-48 -7.5t-56 -2.5q-10 0 -10.5 3.5t3 7t-0.5 4.5q-63 -13 -144 -8t-148.5 17t-125.5 29q-11 4 -28.5 22t-24.5 23q-51 92 -39 224zM84 160q6 -76 39 -107 q26 -26 121 -47q9 -2 32 -9t35 -9.5t37.5 -5.5t38.5 2q-5 15 15 24.5t49 3.5q60 58 94 145t37 187q-3 8 -26.5 56t-27.5 77q-1 4 0 16t0 17q-2 7 -15.5 18t-16.5 15q-1 2 0 8.5t0 7.5q-7 15 -54 72q-17 -12 -63.5 -32t-65.5 -32q-8 -5 -27 -22t-32 -25q-20 -14 -36.5 -30.5 t-25 -27t-25.5 -36t-26 -37.5q-72 -103 -57 -229zM844 1573q6 -4 16 -13.5t20 -14.5t25 -5q3 9 -7.5 14.5t-29 10.5t-24.5 8z" />
<glyph unicode="9" horiz-adv-x="995" d="M-268 150q9 150 75 282q3 -1 14.5 -1t22.5 -1.5t17 -5.5q-13 -73 -13 -132t15.5 -109t58 -76.5t109.5 -22.5q16 1 28 6.5t26 16t21 14.5q18 11 56 20.5t62.5 25t31.5 50.5q3 1 14 7.5t19 8.5q6 17 19.5 37t34.5 47.5t28 38.5q1 5 -2.5 10.5t-1.5 10.5q14 14 25 36.5 t11 39.5q8 6 14.5 13.5t12.5 18.5t10 19t10 22.5t9 20.5q3 9 9.5 26.5t10 27t10.5 20t15 14.5q-1 16 3 34.5t7 26.5t14.5 34.5t12.5 29.5q32 145 49.5 238t31.5 224t11 246q-15 -7 -26.5 -21t-25 -37.5t-20.5 -33.5q-23 -31 -77 -92t-76 -90q-9 -12 -34.5 -48.5t-41.5 -56.5 t-42 -48t-54.5 -45t-59.5 -25q-10 -2 -19.5 -2.5t-19.5 1t-16.5 3t-18 5.5t-16.5 5q-5 10 -21.5 31.5t-21.5 38.5q-14 185 96 348q69 106 166 166q48 31 115.5 33.5t124.5 -37.5q-3 -9 -4.5 -25t-12.5 -29q-65 21 -143.5 -3t-116.5 -70q-5 -7 -12 -21t-14.5 -23t-20.5 -12 q-2 -12 0 -24q-44 -38 -62.5 -120.5t-15.5 -166.5q-5 -5 -16 -14.5t-16 -14.5q0 -7 2.5 -11.5t9.5 -10t8 -6.5q36 9 70.5 27.5t59 37.5t54.5 51t46.5 52t46.5 59t43 55q27 34 80.5 112.5t84.5 115.5q-4 27 9 32q230 28 297 -186q36 -110 30 -227q-11 -173 -47 -348.5 t-90 -307.5q-5 -10 -20 -29.5t-21 -31.5q-15 -27 -47.5 -96.5t-52.5 -102.5q-3 -5 -19.5 -33t-21 -35.5t-19 -31.5t-21 -33.5l-19.5 -28.5t-22 -29.5t-21 -23t-23 -22.5q-42 -36 -170 -99q-8 -4 -41.5 -26t-59.5 -29.5t-61 -3.5q-12 1 -34.5 13.5t-35.5 15.5q-22 6 -67 9 t-62 9q-4 1 -44 24t-68 17q-3 20 -30.5 36t-31.5 21q-6 7 -16 31.5t-12 32.5q-27 61 -21 143q-5 4 -9 -0.5t-8 -16.5zM-31 -49q18 -14 43.5 -20t50.5 8q-72 16 -94 12zM213 4q28 -2 55.5 19.5t44.5 23.5q-3 16 -20 16q0 -16 -11.5 -23.5t-26 -9t-27.5 -7.5t-15 -19zM322 55 q17 0 28 14q7 9 -4 15q0 -9 -12 -15t-12 -14zM362 80q22 2 33 29q-3 0 -7 -1l-6 -1.5t-4.5 0t-5 2t-5.5 4.5q-2 -5 -2.5 -15.5t-2.5 -17.5zM416 4q60 39 121 129q-17 1 -26.5 -20t-23.5 -21q-4 -20 -38 -44t-33 -44z" />
<glyph unicode=":" horiz-adv-x="378" d="M-4 406q-1 10 2 18t10 16q-6 20 -3.5 24.5t-0.5 24.5q-8 20 -8 40.5t24 33.5q33 6 117 6q5 1 7.5 3.5t5 8t4.5 7.5q49 8 68.5 -5.5t19.5 -45.5q2 1 2 3v6.5t2 8.5q4 -9 23 -6t30 0q-8 -8 -20 0q1 -8 -6 -14.5t-7 -10.5q9 -2 14 5.5t15 5.5q3 -9 -8.5 -12.5t-12.5 -6.5 q4 -6 18.5 -5.5t16.5 -6.5q6 13 4 14q9 8 11.5 -5.5t-7.5 -14.5q9 0 9 6q15 -23 9 -51.5t-1 -53.5q-4 -2 -8.5 -1t-8.5 -1v-7.5t1 -5.5t4 -5t8 0q-8 -7 -17 2q0 4 -4 12q0 -4 4 -12q2 -16 -6.5 -29t-26 -28.5t-24.5 -24.5q-2 -2 -10 -2q-6 -1 -19.5 -2t-19.5 -2 q-4 -2 -10 -2q0 4 -4 4q-51 4 -80.5 12.5t-40.5 30.5q2 3 7 1.5t9 -1.5q-2 4 -10.5 7.5t-13.5 7t-1 7.5q-4 -1 -13.5 -3t-18.5 -3t-19 0q-2 4 -6.5 16.5t-6.5 19t-3 16.5zM-4 1156q-1 10 2 18t10 16q-6 20 -3.5 24.5t-0.5 24.5q-8 20 -8 41t24 33q33 6 117 6q6 1 11 9t6 9 q49 8 68.5 -5.5t19.5 -45.5q2 1 2 3.5v7t2 8.5q9 -9 23.5 -6.5t29.5 -0.5q-8 -8 -20 0q1 -8 -6 -14t-7 -10q9 -2 14 5t15 5q3 -9 -8.5 -11.5t-12.5 -6.5q4 -6 18 -6t17 -7q7 14 4 15q8 7 12 -5q3 -14 -8 -16q9 0 9 6q15 -23 9 -50.5t-1 -53.5q-4 -2 -8.5 -1t-8.5 -1v-2 q0 -17 9 -17h4q-8 -8 -17 2q0 5 -4 13q0 -5 4 -13q2 -16 -6.5 -28.5t-26 -28t-24.5 -24.5q-2 -2 -10 -2q-6 -1 -19.5 -2.5t-19.5 -2.5q-2 0 -5 -1t-5 -1q0 4 -4 4q-51 4 -80.5 12.5t-40.5 30.5q2 3 7 1.5t9 -1.5q-2 4 -10.5 8t-13.5 7.5t-1 7.5q-4 -1 -13.5 -3t-18.5 -3 t-19 0q-2 4 -6.5 16.5t-6.5 19t-3 16.5zM254 479q3 -1 8 -5t8 -5q0 8 4 8q-3 -7 4 -8.5t15.5 -1.5t9.5 -4q-3 0 -4.5 -2.5t-1.5 -5.5t-2 -4q9 -4 18 -2q1 2 6 8.5t3 13.5q-6 1 -6 3q3 3 -3 3q-7 -3 -31.5 2.5t-27.5 -0.5zM254 1229q3 -1 8 -5t8 -5q0 8 4 8q-2 -5 2 -6.5 t9.5 -1.5t11 -1.5t6.5 -5.5q-3 0 -4.5 -2.5t-1.5 -5.5t-2 -4q9 -4 18 -2q0 2 5.5 9t3.5 14q-6 1 -6 3q3 3 -3 3q-7 -3 -31.5 2.5t-27.5 -0.5zM296 480q2 0 3 -1q0 5 0.5 6t2.5 -2q5 -6 7 -6q0 2 4 3t4 3q-5 9 -19 6q-12 -2 -2 -9zM296 1230l3 -1q0 5 0.5 6t2.5 -2q5 -6 7 -6 q0 2 4 3t4 3q-5 9 -19 6q-12 -2 -2 -9z" />
<glyph unicode=";" horiz-adv-x="378" d="M-4 1156q-1 10 2 18t10 16q-6 20 -3.5 24.5t-0.5 24.5q-8 20 -8 41t24 33q33 6 117 6q6 1 11 9t6 9q49 8 68.5 -5.5t19.5 -45.5q2 1 2 3.5v7t2 8.5q9 -9 23.5 -6.5t29.5 -0.5q-8 -8 -20 0q1 -8 -6 -14t-7 -10q9 -2 14 5t15 5q3 -9 -8.5 -11.5t-12.5 -6.5q4 -6 18 -6 t17 -7q7 14 4 15q8 7 12 -5q3 -14 -8 -16q9 0 9 6q15 -23 9 -50.5t-1 -53.5q-4 -2 -8.5 -1t-8.5 -1v-2q0 -17 9 -17h4q-8 -8 -17 2q0 5 -4 13q0 -5 4 -13q2 -16 -6.5 -28.5t-26 -28t-24.5 -24.5q-2 -2 -10 -2q-6 -1 -19.5 -2.5t-19.5 -2.5q-2 0 -5 -1t-5 -1q0 4 -4 4 q-51 4 -80.5 12.5t-40.5 30.5q2 3 7 1.5t9 -1.5q-2 4 -10.5 8t-13.5 7.5t-1 7.5q-4 -1 -13.5 -3t-18.5 -3t-19 0q-2 4 -6.5 16.5t-6.5 19t-3 16.5zM35 354v27q0 9 1 26.5t1 26.5q5 70 10 90q6 25 23 37q12 5 28 8h39q5 1 7.5 3.5t5 8t4.5 7.5q49 8 68.5 -5.5t19.5 -45.5 q2 1 2 3v6.5t2 8.5q4 -9 23 -6t30 0q-8 -8 -20 0q1 -8 -6 -14.5t-7 -10.5q9 -2 14 5.5t15 5.5q3 -9 -8.5 -12.5t-12.5 -6.5q3 -6 17.5 -5.5t17.5 -6.5q6 13 4 14q9 8 11.5 -5.5t-7.5 -14.5q9 0 9 6q3 -6 10 -27v-14v-6q0 -35 -2 -51v-7l-2 -2q0 -6 -4 -18h2q0 -2 -2 -2 q-11 -49 -52 -108.5t-79.5 -95t-46.5 -28.5q-19 14 -15 36t10.5 35t10.5 17q0 1 45 58h-4q0 4 -4 4q-51 4 -80.5 12.5t-40.5 30.5q3 2 7 0.5t9 -0.5q-1 3 -12 8t-13 8q-3 3 0 6q-8 -2 -28 -6z" />
<glyph unicode="&#x3c;" horiz-adv-x="927" d="M-10 786q0 24 23.5 65.5t76.5 100t126.5 119.5t186 129t242.5 125q10 10 24.5 18.5t38.5 19t31 13.5q11 0 23.5 -8.5t21.5 -11.5t33 8q35 -60 -4 -131q-7 -13 -25 -35q-55 -54 -135.5 -108.5t-152.5 -94t-137 -75.5t-103.5 -65.5t-38.5 -51.5q0 -32 64 -88t148 -111 t189 -131t164 -133q9 -9 25 -33q35 -76 4 -131q-24 11 -33 7.5t-21.5 -12t-23.5 -7.5q-37 18 -113 62.5t-188 118t-209.5 148.5t-167 155.5t-69.5 137.5z" />
<glyph unicode="=" horiz-adv-x="663" d="M-16 799q5 9 12.5 10.5t14.5 -1.5t16.5 -6.5t15.5 -4.5q36 5 89 5t90.5 -2t110.5 -7.5t97 -6.5q113 -6 150 -20q70 -27 22 -92l14 -25q-7 -4 -11 -8.5t-8.5 -13.5t-8.5 -15q-50 6 -108 6t-99 -3.5t-111.5 -10.5t-107.5 -10q-63 24 -135 96q0 7 4.5 9t9 1t8 -0.5t2.5 5.5 q-6 8 -24.5 27t-29 34.5t-13.5 32.5zM-16 1049q5 8 12.5 9.5t14.5 -1t16.5 -6t15.5 -4.5q88 4 117 4t135 -7t135 -8q98 -8 117 -12q112 -22 55 -102l14 -23q-7 -4 -11 -9t-8.5 -13.5t-8.5 -14.5q-50 6 -109 6t-97 -3.5t-113 -11.5t-107 -11q-70 30 -135 98q0 7 4.5 9t9 0.5 t8 -1t2.5 5.5q-6 7 -24.5 27t-29 35.5t-13.5 32.5z" />
<glyph unicode="&#x3e;" horiz-adv-x="882" d="M14 1364q24 -11 33 -8t21.5 11.5t23.5 8.5q7 -3 31 -13.5t38.5 -19t24.5 -18.5q161 -70 293.5 -156.5t207.5 -160.5t115 -132.5t40 -89.5q0 -57 -70 -137.5t-167 -155.5t-209.5 -148.5t-188.5 -118t-113 -62.5q-11 -1 -23.5 7.5t-21.5 12t-33 -7.5q-31 55 4 131 q16 24 25 33q59 57 164 133t189 131t148 111t64 88q0 22 -38.5 51.5t-103.5 65.5t-137 75.5t-152.5 94t-135.5 108.5q-17 22 -25 35q-39 71 -4 131z" />
<glyph unicode="?" horiz-adv-x="931" d="M0 1051q-4 66 17.5 130t53 128t40.5 106q30 42 69.5 78.5t97.5 81t82 65.5q16 1 63.5 6.5t67.5 6.5t60.5 2.5t62 -3t49.5 -12.5t47 -25t33 -40q22 0 56 -18t41 -35q46 -107 49 -133q1 -4 -1 -7t-4.5 -4t-2.5 -2q-1 -9 2 -31t2 -30q-3 -20 -17.5 -60t-13.5 -59 q-16 -35 -57.5 -99t-57.5 -104q-8 1 -13 -6t-13 -6q1 -6 -4 -31q-79 -75 -115 -164q-34 -22 -74.5 -88t-66.5 -88q-15 -50 -35 -95t-32.5 -68.5t-19.5 -65t-4 -98.5q2 -6 -1.5 -7t-9 1t-10.5 1t-5 -8q-1 -8 1.5 -9t6 1t5.5 1.5t1 -7.5q-38 2 -85 25t-64 28q-7 10 -4 23 q-6 -7 -10 -7.5t-13 3.5q-16 31 -25.5 67t-11.5 78t13 76q-6 58 3.5 85.5t30.5 59t33 76.5q26 28 51 64.5t59 90.5t48 76q22 34 63 82t69.5 90t43.5 89q5 19 24 63.5t29.5 74.5t4 62.5t-41.5 48.5q-45 4 -78 -9.5t-65.5 -36.5t-58.5 -31q-12 -19 -29.5 -44.5t-32 -45 t-31.5 -46t-29.5 -50t-23 -53.5t-15.5 -59.5t-4.5 -65t7.5 -73.5q-9 2 -16 -4.5t-11 -7.5q-143 48 -180 66zM17 13q6 29 1 53q4 3 7.5 2t7.5 2q5 18 -10 18q8 8 16 -4l1 -4q1 -4 1 -8q3 8 -2 12q-3 19 11.5 36t33 35t22.5 35q3 1 7 -0.5t6 -1.5q-4 11 -0.5 16t13 14t11.5 15 q13 -5 11 -29t4 -34q104 -4 123 -41q-2 -5 -8 -2.5t-9 2.5q2 -4 10.5 -8.5t12.5 -7t0 -9.5q34 9 53 7q2 -5 6.5 -17t6.5 -18t3 -16t-2 -18.5t-10 -16.5q6 -19 3.5 -24t0.5 -24q8 -20 8 -40.5t-24 -32.5q-50 -9 -117 -6q-6 -1 -10.5 -9.5t-5.5 -9.5q-49 -8 -68.5 5.5 t-19.5 45.5q-2 -2 -2.5 -8t-2.5 -10q-9 7 -23.5 5t-29.5 1q8 8 21 0q-1 6 5.5 12t6.5 11q-9 2 -14 -4.5t-15 -4.5q-3 9 8.5 12t12.5 7q-4 6 -18.5 5.5t-18.5 6.5q-5 -15 -4 -16q-9 -6 -10.5 6.5t8.5 13.5q-8 2 -8 -4q-16 21 -10 50zM31 -6h6l-1 -1q-4 -3 1 -3q9 3 32.5 -2.5 t28.5 -1.5q-3 2 -8 6t-8 6q0 -8 -4 -8q2 6 -5.5 7t-15.5 1.5t-8 5.5q3 0 4.5 2.5t1.5 5.5t2 4q-4 2 -20 2q0 -4 -4 -10.5t-2 -13.5zM35 -16q5 -10 21 -6q10 3 -3 8q0 -4 -0.5 -5t-2.5 2q-5 7 -9 7q0 -2 -3 -3.5t-3 -2.5zM63 -266q2 8 2.5 13.5t2.5 10.5q6 0 11 3.5t11 2.5 q-3 -3 -4 -15.5t-4 -14.5h-19zM106 174h17q0 10 -8 10q0 -1 -5.5 -3t-3.5 -7zM132 209q-1 -3 3 -8q7 -2 10 4t2 13t-4 9q-1 -4 -5.5 -9.5t-5.5 -8.5z" />
<glyph unicode="@" horiz-adv-x="1298" d="M0 639q4 45 10 75t15.5 68.5t11.5 53.5q12 5 16.5 -5.5t5.5 -11.5q8 -1 10.5 5t2.5 16q-3 4 -15.5 2.5t-15.5 7.5q7 16 16.5 53.5t22.5 67t37 45.5q3 8 -4.5 11.5t-6.5 10.5q72 91 93 154q24 13 52.5 61t41.5 62q49 55 132.5 112t166.5 95q41 20 58 27.5t51.5 18 t60.5 11.5q18 0 36 -1t30.5 -2.5t31.5 -6t27.5 -7t32 -9t32.5 -9.5q35 -26 87.5 -52t91.5 -50t63 -58q6 -9 11.5 -28.5t8.5 -26.5q3 -6 13.5 -21t13.5 -24q35 -94 -8 -334q-1 -5 -6.5 -9t-7.5 -9q-2 -6 0 -25t0 -26q-11 -65 -37.5 -124.5t-71 -134t-57.5 -98.5 q0 -6 -4.5 -17t-4.5 -24q-21 -18 -59.5 -59t-72.5 -68t-74 -43q-12 -5 -15 -22q-38 0 -43 -23q-50 -4 -110 15q5 24 -9 40.5t-41 33.5t-38 30q3 23 -8 69t-9 68q-2 6 -1 7t4 0t5.5 -3t5 -1t3.5 5q1 9 0.5 11.5t-4.5 8t-5 7.5q-9 -2 -7 -10t-1 -12q-2 20 2 44.5t13.5 60 t11.5 44.5q-23 -44 -80.5 -73t-120.5 -23t-94 57q2 38 21 107t22 100q-2 7 -7 -1q-1 -2 -1 -3q25 95 107 189t177 104q27 4 54 -7t56.5 -28t49.5 -23q6 3 12.5 4t14 -0.5t13 -3t14.5 -4.5l12 -4q-4 -5 -23 -13.5t-22 -21.5q19 -33 73.5 -72t71.5 -59q3 -13 -4.5 -22 t-7.5 -15q1 -6 16 -21t15 -26q0 -5 -6 -17.5t-16 -30t-13 -23.5q-108 -174 -111 -350q57 36 102.5 84.5t87 126.5t60 119.5t60.5 145.5q5 13 8 19q0 43 25.5 148.5t12.5 169.5q-3 17 -25.5 70.5t-35.5 74.5q-85 121 -238 135q-33 -16 -94 -24t-82 -15q-13 -4 -30 -21 t-27 -24q-14 -8 -45.5 -20t-42.5 -19q-6 -4 -13 -14t-14 -16q-13 -12 -55.5 -38.5t-56.5 -45.5q-8 -10 -42 -68t-65 -76q-18 -49 -49 -88v-31q-11 -12 -29.5 -54.5t-40.5 -55.5q1 -29 0.5 -39t-8.5 -44t-10 -44q1 -8 0.5 -8.5t-4.5 2t-8 0.5q0 -12 18 -25q0 -23 -10 -64.5 t-12 -58.5q-17 -154 47 -344q1 -4 9 -6t9 -6q32 -91 123 -141q20 8 31 8q5 -3 8.5 -15t5.5 -16q31 -11 61.5 -12.5t64 8.5t48.5 15t51 23l37 19q5 -7 5 -17t-2.5 -22t-2.5 -18q-12 -16 -33.5 -29.5t-36.5 -20t-48.5 -18.5t-43.5 -16q-10 8 -19 9t-21.5 -2t-20.5 -3 q-49 2 -94.5 19.5t-76 38t-65 58t-51.5 60.5t-47 66q2 39 -31 76q1 2 6.5 9t6.5 13q-23 45 -35.5 154t-18.5 131q-10 -3 -8.5 -28t-3.5 -34q-10 27 -6 72zM19.5 696.5q-0.5 -4.5 5.5 -10.5q0 2 2 7t3.5 9t2 8.5t-1 7t-6.5 3.5q1 -4 -2 -12t-3.5 -12.5zM209 938q10 0 16 16 t0 23q-1 -2 -6 -10.5t-7.5 -15t-2.5 -13.5zM389 664q38 16 66.5 41.5t66.5 74.5t47 60q5 0 10 -2t7 2v22q22 17 43.5 42t35 44.5t34.5 53t32 49.5q-39 5 -70.5 -3t-49 -19.5t-46.5 -35.5q-57 -41 -71 -55q-21 -25 -38.5 -64t-26 -65t-22.5 -79t-18 -66zM582 625 q17 4 27 33.5t22 35.5q0 4 -7 6t-8 5q21 35 11 47q-19 -29 -45 -127zM657 809q0 3 3 4.5t6 -0.5q-3 11 3 22.5t10 15.5t-5 11q-31 -46 -17 -53zM696 731h13q3 17 -9 17q0 -2 -2.5 -7t-1.5 -10z" />
<glyph unicode="A" d="M-430 -35q56 91 235 437t232 460q-5 7 -28.5 18t-24.5 25q8 0 10 3.5t0.5 10.5t-0.5 9q17 2 39 -1.5t35 -2.5q11 2 23.5 19t19.5 20q4 8 3.5 19t4.5 11q4 7 26.5 38.5t30.5 53.5q3 2 11.5 12.5t15.5 10.5q108 209 289 453q10 15 29 36t32 39t18 39q65 0 175.5 -20 t138.5 -45q11 -11 24 -32t27.5 -36.5t36.5 -23.5q1 -5 1 -11q0 -23 -12 -55q-15 -42 -39 -98.5t-34 -96.5q-6 -27 -16.5 -67.5t-16 -62.5t-12.5 -58t-7 -54.5t1 -51.5q-7 -14 -13 -30.5t-9.5 -28t-7.5 -33t-5.5 -30t-5 -35t-4.5 -32.5q-3 -6 -0.5 -27t2.5 -26 q-1 -27 -63 -363q-56 -306 -57 -377q0 -7 1 -12q-9 1 -23 -4t-24 -4q-5 -8 -5 -17t2 -12.5t-1 -5.5q-19 2 -133 4t-188 14.5t-91 43.5q23 72 80 418t69 395q-40 8 -133 13t-120 9q-49 -71 -240 -440t-227 -426q-45 0 -72 8zM162 932q30 -15 113 -17.5t92 -3.5q4 1 7 9t7 8 q13 47 55.5 222.5t75.5 270.5q31 82 31 109q-37 -51 -104.5 -144.5t-104.5 -144.5q0 8 -4 0q5 -3 -2.5 -15.5t-1.5 -15.5h-19q3 -10 1 -19.5t-11 -2.5q-3 -6 1.5 -12.5t-1.5 -14.5q-15 -7 -28.5 -44t-37.5 -48q8 -5 5 -18q-25 -16 -43.5 -61.5t-30.5 -57.5zM668 1595 q16 -12 30 -12q4 8 -1 13t-14 5t-15 -6z" />
<glyph unicode="B" horiz-adv-x="1257" d="M0 68v7q0 24 6 63q6 45 12 78.5t17 82t19 79.5t18 71t14 57q3 13 10 40.5t10 41.5q43 149 171.5 541.5t156.5 482.5q7 6 37 0q-11 22 6 39q3 0 98.5 -16.5t157.5 -29.5t90 -24q15 -47 35 -57q4 -10 5.5 -21t0.5 -24.5t-1.5 -23.5t-5.5 -26t-7.5 -24.5t-10 -27.5 t-10 -25.5t-11.5 -27.5t-11 -26q9 3 18.5 11t14.5 15t13.5 20t10.5 16q14 19 58.5 88.5t79 110.5t75.5 69h80q8 -6 20.5 -21.5t20.5 -21.5q1 -4 6 -27.5t6 -31.5t3.5 -26.5t1 -33t-4.5 -30.5q-6 -29 -21 -85t-20 -75q-15 -53 -85.5 -226.5t-125.5 -250.5q-63 -77 -180 -154 q-4 -16 13.5 -28t19.5 -15q15 -24 15 -79q0 -57 -16 -146q-31 -176 -73 -266q-3 -7 -12 -20t-12 -19q-7 -15 -16 -35t-15 -31q-66 -64 -161 -78q-20 -3 -40 -3q-70 0 -123 42q-9 2 -12.5 -9t-11.5 -9q-24 25 -165 38.5t-165 26.5q-3 30 -4 54zM360 29q16 -2 46 -20t49 -15 q33 3 83.5 58.5t79.5 111.5q36 72 57 224q9 65 9 110q0 59 -16 82q-14 15 -47 28t-48 25q-87 -234 -213 -604zM604 690q16 -1 23.5 -2t22.5 5l22.5 9t22.5 11.5t22 11.5q154 75 229 266q69 177 113 324q30 102 37 141q6 38 6 63q0 29 -8 40h-11q-181 -181 -479 -869z" />
<glyph unicode="C" horiz-adv-x="1118" d="M10 186q-3 41 -4 85q0 61 6 127q10 113 36 217.5t58 179.5q29 65 90.5 182.5t82.5 161.5q8 18 15 53.5t15 52.5q47 97 123 199q62 83 146 174q6 6 22 6q6 2 3.5 10t4.5 11q31 18 90 18q30 -1 66 -5q110 -14 145 -40q0 -27 -2 -35q12 1 24 4t25 8t21 7q2 -1 27 -16t47 -15 q8 -8 15 -27.5t11 -25.5q-2 -30 -6 -60.5t-8 -53t-13 -53.5l-13.5 -46.5t-17.5 -49t-17 -43.5t-19 -47t-18 -43q-12 2 -20 -11t-11 -15q-32 15 -38 53q-2 13 -1 25q0 25 7 51q11 38 27.5 92t20.5 82q-80 -50 -137 -180q-4 -1 -10.5 -10t-14.5 -9q-15 -41 -150 -313 t-157 -342q-7 -23 -15 -72.5t-15 -73.5q-21 -74 -31 -126q-8 -40 -9 -85q0 -12 1 -26q3 -60 26 -105q47 12 81.5 48t68 88t57.5 75q15 41 64 131.5t65 153.5q13 -3 32 10t40 4q-3 -15 -5 -47t-8 -52.5t-22 -37.5q-65 -241 -164 -324q-6 -2 -5 -11t1 -11q-6 -5 -48.5 -46.5 t-76 -59.5t-78.5 -21q-5 -1 -7.5 -10t-8.5 -8q-18 3 -102 3h-30q-22 0 -40 -1q-74 0 -90 2q-67 9 -105.5 77t-46.5 166z" />
<glyph unicode="D" horiz-adv-x="1261" d="M0 51q4 75 65.5 268t134.5 400.5t87 261.5l7 7q7 7 17 5q-20 13 8 31q4 6 1.5 8t-6.5 1t-7 0t-2 5q14 40 51.5 106.5t51.5 104.5q-12 12 -1 47t31 45q-4 10 0 25t14 35t13 29q-9 7 -48 24t-54 37.5t-3 56.5q16 1 32 -11t32 -11q4 3 8 14.5t8 15.5q7 -2 26.5 -11t33.5 -11 q16 18 32.5 65t20.5 54q109 -4 233 -35t152 -80q6 2 12 -1.5t13 -2.5q-2 -8 -2.5 -26t-4.5 -24.5t-14 -2.5q11 -22 6 -39q14 -10 54 -37t61 -42t54 -44t51 -53t33 -59t18 -72v-9q0 -65 -50 -198q-36 -44 -160.5 -313t-158.5 -308q0 -4 -4 -3.5t-4 3.5q-8 0 -8 -1t4 -3.5 t4 -3.5q-10 -9 -49 -41t-56 -46.5t-45 -40.5t-49 -48q-8 -6 -33 -23t-35.5 -24.5l-31.5 -22.5t-34 -25.5t-29.5 -25.5t-30.5 -29q-19 -3 -88 -18t-129 -25q-43 -7 -72 -7q-11 0 -21 1q-30 3 -80 30.5t-57 49.5q-2 8 -2 47zM96 20q-3 -15 12 -21.5t29 1.5q-1 6 -5.5 9.5t-9 5 t-14 3t-12.5 2.5zM449 96q74 34 178 119q106 130 269.5 399.5t219.5 423.5q-13 44 -24.5 76.5t-31.5 71t-42.5 64t-56 46t-74.5 27.5q4 -10 -0.5 -21t-14.5 -23.5t-12 -16.5q-1 -6 -3 -17.5t-3 -17.5q-48 -86 -72 -150q-1 -2 -95.5 -274.5t-152.5 -444t-85 -262.5z" />
<glyph unicode="E" horiz-adv-x="1400" d="M-88 39q11 3 43.5 4t46.5 8q7 32 19 97.5t23 118.5t22 93q11 39 41 110.5t40 100.5q10 31 62.5 168t62.5 168q23 77 75 194t116.5 252t87.5 189q-10 6 -23.5 11.5t-31.5 11t-27 8.5q0 43 -6 80q2 2 8.5 3t10 3.5t1.5 9.5q6 -1 17 -11t28 -5q11 3 4 12.5t-2 17.5 q2 2 13.5 4.5t13.5 8.5q7 -2 12 -13.5t11 -13.5q78 -9 165 -9q40 0 82 2q100 4 213 5q38 0 76 -1q156 -2 223 -24q2 -4 10 -17t11 -21q-13 -20 -27 -31q-14 -1 -31 -1q-40 0 -100 5t-103 5q-19 0 -34 -1q-41 -51 -70 -166q-3 -3 -4 -3.5t-3.5 1t-4.5 2.5q-12 -52 -68 -180 q-6 -16 -73.5 -139.5t-69.5 -151.5q24 6 78.5 8t81.5 9q2 -4 17 -19.5t16 -30.5q-15 -12 -27 -30q-34 0 -48 1t-45 -6t-42.5 -10t-40 -12t-37.5 -12q-3 -30 -43.5 -146.5t-44.5 -150.5q-2 -5 -8.5 -2t-12.5 2q0 -1 3.5 -15t3.5 -24q-8 -2 -11 4.5t-6 7.5q-3 -13 -1 -36.5 t-1 -32.5q-1 17 -6 18q-4 -2 -20 -23q0 -4 3.5 -3t8.5 3.5t10 -0.5q-1 -17 -7 -27.5t-9.5 -13t-16.5 -8.5q0 -5 8 -7q5 -1 5 5v2q5 -16 -2 -40.5t-3 -37.5q-25 -15 -28 -18q-1 -5 1 -4q1 0 4 2q7 4 7 0v-2q0 -26 -24 -23q4 -7 4 -20q0 -24 -16 -72q-15 -43 -15 -69 q0 -16 6 -25q22 -1 52 -1t69.5 1t69.5 1t51 -1q10 -11 11 -20t-1 -27q-6 0 -11.5 -6.5t-6.5 -7.5q-31 3 -68 3q-60 0 -136 -8q-122 -12 -225 -28.5t-216 -26.5q-63 -6 -112 -6q-39 0 -69 4q-12 33 -12 58q0 10 2 18z" />
<glyph unicode="F" horiz-adv-x="1378" d="M-8 0q8 23 77 228.5t103 312.5q4 12 34 93q31 80 53 150q20 64 20 94v5q0 6 -7.5 18t-3.5 21q2 0 4 4l2 4q-1 12 15 14t18 4q16 48 82 268.5t94 292.5q-13 12 -55 18t-55 15q2 14 -2.5 38.5t-5.5 38t8 32.5q33 -18 83 -18q26 0 56 5q7 19 35 35q13 -2 40 -10t46 -8 q10 6 14.5 11.5t5 8.5t-0.5 10.5t-1 10.5q14 1 29 1q64 -1 155 -17q113 -20 144 -46h25q36 0 110 -1h45q72 0 92 5q10 1 33.5 10t32.5 7q15 -3 18.5 -15t0.5 -25t1 -26q-61 -26 -194.5 -33.5t-177.5 -19.5q-41 -100 -111 -299.5t-96 -288.5q26 -15 58 -7q29 7 56 7h8 q32 -1 35 -26q-11 -19 -28 -43q-27 -3 -82.5 -13.5t-83.5 -13.5q-13 -13 -20.5 -29.5t-13.5 -43t-9 -34.5q-3 -9 -48.5 -138t-74.5 -218.5t-39 -140.5q-6 -34 -16 -103t-17 -104q-8 -46 -12 -53q-4 -10 -25 -29.5t-24 -32.5q-15 0 -35 11.5t-37 11.5q-4 4 -5.5 21t-4.5 22 q-20 -17 -33 -49q-22 10 -99.5 12.5t-142.5 10.5t-73 34z" />
<glyph unicode="G" horiz-adv-x="1218" d="M-162 82q-2 10 -2 25q0 36 10 102q3 30 6.5 93t9.5 114t17 92q15 66 64 158q15 32 87.5 232.5t90.5 234.5q18 35 61.5 97t55.5 91q8 5 21 14.5t17 12.5q3 10 12.5 28t10.5 29q27 29 80.5 98.5t101.5 122.5t92 78q10 8 22.5 0.5t19.5 -15.5t15.5 -20t10.5 -14 q18 -17 154 -56t155 -67h27q33 -31 35 -87v-9q0 -51 -16 -100q-18 -53 -48 -107q-17 9 -27.5 -11.5t-17.5 -23.5q-17 9 -13.5 33.5t15.5 49t20.5 53t0.5 44.5q6 5 10 17t0 18q-31 -7 -65.5 -47.5t-67.5 -48.5q-27 -47 -53 -58q-5 -20 -5 -26q-50 -63 -113 -162.5 t-130 -227.5t-116 -258t-73 -253q-12 -61 -12 -113.5t12 -97.5q16 -71 37 -97q0 -4 -3.5 -9.5t-2.5 -12.5q17 -9 33 -8.5t27.5 6t26 20t22.5 26t22 32.5t21 30q5 7 16 24.5t18 27.5q1 3 7.5 5.5t7.5 4.5q42 67 96 176q45 80 45 176q-13 1 -74.5 1.5t-81.5 6.5q7 59 54 127 q35 -26 98 -31q32 -2 61.5 -2t56.5 2q16 1 31 1q40 0 80 -9q-5 -25 -25 -38t-49 -22t-42 -19q-5 -64 -30.5 -124t-65.5 -129t-58 -112q-24 -63 -66 -119q-19 -24 -34.5 -41.5t-37 -37.5t-42.5 -31.5t-45.5 -19.5t-52.5 -6t-58 13q-4 -2 -13 -2q-30 0 -116 20 q-112 26 -222 67t-116 69z" />
<glyph unicode="H" horiz-adv-x="1728" d="M0 -25q7 16 16 64.5t27 69.5q3 75 32.5 200t88 320l61.5 205q-11 4 -26.5 6t-34.5 3.5t-29 2.5q-8 14 -10 30.5t-1 30t-1 31.5q7 -1 21 -2t22 -2q0 -5 -4 -11t-4 -12q19 -2 46 4t36 7q12 19 22.5 43t17.5 42t18 50t17 49q12 29 35.5 126t34.5 126q12 34 36.5 95t44 114.5 t34.5 105.5q3 9 -1.5 15.5t-2.5 11.5q24 -14 108 -17.5t157.5 -12t86.5 -36.5l4 -2h3q-2 5 -1 10q26 -4 53 -24q-4 -49 13 -57q-12 -90 -25 -103q7 -7 3.5 -15.5t-8 -24.5t-1.5 -25q-16 -22 -32 -57t-27 -62.5t-27 -80.5t-22 -74t-22 -82t-18 -68q5 -10 24 -10.5t32 2.5 q34 4 113.5 22t117.5 21q55 123 123 350q0 4 2.5 6t7 3.5t6.5 2.5q7 47 49.5 136t51.5 151q7 -8 34 -8q14 -1 30 1q35 4 54 4q11 0 17 -1q5 -1 58.5 -8.5t102.5 -16t56 -12.5q3 -1 5 -8t5 -9q7 -5 28.5 -13t24.5 -17q5 -14 1 -25t-15 -23.5t-14 -17.5q-6 -12 -9.5 -38.5 t-5.5 -33.5q-3 -10 -14.5 -30t-15.5 -31q-5 -10 -10.5 -29t-11.5 -31t-17 -18v-10q0 -74 -66 -238q-7 -17 -26 -86t-37 -100q-30 -158 -102.5 -438t-120.5 -430q-20 2 -45 -15q-4 -9 -1 -22.5t-2 -16.5q-12 6 -28.5 16t-36.5 19q-8 -3 -10 -6.5t-2 -12.5t-2 -16 q-32 -8 -104 -10q-17 -1 -34 -1q-55 0 -109 6q-72 8 -89 28q24 167 98.5 465.5t136.5 464.5q-10 6 -42 6q-25 1 -61 -3q-75 -7 -99 -7h-5q0 -4 13 -5q-11 -2 -32 -4t-36.5 -6.5t-32.5 -15.5q-6 -25 -25 -92.5t-31 -116t-19 -90.5q-14 -74 -32 -160t-47.5 -199t-49.5 -149 q-5 -7 -5 -10.5t2 -8t3 -8.5q-38 -29 -141 -51.5t-209 -22.5t-142 33zM166 504q8 -5 11 8q4 14 -4 13q-1 0 -3 -1q-1 -3 -2 -10t-2 -10zM231 723q13 2 21.5 28.5t-4.5 32.5q-14 -29 -17 -61zM1477 995q8 -1 12 4t4 15q-13 0 -16 -19z" />
<glyph unicode="I" horiz-adv-x="1359" d="M0 66q18 -2 49 -2q52 0 141 6q1 5 -1.5 16t1.5 18q1 8 8.5 15.5t8.5 11.5q26 110 73.5 267t116.5 373t86 271q11 38 49.5 204.5t63.5 226.5q7 18 31.5 61t31.5 68q-18 10 -65 10q-12 0 -26 -1q-16 -1 -30 -1q-47 0 -73 8q0 6 -2 22.5t-2 24t3 19.5t9 22q17 -12 43.5 -19 t47 -8.5t56.5 -2t50 -1.5q8 -2 12.5 6t7.5 9q61 -3 121 -3q9 1 19 1q70 0 182 3t147 3q92 0 122 -11q31 -13 38 -38q-10 -5 -20.5 -6t-18 1t-19.5 5t-20 4q-8 -3 -8.5 -6t3 -6t5 -8t-1.5 -11q-30 10 -87 10h-6q-20 0 -38 -1q-38 0 -70 1q-6 -14 6.5 -23.5t25 -21t5.5 -31.5 q8 -9 29.5 -18.5t28.5 -15.5q-5 -39 -38 -107.5t-40 -87.5q0 -4 -2.5 -6t-7.5 -3.5t-7 -2.5q-8 -49 -100.5 -291.5t-103.5 -290.5q-4 1 -8 -3.5t-7 -4.5q-21 -85 -55.5 -206t-60 -223t-44.5 -214q18 6 62.5 8.5t62.5 9.5q10 -7 11 -26t4 -23q-1 0 -7.5 -2.5t-7.5 -3.5 t-6.5 -4t-5 -5t-2 -7t1.5 -9q-57 -13 -293 -33.5t-291 -39.5q14 14 25 16q-5 6 -17 3.5t-14 4.5q-8 -1 -1.5 -9t1.5 -15q-3 1 -9.5 1.5t-12 1.5t-10.5 5q6 -15 -26 -11q-28 3 -50 11q10 7 20 7t23.5 -3.5t23.5 -3.5q1 10 -4.5 14.5t-15.5 3.5t-20.5 -3t-21.5 -4.5t-16 -2.5 q-61 53 -63 107zM602 1456q9 0 15 6t1 11q-8 1 -11 -3.5t-5 -13.5zM615.5 1034q-0.5 -7 0.5 -8q1 2 8.5 10.5t8.5 16.5q-6 2 -11.5 -5t-6 -14z" />
<glyph unicode="J" horiz-adv-x="1646" d="M2 192q4 48 8 72.5t17 89.5q6 2 18 5t23 8q15 -22 20.5 -91.5t34.5 -89.5q143 3 213 101q7 -1 13.5 2.5t10.5 3.5q103 125 156 272l3 -3l2 -2q-5 11 -3 18q1 4 15 23t20 34q5 16 11 53t14 53q94 187 88 213q3 5 12 6t12 11q-2 8 -3 8t-4.5 -4t-8.5 -4q5 43 35 84 q3 -6 -8.5 -23.5t-10.5 -30.5q9 4 15.5 19t21.5 18q-12 20 10 39q-2 -1 -9 1.5t-11 -0.5t-4 -19q-7 2 -8.5 5t0 7t4.5 8.5t6 10t4 10.5t-2 14.5t-2 15.5q2 9 11.5 23t12.5 21q2 6 2 21.5t3.5 23.5t15.5 4q-1 55 49 178.5t55 181.5q-18 8 -50 11.5t-57.5 3.5t-62.5 -1.5 t-49 -1.5q-1 5 -9 25.5t-3 28.5h36q34 0 91 -1h73q41 0 66 1h14q37 0 149 -3q80 -2 125 -2q34 0 48 1q18 1 52 5.5t47 5t48 -2.5q29 -4 58 -4q14 0 28 1t28 1q29 0 56 -5q41 -6 54 -28q-1 -8 -11 -14t-12 -13q-19 -3 -46 -3q-33 0 -78 4q-30 3 -53 3q-42 0 -65 -8 q0 -5 0.5 -20.5t-3 -21t-13.5 -7.5q-14 -41 -29 -88.5t-34 -106t-29 -90.5q-4 -15 -19.5 -43t-19.5 -41q-11 -33 -111 -389q-14 -51 -59 -142.5t-55 -117.5q-10 -25 -25 -69t-29 -77.5t-34 -60.5q0 -13 -7 -34q-4 -6 -9 -6t-9 -3q-2 -8 0 -8l2 1q6 4 10 3 q-46 -103 -90 -167.5t-112 -96.5q-35 -43 -140 -61q-84 -14 -167 -14q-21 0 -42 1q-104 4 -167 21q3 11 -4 19t-7 12q-26 0 -41.5 9.5t-31 29.5t-21.5 26q-9 3 -13 -3t-9 -5q-15 35 -21 71q-3 19 -3 42q0 20 3 42zM77.5 131.5q0.5 -9.5 8.5 -13t18 2.5q0 6 -8 13.5t-10 12.5 q-9 -6 -8.5 -15.5zM139 29q-5 -12 8 -14q14 0 17 10q-12 9 -25 4zM325 139q2 -5 6.5 -5t8.5 3q3 9 -1.5 13t-12.5 2q-3 -8 -1 -13z" />
<glyph unicode="K" horiz-adv-x="1083" d="M-8 -20q14 13 31 48t24 44q0 4 -3.5 11.5t-4.5 10.5q16 21 25.5 81t15.5 77q3 9 16 12q-13 7 16 33q20 17 35 20q-6 17 4 49.5t5 51.5q24 26 76.5 176t68.5 170q-6 6 -14.5 7.5t-12.5 -7.5q-5 5 -2 8.5t8.5 9t4.5 9.5q5 0 7.5 -5.5t8.5 -3.5q6 3 12 23.5t21 23.5 q-2 6 -7.5 17.5t-7.5 17.5q-18 -4 -18 -24q-5 3 0.5 16.5t15 32t11.5 29.5q-11 0 -17 -9q1 11 13 17.5t27.5 14.5t21.5 22q-5 11 -16 -0.5t-13 -6.5q-3 7 8 13.5t19 1.5q0 10 -4.5 14t-14 5t-12.5 3q2 4 6.5 6.5t12 4.5t10.5 2q-2 2 -11 8.5t-10 13.5q3 5 16 16.5t15 22.5 q-6 -1 -8.5 1t-2 6.5t2 8.5t4.5 11.5t4 11.5q1 -5 8 -1.5t14 1.5q-7 29 -5 43t12 51q7 1 7.5 -4t-1.5 -10q11 2 10.5 13t5.5 18q-8 0 -10 -5q8 49 49 160t47 131q-11 5 -12 22t3.5 36.5t8.5 43t2 37.5q14 -7 25.5 0.5t13.5 18.5q12 3 30.5 3t44.5 -1.5t40 -1.5q2 0 3 2 t1.5 5.5t1.5 4.5q6 0 36 1h33q103 0 103 -17q-8 6 -47 12q4 -3 11 -11t11 -11q9 -1 24 3t25 3q12 -1 1 -9l-3 -3t-3 -2t-2.5 -2.5t-0.5 -2.5q7 -12 29 -23.5t35 -26.5t8 -42q12 -4 23 -22t20 -23q-10 2 -13.5 -2t-4 -14t-2.5 -15q8 1 10.5 5t2.5 8t2.5 7.5t10.5 2.5 q6 -11 -10 -36.5t-31 -25.5q-1 -4 -1.5 -5.5t2.5 -2.5t5 -1t5.5 0.5t5.5 0.5q-43 -62 -84.5 -148.5t-88 -196.5t-75.5 -169q46 34 119 122t116 124q29 25 84 80q18 18 62 58t67 65q27 30 57.5 59t75 68.5t62.5 56.5q7 17 22.5 32.5t18.5 24.5q10 -1 38.5 0.5t39.5 -4.5 q0 -2 -1.5 -10t0 -12.5t7.5 -7.5q-8 -11 -25 -11q-3 -5 -0.5 -7t6 -2t5 -2.5t-2.5 -8.5q-12 5 -19.5 1t-23.5 -17t-24 -17q-2 -8 2 -17t4 -14q-18 -1 -35.5 -24t-30.5 -27q0 7 6 10.5t7 6.5q1 2 -1 3t-4.5 1.5t-4.5 1.5t-1 4q0 -2 -3 -18t-3 -27q-19 -14 -38.5 -31.5 t-42 -39.5t-35.5 -34q-3 -1 -4 1.5t-1 5.5t-2.5 5t-7.5 1q-7 -4 -5 -6t5 -7t0 -10q-124 -119 -172 -158q2 -3 1.5 -9.5t-3 -13t-1.5 -11.5t7 -5q-7 -25 -38.5 -138t-49 -180t-43 -169t-41 -185t-22.5 -149q-18 -48 -28 -107.5t-16.5 -145.5t-9.5 -115q-10 5 -32 -13 q-22 22 -22 45q0 16 11 33q1 6 -5 11t-7 8q1 7 9 15t10 11q1 3 -2 4t-6.5 0.5t-5.5 1.5t-1 6q0 10 9 16t10 7q-5 1 -7 4.5t-1.5 6.5t-1 4.5t-5.5 -3.5q0 16 6 37.5t7 42.5q-2 0 -4 -4l-2 -4q33 261 155 854q-131 -117 -221 -215q-4 -6 -7.5 -3t-8.5 3q-4 -12 -11.5 -29.5 t-11.5 -27t-6.5 -25.5t4.5 -25q-19 -69 -105.5 -305.5t-103.5 -306.5q-1 -8 8 -22q-5 -13 -21 -20.5t-31 -10.5t-26 -12.5t-10 -26.5q-36 -15 -117 -19q-18 -1 -36 -1q-61 0 -119 9q-74 12 -88 38zM166 322q3 -5 12.5 -3.5t9.5 11.5q-20 4 -22 -8zM819 1565l4 -2q5 -2 11 2 q2 -6 1 -13.5t1.5 -13t11.5 -4.5q3 1 5.5 8.5t6.5 7.5q-1 -4 1 -4q5 1 9 10v5q-16 -6 -27.5 2t-23.5 2zM1163 1274q2 0 4 -2t4 -2q0 8 7 8q0 -4 6 -4q1 11 -5 11.5t-14 -3.5q-2 -2 -2 -8z" />
<glyph unicode="L" horiz-adv-x="995" d="M-135 -49q0 13 15 25t14 28q28 -6 60 -6h6q5 0 10 1q30 0 55 -3q9 5 12 16.5t2 23.5t0 25q1 11 13 55q8 30 9 50q0 8 -2 14q13 27 27.5 92.5t30.5 100.5q1 48 54 196t52 179q5 2 14.5 7t14.5 7q-1 4 -2 6t-4 2.5t-5 0.5t-6 -1.5t-6 -1.5q18 35 44.5 125t48.5 117q3 8 0 9 l-3 -1q-6 -3 -6 2q17 21 25.5 55t30.5 58q-5 6 -10 -0.5t-13 -2.5q21 47 40 98t38 111t31.5 100t34 113t30.5 103q1 7 -6.5 13.5t-7.5 12.5q15 -3 28.5 -7.5t30 -11t25.5 -9.5q8 0 15 7.5t11 8.5h15q47 0 103 -16q66 -19 106 -41q13 -8 40.5 -19t44.5 -23t25 -30 q7 -20 0.5 -43.5t-23.5 -57.5t-24 -53q1 -3 8 -4t7 -4q1 -9 1 -20q-1 -24 -9 -54q-12 -42 -32.5 -91.5t-27.5 -79.5q-36 -42 -80.5 -150t-77.5 -149q-2 -6 1.5 -12.5t2.5 -10.5q-44 -96 -120.5 -386t-112.5 -378q9 -2 20 -2q21 -1 51 7q36 9 59 10q6 0 11 -1q0 -13 4 -14 q12 0 1 -8q-10 -9 -11 -12q21 2 126.5 9.5t160.5 16.5q14 0 28.5 -8.5t20.5 -9.5q-3 -7 -14 -14.5t-9 -20.5q-12 5 -25 6t-23 -1l-25 -5t-25 -4q-72 -11 -230.5 -27.5t-240.5 -29.5q-72 -12 -224 -21q-114 -7 -186 -7q-24 0 -43 1q-8 32 -24 39zM383 926q10 0 16.5 13 t-0.5 22q-1 -5 -3 -5.5t-3.5 1.5t-4 3.5t-5.5 0.5q4 -6 5 -8.5t0 -4t-2.5 -7.5t-2.5 -15zM401 207q19 0 19 26q-29 -3 -19 -26zM416 295q4 -6 2 -12t-0.5 -10.5t10.5 -4.5q0 21 6 27h-18zM418 315q17 -6 20 -12q1 13 7 32.5t11 33.5t6.5 32t-7.5 29q11 3 39 98q21 69 21 90 q0 8 -3 9q-5 -3 -2.5 -8t1 -8.5t-12.5 -2.5q0 -6 -23.5 -91t-23.5 -91q-5 3 -6.5 3t-5 -3t-7.5 -4q-2 -16 -2 -17t6 -14q-21 3 -18 -18q2 0 5.5 0.5t5.5 0.5t5 -1t2.5 -2.5t-0.5 -5.5q-11 -7 -13 -25t-5 -25zM508 643q12 1 20.5 12t11.5 21t6 28t3 19h-12q-3 -20 -23 -23 q5 -24 4 -29.5t-10 -27.5zM541 741q16 0 21 9.5t5 29.5h-16q-10 -30 -10 -39zM553 834q6 1 13 -2.5t12 -2.5q4 15 28 83q19 52 19 82q0 9 -2 16q-33 -72 -50 -164q-10 2 -15.5 -1t-4.5 -11z" />
<glyph unicode="M" horiz-adv-x="2072" d="M16 -94h19q8 27 98 358t129 430q1 2 7 8t7 9q11 35 26 106.5t20 91.5q1 7 4 17.5t5 20t3 20.5q2 23 11 47.5t23 56.5t21 53q8 24 32.5 80.5t35.5 100.5q12 47 43 126.5t49 143.5q15 52 15 95q0 9 -1 18q10 3 19.5 3t16.5 -1t15.5 -6t12.5 -7.5t12 -10.5l9.5 -9.5 t8.5 -9.5q12 -1 70 -3t104 -6t62 -12q9 -4 18 -16.5t13 -14.5q4 -3 31 -12t34 -24q3 -6 2.5 -25t1.5 -37q1 -6 8.5 -19.5t8.5 -19.5q1 -11 -6.5 -36.5t-6.5 -37.5q0 -8 6 -16.5t7 -13.5q8 -16 8 -73q0 -17 -1 -38q-2 -54 -2 -85q0 -20 1 -30q2 -28 8 -72t9 -79q2 -21 2 -40 q0 -13 -1 -24q15 6 29.5 20.5t23 27t22 35.5t19.5 32t19 30t20.5 33t20.5 27t26 25q2 15 18 28.5t19 26.5q8 3 19.5 15.5t19.5 15.5q0 7 2.5 11.5t8.5 9.5l6 5q5 5 43 55.5t65 67.5q15 32 34.5 62t49.5 70t41 55q12 -2 41 8q11 11 25 42.5t26 41.5q32 0 37.5 -0.5t30.5 7.5 t29 9q-5 -5 -12.5 -17.5t-12.5 -17.5q4 -6 13 -11t15.5 -6.5t20.5 -4.5t19 -4q0 -1 6.5 -10t1.5 -21q16 -7 55.5 -18.5t72 -23t65 -27.5t48.5 -39t9 -50q-6 -25 -37.5 -63t-40.5 -64q-19 -17 -48 -67t-51 -66q-1 -4 1.5 -6t7.5 -2q-32 -37 -86 -124t-86 -126q7 -11 0 -25 t-14 -21.5t1 -14.5q1 -7 -7.5 -10t-8.5 -9q-144 -384 -186 -592q-1 -8 -3 -21t-3.5 -23.5t-4.5 -20.5q-2 -12 -18 -62q-14 -45 -14 -69v-6q-26 -21 -70 -31q-39 -9 -87 -10h-15q-58 2 -103 6t-105 12t-77 10q2 24 -17 39q64 131 181.5 484.5t169.5 468.5q4 2 10.5 9.5 t13.5 8.5q0 2 -0.5 8.5t-0.5 10t2 8.5t5 8q4 0 3 -8q-1 -4 -1 -6q26 33 17 36h-2q10 9 16.5 16.5t9 12t7 15t8.5 18.5q-2 5 -6 -4q5 15 12.5 27t11.5 17t18 17.5t19 16.5q0 4 -16 4q20 31 48 99t36 85q-16 -2 -26 -13.5t-19.5 -30.5t-14.5 -26q-4 -5 -44.5 -53.5 t-57.5 -77.5q-82 -137 -125 -188q-24 -29 -49 -53q-18 -52 -74 -126t-63 -85q-25 1 -50.5 22.5t-31.5 24.5q5 30 6 35q-16 42 -21.5 144t-17.5 142q5 15 5 31q0 23 -11 49q-98 -157 -186 -440t-132 -526q1 -8 -9 -9.5t-11 -3.5q1 -1 8.5 -6t7.5 -12q-7 -36 -46.5 -92.5 t-41.5 -108.5q-6 -1 -19.5 -3.5t-21 -4.5t-17.5 -5.5t-16 -8.5q-30 -36 -107 -62q-76 -25 -153 -25q-2 1 -3 1q-79 0 -111 32q2 14 -1 13q-2 0 -21 -24q-22 -27 -30 -13zM1365 1034q-2 -4 3 -10q0 3 6 12.5t7.5 14t-7.5 8.5q1 -6 -3 -13.5t-6 -11.5z" />
<glyph unicode="N" horiz-adv-x="1916" d="M2 -8q-2 10 -2 21q0 51 41 128q7 14 38.5 108t39.5 124q70 251 155 444q16 88 89 263t86 263q9 28 36 78t41 90q9 25 9 46q0 13 -3 24q28 -4 117 -11.5t158.5 -18t105.5 -27.5q4 -29 0 -47q2 -3 13 -16t14 -21v-35q0 -510 86 -866q27 52 58 150.5t64.5 187.5t74.5 141 q44 108 147 334.5t152 351.5q17 -5 75.5 -22.5t96 -29t85 -28t74.5 -29.5q-3 -8 -3.5 -14t3 -11t5.5 -7t9 -6.5t9 -6.5q0 -17 -9.5 -45.5t-2.5 -42.5q-15 -15 -26 -33.5t-23 -45.5t-19 -40q-10 -21 -44.5 -83.5t-53.5 -105t-27 -83.5q-66 -89 -129 -303q-9 -1 -19.5 -12 t-19.5 -11q5 -11 -0.5 -21t-17.5 -13q-8 -81 -17 -131q-6 -32 -69.5 -237t-65.5 -263q-1 -9 4 -40t0 -36q-13 -32 -97 -48q-75 -14 -152 -13h-20q-88 2 -130 14q-3 3 -8 11t-11 12t-16 4q9 21 -6 51t-16 41q47 90 47 432q-8 9 -17 35.5t-28 31.5q3 22 3 48q0 60 -16 141 q0 1 -5 12t-4.5 20t9.5 15q1 5 0 8t-2.5 3.5t-4 0.5t-4.5 -0.5t-3.5 1t-1.5 5.5q0 8 -1 64t-1 73t-2 64t-5 71.5t-8 57.5t-12 58q-22 -19 -43 -80q-8 -27 -34.5 -131.5t-49.5 -167.5q-11 -28 -43.5 -110t-53.5 -142t-34 -113q-88 -359 -161 -469q-17 -2 -29.5 10t-20.5 13 q-6 -9 -5 -10.5t5 -6t4 -10.5q-5 -12 -23.5 -23.5t-21.5 -15.5q-26 4 -96 5t-130.5 6t-86.5 20z" />
<glyph unicode="O" horiz-adv-x="1288" d="M0 264q0 11 6 30t7 29t-9 29q0 18 16 62q11 30 11 49q0 9 -2 16q3 3 11 15.5t15 15.5q0 4 -7.5 5.5t-8.5 4.5q5 4 8 9.5t3.5 12.5t0 11.5t-2 13t-1.5 11.5q14 18 45 107.5t27 105.5q13 0 10 -15q3 2 9 5.5t9 4.5q2 4 -2 4.5t-9.5 0t-8.5 0.5q17 30 8 47q-1 7 3 8.5 t12 1.5q-5 6 9.5 27t4.5 34q7 -3 11.5 2.5t6.5 6.5q-1 2 -20 8q18 35 60 91.5t59 88.5q2 5 -2.5 8t-4.5 6q36 70 83 131t116 138q-1 2 -6.5 3t-9.5 5q17 14 39 14q0 9 -9 12q19 18 56.5 53t66.5 63.5t54 55.5q10 -3 88 -5q35 -1 57 -1q26 0 33 2q3 5 -37.5 7t-83 3t-43.5 3 q14 8 36 34.5t38 34.5q65 0 158.5 -8.5t109.5 -26.5h11q76 0 124 -39q24 -19 30.5 -25t15.5 -22t11 -36q-25 -25 -81 -60t-76 -51q-33 -11 -63 -32.5t-44 -36.5t-43.5 -52.5t-38.5 -48.5q-3 -1 -8.5 -4.5t-11 -5t-12.5 -0.5q-2 -4 0 -6.5t6.5 -4t5.5 -2.5q-6 -9 -35.5 -50.5 t-41.5 -59.5t-38 -58t-40.5 -67.5t-33.5 -65.5t-32 -74.5t-21 -72.5q-31 -39 -64 -162t-48 -215q-8 -57 -8 -97q0 -17 1 -30q1 -9 1 -36.5t1 -53t5 -41.5q5 -23 33 -50t32 -42q51 30 99.5 79.5t94 115t81 126t77.5 140.5q31 62 83.5 196.5t68.5 200.5q6 30 27 102t35 136.5 t14 117.5q0 3 -3.5 11.5t-3.5 11.5q2 10 13.5 35.5t11.5 38.5q1 11 -9 30.5t-7 36.5q24 5 42 5.5t29.5 -5t19.5 -12.5t11 -20.5t4 -25.5t0 -30.5t-3 -33t-5 -36t-4 -36.5q-1 -12 -2 -49t-6 -56q-4 -24 -18 -64.5t-17 -54.5q-16 -83 -27 -110q-3 -3 -13 -18t-17 -21 q1 -17 -5 -31t-16 -28.5t-14 -24.5q-5 -12 -22 -70t-35 -103t-33 -48q1 -7 1 -13q0 -47 -38 -90q-93 -232 -289 -413q-11 -50 -51.5 -75.5t-91.5 -25.5q-5 -4 -15 -18q-19 1 -94.5 3.5t-141 6t-89.5 8.5q-41 8 -70.5 36t-57 73t-40.5 59q1 2 1 8t1.5 10t5.5 3q0 4 -16 4 q-6 12 -6.5 26t2 29.5t1.5 24.5q-1 12 -10.5 32.5t-9.5 32.5zM20 336q4 -1 9.5 1.5t7.5 2.5q3 7 -1 10.5t-13 1.5q-3 -9 -3 -16zM31 233q7 2 12.5 -1.5t9.5 1.5q-1 3 -2.5 13t-3 14t-5 10t-9.5 9q-8 -9 -1 -20.5t-1 -25.5zM748 1262q18 -4 18 12q-18 4 -18 -12zM956 1569 q16 0 50 5t57 3q-8 24 -53 19.5t-54 -27.5z" />
<glyph unicode="P" horiz-adv-x="1290" d="M-102 0q92 285 127 408q1 3 -1 10t-1 10q5 14 18.5 39t19.5 44t2 36q1 5 3 5.5t4 -1.5t5.5 -3.5t6.5 -0.5q4 8 2 12.5t-6 7.5t-7 4.5t-2 4t9 6.5q-18 10 -60 10q-2 16 -24.5 28.5t-26.5 18.5q33 1 64.5 11.5t48 20t47.5 29.5q21 49 37 130.5t41 125.5q0 2 1 5.5t1 5.5 t0.5 5t0 5t-1.5 3.5t-3.5 2t-5.5 0.5q20 38 37 119.5t42 118.5q3 7 -3 13t-5 13q26 77 84 293q23 24 25.5 54t-7 53t-26.5 43q17 12 24.5 24.5t16.5 36.5q10 -1 20.5 -10t14.5 -10q21 4 45 4q49 -1 117 -17q100 -24 170 -53q9 -4 28 -5.5t27 -4.5q58 -15 180 -58 q4 -1 20 -6.5t22 -7.5t19.5 -7t21 -9t17.5 -9t17.5 -10.5t13.5 -11.5q17 -14 46 -61.5t59 -61.5q4 -18 8.5 -78t17.5 -94q-5 -2 -8 -6t-5 -7t-2.5 -9t-0.5 -9.5v-11.5v-12q-5 -10 -26.5 -31.5t-20.5 -36.5q-25 -18 -99 -88t-126 -96q-3 -1 -3 -2.5t0.5 -4t-0.5 -5.5 q-12 4 -22 -11t-12 -16q-14 -9 -52 -21.5t-51 -17.5q-17 -8 -48 -25.5t-44 -23.5q-23 -13 -113 -57q-5 -2 -9 -4.5t-8.5 -6t-7.5 -6t-7.5 -8t-6.5 -8t-6.5 -9.5t-5.5 -8.5t-6 -10t-6 -9.5q-13 -92 -87.5 -347t-84.5 -351q-45 -18 -149 -26q-47 -4 -93 -4q-57 0 -114 6 q-102 10 -127 42zM285 930q13 -13 32 12q-6 4 -6 19q-16 0 -18 -5q6 -5 3.5 -8t-7.5 -8.5t-4 -9.5zM306.5 973q4.5 -3 8 -3.5t11.5 -0.5q6 12 -3.5 16.5t-15.5 -2.5q-5 -7 -0.5 -10zM348 795q5 -1 11 -1q34 0 112 18q47 12 43 17q-5 -6 -84.5 -19.5t-81.5 -14.5zM623 846 q25 2 72.5 26.5t62.5 30.5q28 11 53 25t53.5 35.5t43.5 33.5t48.5 41.5t42.5 36.5q96 81 113 101q29 36 32 86v14q0 41 -16 63q-9 14 -30.5 24.5t-53.5 22.5t-51 23q-5 3 -13 13.5t-13 13.5q-7 4 -31 11t-35 15q-7 4 -18 12t-17.5 11.5t-15.5 6t-19 1.5q-24 -41 -42 -85 t-39.5 -109t-26.5 -78q-4 -12 -7 -36t-7 -36q-4 -9 -17 -30t-16 -32q-10 -36 -24.5 -116.5t-28.5 -124.5z" />
<glyph unicode="Q" horiz-adv-x="1314" d="M2 215q0 3 7 12t7 11q10 26 10.5 94t12.5 104q10 6 16.5 22t9 31t11.5 26.5t24 12.5q0 -6 -8.5 -7.5t-9.5 -6.5q3 -3 29 -8q4 12 18 43.5t16 50.5q-30 0 -30 -41q-3 0 -11 3t-16 1q11 27 65 167.5t70 178.5q57 131 96 178q2 3 8 7t11 8t8.5 8t3 8t-7.5 8q2 5 5.5 2t8.5 2 q2 10 -12 14h-5q-2 1 -3 1q3 6 18 6t23 6q3 6 0.5 8.5t-6.5 2t-5.5 1.5t1.5 7q4 4 6.5 4t6 -2t7.5 -2q-12 12 -18 16q4 3 15 2.5t19 3.5q1 10 -11 13l-11 3q5 15 19.5 25.5t28.5 16t26.5 18t15.5 31.5q-6 6 -18 -3t-19 -8q14 24 35 27q-4 17 -4.5 19t4.5 16q20 18 46.5 55 t53 65t60.5 42q0 16 22 34q24 21 82.5 65.5t75.5 59.5q9 -7 48.5 -16t79.5 -16.5t71 -21t28 -28.5q37 11 69 12t55 -5.5t44.5 -21t35 -28.5t28.5 -34q-1 -4 -8 -7t-7 -8q13 -30 17 -72q3 -28 3 -53q0 -13 -1 -24q-2 -36 -13 -92.5t-18.5 -86t-24.5 -93t-22 -81.5 q-13 -6 -16.5 -15.5t-3.5 -23.5t-3 -22q-5 -14 -24 -36.5t-25 -33.5q-7 -14 -42 -116.5t-38 -110.5q-56 -144 -131 -213q0 -4 -1 -13.5t-1 -13.5q-19 -7 -35.5 -47t-35.5 -51q-18 -36 -18 -79q-1 -3 -1 -5q0 -39 7 -61q6 -25 25 -73t23 -60q-12 0 -14 -7q58 -61 74 -174 q-11 -4 -20.5 -5.5t-20.5 0t-16 2.5t-18 6t-17 6q1 16 -6 29t-14.5 19t-22.5 15.5t-21 13.5q-3 92 -57 187q-19 -15 -64.5 -53t-59.5 -48.5t-47.5 -33.5t-52.5 -29.5t-47.5 -13.5t-58.5 -7q-99 0 -207.5 12t-126.5 42q-22 40 -42 112q-15 53 -15 91q0 13 2 24zM246 942 q-2 -14 2 -14q2 4 9 9t7 13h-16q0 -2 -2 -8zM285 1004q12 -2 18 10q4 9 -6 10q-1 -3 -7 -8t-5 -12zM307 1034q4 0 7.5 1.5t6.5 4.5l5 5t4 6.5t3 7t2.5 8t2.5 6.5h-12q-3 -6 -9.5 -19.5t-9.5 -19.5zM443 200q3 -71 34 -124q-2 -11 3 -23.5t5 -15.5q20 8 40.5 23t29 23.5 l33.5 33.5l18 17q17 17 23 23.5t18 20.5t18.5 25t8.5 20q5 23 -3.5 45t-22 43t-15.5 35q-1 2 3 6.5t3 7.5q-3 5 -14 12.5t-13 12.5q-18 36 -18 66q0 3 7.5 8t8.5 10q0 3 -3.5 4.5t-6.5 2t-2.5 2.5t6.5 7h11q56 0 95 -37q42 -41 56 -96q14 3 23 18t4 27q17 17 39.5 61 t39.5 64q1 1 10.5 11.5t12.5 14.5t10.5 14.5t10 17.5t5.5 17.5t3 20.5q17 23 65 143.5t58 137.5q1 4 2 13.5t2 13.5q71 91 111.5 230.5t43.5 289.5q-33 -10 -82.5 -51t-85.5 -49q-35 -43 -114 -103q-2 -3 -5 -9l-4.5 -9t-4.5 -8.5t-5 -8.5t-5 -7t-6 -6.5t-7 -5.5t-8 -4.5 t-9 -2.5q-12 -46 -49 -64q-17 -39 -66 -105t-67 -108q-4 1 -9 -1.5t-9 -2.5q0 -24 -12.5 -48t-30.5 -36q1 -3 1 -7q0 -22 -26 -90q-32 -82 -47 -108q-2 -16 -11 -38t-23 -49t-19 -40q-31 -85 -46 -149q-13 -55 -13 -113v-23z" />
<glyph unicode="R" horiz-adv-x="1476" d="M-45 -39q2 10 10 14.5t21 5t18 3.5q-7 17 -0.5 39.5t21.5 51.5t20 44q5 18 2.5 22.5t3.5 22.5q7 24 27 69t26 64q17 51 58 207.5t55 202.5q66 218 92 305q23 77 90 266t101 301q-4 3 -27.5 0.5t-36.5 -0.5q2 11 10 36.5t11 45.5q56 0 174.5 3.5t214.5 4.5h43q76 0 160 -2 q108 -4 190.5 -22t126.5 -50q25 -17 44.5 -56t23.5 -85q1 -7 1 -15q0 -38 -20 -73q-24 -38 -69 -71t-82.5 -50t-101 -42.5t-89.5 -37.5q91 -64 123 -110q-2 -4 -6.5 -17t-9.5 -18q7 -12 37 -8q-1 -4 -3.5 -7.5t-7 -6.5t-6.5 -5q1 -8 1 -17q0 -30 -10 -64 q-13 -44 -39.5 -110.5t-39.5 -111.5q-5 -19 -21 -52.5t-20 -47.5q-2 -6 -4.5 -20.5t-7 -24t-15.5 -13.5q-1 -5 6 -9t3 -13q-138 -429 -162 -561q-17 -5 -27 -23q-10 0 -35 -2q-33 -2 -59 -2q-84 0 -112 17q-20 12 -20 32t19 47q17 90 86.5 326.5t90.5 337.5q10 56 45 158 q15 48 27 106q11 56 12 103q0 54 -21 59q-5 1 -10 1q-23 0 -63 -17q-45 -19 -63 -19h-3q-35 -64 -64 -172q-8 -35 -20 -74.5t-27.5 -86t-23.5 -72.5q-2 -9 -3.5 -29t-6.5 -33.5t-19 -21.5q0 -54 -61.5 -239.5t-67.5 -227.5q0 -8 -9 -12t-10 -7q4 -10 4 -30t-4 -50 q8 -18 54 -34q-5 -8 -18 -15.5t-13 -15.5q-52 -8 -227.5 -20.5t-227.5 -20.5q2 16 -12 22t-29.5 10.5t-17.5 16.5zM819 1204q44 7 134.5 41t125.5 43q122 29 195 74q35 23 47.5 52t5 54t-28.5 43q-50 47 -168 79q-69 19 -123 19q-38 0 -69 -10q-7 -73 -58.5 -205t-60.5 -190 z" />
<glyph unicode="S" horiz-adv-x="1349" d="M0 0q-1 13 -1 26q0 62 26 132q9 2 11.5 -8t12.5 -7q10 13 6.5 38t1.5 44q11 0 26 -6.5t30 -3.5q15 -76 30 -98q20 -25 52 -27q14 0 35.5 7t38 15t45 22t40.5 20q81 37 135 72t93 85q-31 49 -144 191.5t-147 171.5q-19 17 -42 68t-44 67q0 4 3 9t3 9q-24 41 -53 47 q170 310 409 558q16 29 41.5 60t39.5 45t50 48q34 30 112.5 79.5t115.5 86.5h20q19 -32 83.5 -98t82.5 -117q96 108 109 193q47 -8 63 -50q7 -18 7 -39q0 -29 -13 -65q3 -5 16.5 -13.5t12.5 -19.5q-30 -78 -101 -197t-92 -167q-5 -2 -15 -11t-18 -10q-1 -5 0 -8.5t5 -8.5 l4 -5q-21 -15 -36.5 -55.5t-23.5 -75.5t-32 -55q-13 -11 -32 -11q-15 0 -34 8q-16 32 -20 72q-2 18 -1 36q0 19 2 36q4 32 19.5 77t27 71.5t34 73.5t30.5 66q-75 -52 -143 -119t-160 -174.5t-125 -142.5q-9 -17 -14.5 -39t-11.5 -36.5t-21 -24.5q0 -4 12 -4q-4 -14 -20 -11 q22 -32 82 -61q49 -24 91.5 -77.5t71.5 -123.5t48.5 -136.5t33.5 -137.5q-3 -15 -10 -48t-10.5 -47t-11 -36.5t-17.5 -39.5t-24 -34q-21 0 -39 -18q-1 -14 -17.5 -32.5t-17.5 -31.5q-214 -173 -485 -173q-23 0 -46 1q-7 3 -28.5 13.5t-32 15t-28 10.5t-31.5 8q-1 6 -6 16.5 t-5 18.5q-53 13 -59 86zM540.5 897.5q0.5 -2.5 3 -4t3.5 -2t5 -1.5t5 -1q0 4 1 10.5t1 9.5q-4 0 -9 -3t-9 -3q-1 -3 -0.5 -5.5zM715 416q4 -13 10.5 -24.5t18.5 -27t16 -20.5q-17 50 -45 72z" />
<glyph unicode="T" horiz-adv-x="1341" d="M8 -20q-8 14 -8 30q0 18 10 37q3 6 12.5 16.5t15 23t5.5 30.5q0 4 -7.5 4.5t-8.5 3.5q11 18 17.5 60.5t23.5 58.5q1 -8 -3.5 -17.5t-3.5 -17.5q5 8 8 14t8 18.5t3 20t-12 8.5q2 4 8.5 9.5t10.5 10t6 12.5t-5 17q-3 -1 -4 -3t-1 -5.5t-1 -5.5q-1 6 -1 13q0 31 12 70 q14 47 36 81q0 3 -6 3.5t-6 4.5l1.5 7.5t2.5 3t3 0t4.5 -1.5t6.5 -1q6 13 40.5 125.5t45.5 128.5q3 9 -6 11.5t-10 5.5q3 9 10.5 23.5t10 25t-0.5 22.5q8 7 13.5 14.5t8.5 20t4.5 18.5t3 25t1.5 23q4 0 8.5 2t7.5 2t7 -4q3 5 8 22t10 21q-8 3 -13 -4t-14 -4q-1 12 8.5 20 t10.5 10q6 87 75.5 283.5t81.5 247.5q-50 12 -89 12h-18q-45 -4 -127 -12q-54 -5 -96 -5q-21 0 -38 1q-5 11 -23 92q10 13 35 10q1 7 -4 15t-4 16q6 10 24.5 9.5t24.5 6.5q10 2 19 -12q50 -3 108 -3q44 0 92 2q84 3 179 3q32 -1 64 -1q131 -2 181 -16q8 0 54 2q21 1 37 2 q19 0 35 -2q28 -3 46 -14q74 9 129 9q41 0 70 -5q9 -1 31.5 -4.5t31.5 -5t26.5 -5.5t25.5 -8.5t18 -11.5t14.5 -16.5t5.5 -21.5q1 -6 -0.5 -10.5t-3.5 -6t-7.5 -4t-6.5 -2.5q1 -1 3 -2.5t3 -2.5t2 -3t1 -3.5v-4.5t-1 -6q-269 27 -479 27q-44 0 -86 -1q-4 -20 9 -26.5 t38 -4.5q-4 -22 9.5 -36t41.5 -27.5t37 -20.5q-3 -7 -3.5 -14.5t3 -16.5t5.5 -13t9.5 -15.5t8.5 -13.5q-8 -23 -27 -23q-1 -6 3.5 -8t4.5 -4q-16 -8 -20.5 -26.5t-8 -34t-18.5 -19.5q4 -11 4 -21q0 -27 -24 -55q-19 -61 -118.5 -365.5t-129.5 -404.5q-5 -2 -11 -8.5t-8 -7.5 q-1 -18 -6 -38.5t-8.5 -30.5t-14.5 -35.5t-12 -28.5q-5 -59 -35.5 -170.5t-35.5 -155.5q-53 -16 -129 -16q-37 0 -79 4q-165 14 -200 74zM78 -16v-25q1 0 10.5 -3.5t17.5 -2.5q-1 2 -3 8t-3.5 9t-4.5 7t-7 5.5t-10 1.5zM88 324q4 1 6.5 3t4 6t2 7.5t1 9t0.5 8.5h-12 q-2 -12 -2 -34zM137 336q-2 -6 2 -9.5t11 -2.5q0 4 3 8.5t3 7.5q-12 3 -19 -4zM168 442q11 0 15 14.5t-5 20.5q-4 -3 -5 -17.5t-5 -17.5zM305 739q8 -11 21 4q15 17 2 25l-4 2q0 -9 -9.5 -16t-9.5 -15zM457 354h6t7.5 -1t6 0.5t2.5 4.5q-3 0 -4 2.5t-1 5t-2 4.5t-5 1 q-1 -3 -6 -6.5t-4 -10.5zM469 432q1 2 7.5 14t6.5 23h-12q-7 -28 -2 -37z" />
<glyph unicode="U" horiz-adv-x="1265" d="M0 121q22 242 80 414q83 235 92 292q7 51 41 129t41 101q6 17 10.5 51t5.5 41q8 32 34 85.5t34 76.5q-7 9 -5 21t5.5 18.5t10 17.5t9.5 18q11 26 31.5 86.5t41 104t46.5 68.5q2 7 -1.5 14t-2.5 12q17 9 43 9q42 0 104 -24q100 -38 160 -77q4 -2 12.5 -2t10.5 -2 q10 -9 30 -36t33 -34q-4 -13 -3 -19.5t11 -10.5q-14 -79 -47 -95q-2 -4 0.5 -6t7 -3.5t5.5 -2.5q-27 -40 -84 -162q-7 1 -13 -2.5t-10 -3.5q2 -18 -15.5 -42.5t-19.5 -31.5l-5 -20l-5 -17q1 1 2 3q-2 -3 -3.5 -16t-6 -18.5t-14.5 -0.5q2 -8 2 -16q0 -28 -18 -62 q-24 -45 -23 -64q-11 -8 -19 0q4 -4 4 -34q-8 -2 -16 1.5t-10 -1.5q-6 -18 12 -15q-4 -6 -3.5 -13.5t-2.5 -12.5q-8 -4 -12 1t-9 -1q-1 -8 3 -8.5t10 2.5t8 2q0 -8 -3 -9.5t-7.5 -0.5t-8.5 -3q6 -6 7.5 -12.5t-0.5 -18t-2 -18.5q-2 1 -6 4.5t-9 3.5q2 -14 -7.5 -54.5 t-21.5 -77.5t-26.5 -80t-15.5 -48q-6 -6 -14.5 -6.5t-12.5 -7.5q0 -4 16 -4q-4 -27 -20 -66q-6 -5 -7.5 -2.5t-3.5 8.5t-6 7q-6 -3 -5 -6t4 -9.5t1 -11.5q1 -4 7 1.5t10 -1.5q-1 -9 -12.5 -29.5t-2.5 -36.5q-9 1 -14.5 -1.5t-11 -10t-6.5 -8.5l5 -5t4.5 -5t2.5 -5.5t0 -7.5 q5 0 5.5 10.5t4.5 12.5q6 -3 5 -17.5t-7 -19.5q-2 1 -6 9t-10 9q-9 -3 -15 -12q0 -8 12.5 -9.5t14.5 -4.5q-14 -71 -20 -88q19 -12 36.5 -57.5t38.5 -57.5q12 7 17.5 7.5t17.5 -7.5q109 63 189 217q136 233 248 584t145 665q8 3 18 1.5t13.5 -2.5t12.5 -5t15 -6q9 -2 15 8 t14 9q7 -5 13.5 -19t19.5 -16q-5 0 -8 -0.5t-4.5 -1.5t-2 -2t0.5 -4t2 -5t3.5 -6.5t4.5 -7.5q-9 -1 -17 4.5t-14 5.5q0 -13 14 -24q13 -11 17 10q7 0 3 -14q-3 -13 -10 -2q9 -35 2 -58q-3 0 -3.5 3t0 7t-0.5 7q-3 -8 -17.5 -9.5t-16.5 -3.5q-1 -6 0 -7.5t3.5 0t6.5 3t8 0.5 q1 -5 -2 -7.5t-7 -2.5t-7 -1.5t-2 -6.5q0 -4 16 -4q2 0 4 0.5t3 2.5t2 3.5t1 4.5v4.5v5.5v5q7 -4 7.5 -11.5t-2 -15t0.5 -18.5q-5 -3 -8 -2t-8 6.5t-8 6.5q0 -12 5.5 -17.5t14.5 -1.5q-1 -9 -7.5 -18.5t-2.5 -24.5q-7 -7 -23 -4q1 -6 -2 -13t2 -9q3 -6 4 -3.5t5.5 6t9.5 1.5 q0 -4 -12 -29q-5 -10 6 -10q1 -7 -3 -14t-3 -13q-2 5 -10.5 1.5t-16.5 -1.5q4 18 7.5 36.5t7.5 44.5t8 46q-13 -21 -22 -76t-13 -69q3 1 13.5 6t13.5 5t12 -3q-5 -22 -35 -12q-8 -8 -10 -23t8 -20q5 1 0 3q-10 5 -4 13q13 10 26 4q-15 -18 -30 -65.5t-19 -57.5q10 6 12 2 t-2 -15q0 -3 -0.5 -5t-1 -5t-1 -5.5t-0.5 -5.5t-0.5 -5.5t0 -5.5t0.5 -6t1 -6q-2 -5 -8.5 -1.5t-13.5 1.5q-3 -8 5.5 -11t6.5 -10q-45 -85 -59 -190q-3 1 -6.5 5t-6.5 5q-3 -4 -3.5 -19t-10.5 -18q-1 -7 1 -7t5 2t6 -3q-23 -40 -117.5 -279t-150.5 -313q-1 -4 1.5 -9 t0.5 -11q-31 -40 -50 -63t-56.5 -60t-69.5 -57t-76 -36q-42 -15 -84 -14h-6q-53 1 -167 22.5t-185 39.5q-1 5 -5.5 22.5t-6.5 24.5t-7 21.5t-10 22t-12 17t-16.5 15t-20.5 8.5zM129 297q-2 -14 2 -18t14 2q3 9 -1 13t-15 3zM389 274q12 0 14 -5.5t2.5 -13.5t6.5 -11 q-2 10 2 21.5t4 19.5q-27 5 -29 -11zM526 731h19q3 11 -8 12t-11 -10v-2z" />
<glyph unicode="V" horiz-adv-x="1325" d="M2 88q-3 39 -3 79q0 174 52 388q2 2 7 5.5t8 6t6.5 6.5t5.5 9q1 7 -7 4q-10 -4 -10 -3q-1 1 0 3q1 7 2 8q1 0 4 -2q4 -2 7 -2q-2 53 45.5 212.5t50.5 215.5q2 5 10 11t10 11q-2 13 8 54.5t9 52.5q-6 -3 -8.5 -7t-4.5 -11t-6 -13q-7 7 -12 1.5t-12 -19.5q-1 23 26.5 61.5 t34.5 57.5q30 75 54 260q8 43 8 81q0 19 -2 37q7 4 13.5 4t15 -2t14.5 -2q0 9 6 23t2 29q18 6 56 6q34 0 85 -5q106 -11 117 -32q3 -1 12.5 -2.5t13.5 -2.5t12.5 -2.5t12.5 -2.5t11.5 -3.5t11 -4.5t9 -4.5t8.5 -5.5t6 -7t5 -8q1 -2 -4.5 -6.5t-5.5 -7.5q0 -1 2 -7t3 -12 t-1 -15.5t-8 -17.5q-3 -8 3.5 -11.5t6.5 -6.5q-1 -54 -30 -155t-33 -122q-11 -50 -26 -154.5t-30 -144.5q-7 -19 -39 -171t-51 -191q6 -5 6.5 -11.5t0.5 -10.5t4 -5q-2 -9 -7 -6q-1 1 -2 1.5t-2 0.5q-3 -8 2.5 -13.5t3.5 -12.5q-8 -1 -14 -9t-10 -10q-1 -3 2 -3.5t6.5 -0.5 t7 -0.5t4.5 -3.5q-2 -19 -12.5 -35.5t-7.5 -40.5q-4 2 -4 10q-5 -31 -6.5 -78.5t-1.5 -80t2 -98t2 -83.5q32 20 51 95q87 151 147 342q21 38 80 208.5t80 211.5q4 -6 -2.5 -28.5t-5.5 -33.5q20 14 37.5 64t34.5 67q25 74 89 207t89 211q3 6 1 7q-2 -1 -3 -3q0 2 10.5 20 t14 31t-4.5 29q3 9 10 6.5t13 1.5q4 15 9.5 28.5t14 31t11.5 24.5q-2 2 -7.5 7t-9 8t-6 8.5t-2.5 11.5q3 2 8.5 7.5t9 8.5t9.5 6t12 4q-5 17 14.5 41t14.5 39q22 12 45 12q9 0 19 -2q33 -7 44 -32q-10 -22 -33.5 -71t-34 -71.5t-30.5 -63t-34 -66t-32.5 -57t-36.5 -58.5 q-21 -93 -53 -119q-18 -54 -63.5 -153.5t-63.5 -153.5q-4 1 -7.5 -3.5t-6.5 -4.5q-2 -18 -15.5 -63t-27 -82.5t-32.5 -89.5t-21 -58q3 -8 0.5 -27t-0.5 -31q-7 2 -15.5 -1t-11.5 -3q6 -9 -1 -22.5t-10.5 -21t11.5 -17.5q-3 -6 -5 -7t-6.5 2.5t-6.5 4.5q-4 -3 -9 -31 q2 1 5.5 7t3.5 2v-9q8 3 12 17q3 -3 3 -6.5t-2.5 -12t-2.5 -12.5q-13 3 -23 -4q12 -15 -2 -43q-9 4 -10 10t1 13.5t1 11.5q-11 -8 -11.5 -18t5 -23t6.5 -17q-3 -3 -10.5 -21.5t-20.5 -17.5q2 -14 -3.5 -27.5t-20.5 -13.5q-5 -42 -37 -101t-39 -79q-14 -6 -25.5 -15.5 t-22 -25t-16 -25.5t-16 -32t-14.5 -29q-7 -1 -22 -10t-25 -2q-22 -37 -88 -37q-23 18 -168 24.5t-164 12.5q-12 38 -12 76q0 21 4 43q-2 5 -5.5 8t-9.5 7t-8 5zM139 559q-4 -11 2.5 -17t14.5 -1q0 18 -17 18zM145 807q13 -3 15 11q1 10 -6 11q-9 -9 -9 -22zM229 948 q5 -1 8.5 1.5t7.5 9.5t5 8q-3 0 -6 2t-6 2q-9 -9 -9 -23zM250 1013.5q0 -2.5 1.5 -4t4.5 -3.5q6 3 7 15q1 9 -9 7q-1 -2 -2.5 -6t-1.5 -5v-3.5zM733 621q-3 15 20.5 91t34.5 87q-4 1 -9 -1.5t-9 -2.5q-1 -4 -12.5 -48.5t-20 -84t-4.5 -41.5zM791 829.5q-1 -1.5 6 -8.5 q8 5 10 15.5t-6 15.5q0 -7 -4.5 -14t-5.5 -8.5zM1116 1622q-4 -13 9 -13q14 1 14 13h-23z" />
<glyph unicode="W" horiz-adv-x="1900" d="M0 -86q2 5 14 5t15 5q0 7 -9 11t-10 6q30 278 88 448q3 40 48.5 212t54.5 226q28 8 39 19q2 8 5 26.5t5 26.5q-15 -4 -12.5 -20.5t-6.5 -28.5q-2 1 -2.5 3t0 4.5t0.5 5t-1.5 4t-4.5 1.5q11 40 29.5 129t34.5 140q5 2 6.5 0t0 -6t-1 -7t4.5 -2q7 9 5.5 12.5t-7 9t-6.5 9.5 q9 35 30 111.5t33 124t23 109.5t12 108q48 10 109 10q26 0 54 -2q94 -6 187 -35t119 -66q-109 -260 -168 -495q-4 -5 -13 -13.5t-13 -13.5q0 -10 10 -10q-23 -51 -33 -82q-5 6 -12.5 -3.5t-16.5 -6.5q-3 -13 -5 -33t-5 -34t-10 -25q2 1 5.5 -0.5t5.5 -3t4 0t3 7.5 q2 -13 -35 -124t-49 -116q-1 6 3.5 13t4.5 14q-23 -37 -26 -53q0 -10 17 0l5 4q2 -17 -8.5 -40.5t-7.5 -43.5q0 -7 -12 -6t-13 -11q-7 -8 4 -9q13 -2 13 5v-7q0 -25 -20 -62q-22 -42 -25 -54q11 0 22 15.5t23 15.5q1 7 1.5 10t2.5 8t5.5 6.5t8.5 0.5q4 20 4 26q7 2 16.5 12 t10.5 11q58 117 159 305.5t158 282.5q4 2 11 9.5t14 8.5q-1 11 6.5 21.5t22 22.5t18.5 17q5 8 -3.5 12t-8.5 -8q-2 11 6.5 18.5t17 10.5t21.5 6q4 21 10 27q-4 7 -12.5 1.5t-9.5 -1.5q2 8 6 10.5t7 2t8.5 -4.5t6.5 -4q9 6 5.5 18t-13.5 9q5 5 14.5 17t14.5 17q1 0 3.5 -6 t10.5 -2q0 -8 -10 -8q0 -3 1.5 -5.5t4 -3l5 -1t6.5 0t6.5 1t6.5 1.5t5 1q-12 6 -1.5 26t7.5 31q-8 -1 -13 -21.5t-20 -17.5q6 1 8 9q1 4 -1 5q-3 -1 -7 -5q0 1 13.5 24t6.5 37q22 14 37.5 39.5t31.5 65t24 55.5h43q5 -15 4.5 -24.5t-5 -31.5t-5.5 -32q-4 -7 3 -10t5 -9 q-56 -223 -68 -291q-4 -25 -57 -291.5t-62 -347.5q18 -5 22 21q0 2 1 7v3q33 33 69 131q13 11 65 145t69 144q5 30 37.5 85t39.5 73q3 0 6.5 -3.5l4.5 -4.5q6 40 62.5 133.5t70.5 126.5q71 166 88 254q19 23 40 105t44 110q27 -3 40.5 -5t30 -9.5t23.5 -20.5 q29 2 59.5 -13.5t36.5 -17.5q5 2 12 10t11 10.5t14 -1.5q1 -5 -4 -8.5t-6 -6.5q2 -6 27 -16v-11q0 -32 -9 -74q-11 -49 -25 -86t-38 -97t-35 -89q-7 -20 -17.5 -57t-20.5 -67t-21 -56q-5 -3 -15.5 -9t-15.5 -9q0 -10 8 -13q-4 -4 -15.5 -6.5t-15.5 -7.5q-31 -70 -137 -362.5 t-155 -386.5q-1 1 -4 11.5t-11 10.5q-10 -17 -26 -22q3 -6 16 -7t14 -2q2 -8 2.5 -10.5t-5.5 -10t-7 -9.5q-4 6 -1.5 15t-2.5 15q-31 -19 -43 -41q4 -5 7.5 -2t11 7t14.5 2q6 -10 -4 -26.5t-9 -18.5q-3 -4 -17.5 0.5t-18.5 -0.5q-14 -36 -48 -50q-25 -11 -53 -10 q-10 0 -21 1q-41 5 -73.5 14t-62.5 22q-5 0 -11.5 -9t-13.5 -7l-3 5l-4.5 4.5t-4 3.5t-5 3.5t-5.5 2.5t-7.5 2h-8.5t-11 -1q-3 32 -37 41v12q0 100 30 258q32 168 73.5 351.5t52.5 273.5q-9 -3 -15 -10t-11.5 -18t-8.5 -15q-5 7 4.5 26.5t9.5 30.5q-21 -16 -29.5 -30 t-19.5 -45q-16 0 -25 -9q-4 -7 -1 -12.5t8.5 -5.5t9.5 4q2 -1 -1.5 -8t-10.5 -14.5t-13 -8.5q-1 8 5.5 13t6.5 6q-9 1 -13.5 -5.5t-6.5 -17.5q-1 -6 5 -2q4 2 3 0q0 -2 -2 -6q-8 3 -10 0t-1 -8.5t-1 -9.5q-4 -9 -28.5 -35t-33.5 -39q-41 -58 -151 -283.5t-125 -253.5 q-9 -39 -30.5 -77t-58 -88.5t-48.5 -69.5q-4 -50 -23 -125q9 -13 10.5 -29.5t0 -28t-6.5 -38.5q-26 -3 -101 -17.5t-131 -23.5q-48 -8 -99 -8h-17q-62 2 -90 22zM256 950q8 -1 14 12.5t6 26t-6 15.5q-1 -4 -7.5 -22t-6.5 -32zM307.5 1178.5q0.5 -1.5 1.5 -7.5q12 -3 15 10 q3 11 -7 11q0 -1 -5 -6.5t-4.5 -7zM412 -59q22 4 24 18q-18 0 -24 -18zM481 403q11 -3 14 10q3 11 -6 11q-8 -8 -8 -21zM1274 248h22q-3 5 -2 10.5t2.5 7.5t-0.5 4q-3 -5 -11.5 -11t-10.5 -11zM1335.5 380q-0.5 -2 2.5 -7q1 9 13 14.5t13 15.5h-16q0 -1 -6 -11t-6.5 -12z " />
<glyph unicode="X" horiz-adv-x="1595" d="M0 35q10 23 33 26q70 72 162 191t166.5 225t167.5 222t167 186q1 20 -1 39t-6 40.5t-5 34.5q6 1 8 -4t1 -11t1 -11t8 -4q12 19 3.5 57.5t-7.5 48.5q-7 2 -9 -5t-9 -5q-1 8 4.5 17t5.5 10q-18 6 -20 47t-17 49q-2 28 -6.5 80t-6.5 79.5t-6.5 66.5t-10.5 73q-2 5 -9.5 2 t-13.5 -2q-1 7 4 13.5t4 12.5q-11 12 -12 36.5t-4 45.5t-21 29q7 -1 26 -1q33 1 103 3q28 1 54 0q75 0 132 -7q77 -10 89 -44q30 7 52 0t45 -24.5t36 -22.5q7 -71 8 -215.5t2 -163.5q56 46 155.5 147.5t139.5 155.5q13 3 31.5 25.5t25.5 27.5q4 3 19 4t22 15q10 -4 -4 -17 t-28 -20q-3 -12 -19 -31t-18 -35q-24 -28 -70.5 -77.5t-85.5 -89.5t-94 -96t-70 -71q0 -28 -4 -79.5t-4 -91t8 -70.5q1 -7 -4 -11t-6 -8q7 -56 8 -310t27 -351q5 -17 17.5 -52.5t18 -63.5t3.5 -60q-10 1 -25.5 -2t-27.5 -2q-8 -3 -8 -13.5t-3 -13.5h-2q-24 0 -120 -19 q-85 -17 -118 -17q-7 0 -12 1q-8 -23 -35 -27.5t-53.5 3t-42.5 20.5q-1 8 -7 37t-5 48.5t12 37.5q-3 17 -3 54q0 59 8 169q10 120 10 179q0 29 -2 44q-3 25 -15.5 67t-15.5 60q-2 16 0.5 46t1.5 43q-1 11 -9 42.5t-5 53.5q-26 -3 -51.5 -37.5t-43.5 -40.5q-6 -19 -33.5 -42 t-33.5 -42q-34 -29 -71 -76t-78.5 -115.5t-67 -112t-69.5 -126t-52 -96.5q-20 -12 -37.5 -36t-29 -46t-31.5 -43t-45 -29q-5 4 -8.5 17t-4.5 14q-17 2 -30.5 21.5t-22.5 23.5zM678.5 1039.5q-1.5 3.5 0 12t1.5 9.5q7 2 9 -8q2 -15 -3 -15q-6 -2 -7.5 1.5zM1450 1470 q13 -2 21 11q4 7 -1 10q-2 -5 -10 -10.5t-10 -10.5zM1509 1534q0 3 1.5 5.5l3 5t5.5 4.5t6.5 3.5t7.5 3.5t7 2.5t7.5 2.5t6.5 2q-1 -1 -6.5 -8t-8 -9.5t-7.5 -7t-10 -7t-11 -3.5q-2 3 -2 6z" />
<glyph unicode="Y" horiz-adv-x="1302" d="M-391 -160q-1 9 8 11.5t10 5.5q-1 7 -7 25.5t-7 31.5q32 4 61 -7t42 -21t41 -39t32 -33q35 -13 69.5 -14.5t62.5 3.5t59.5 22.5t53 33t51.5 44.5t46 46.5t44 49.5q10 11 15 17q38 43 71 90.5t77.5 119t50.5 81.5q3 27 22.5 81t39 98t48 106t33.5 72q3 7 7 25t8 28 q4 7 15.5 19.5t15.5 19.5q4 9 8 28.5t8 28.5q12 29 46.5 106t57.5 133t41 111q7 43 41.5 143t40.5 148q-9 -11 -53.5 -70t-69.5 -90q-23 -27 -68.5 -76.5t-62.5 -68.5q-53 -61 -125.5 -194.5t-85.5 -153.5q-18 -27 -116 -164q-5 -7 -28.5 -41t-32.5 -45.5t-29 -34t-39 -35 t-41 -20.5q-8 0 -15.5 0.5t-12 2t-11.5 4.5t-9 4.5t-9 6.5t-9 6q0 18 -2 59q-1 26 -1 49v22q1 31 7 61q5 23 25 73.5t24 77.5q3 23 16 70.5t17 65.5q1 6 0 18t0 18q16 64 61.5 185.5t59.5 167.5q54 179 156 331q3 -1 14 -4l16.5 -4.5t14.5 -5.5t13.5 -8.5t9 -11.5t5.5 -15 t-7.5 -27t-21.5 -44.5t-18 -38.5q-14 -30 -64 -139t-71 -148q-18 -90 -78.5 -284.5t-77.5 -303.5q-3 -16 -3 -30q0 -22 7 -39q63 58 123.5 140t126 183t109.5 158q13 28 34.5 60.5t38 53t47.5 57t42 50.5q32 39 107 142.5t124 156.5q-2 18 6 33t6 31q4 1 10 1q28 0 95 -12 q-1 -7 3 -21.5t5 -21.5q14 -13 113.5 -47t113.5 -51q-1 -4 -1 -7q0 -27 25 -58q27 -35 28 -62q0 -40 -24 -109.5t-26 -76.5q-21 -85 -32.5 -127.5t-40 -108t-62.5 -104.5q-16 -65 -93.5 -247t-90.5 -241q-1 -2 -16.5 -28.5t-30.5 -32.5q-2 -34 -19 -64.5t-45.5 -66.5 t-40.5 -56q-10 -16 -32.5 -62t-38.5 -65q-9 -11 -34.5 -28t-33.5 -29q-5 -8 -10 -23.5t-8 -21.5q-9 -14 -23 -30t-34.5 -38.5t-28.5 -31.5q-144 -164 -346 -183q-24 -2 -52 -2q-75 0 -180 16q-145 21 -196 56h-31q-4 15 -27 33t-26 35q0 -7 -14 -10q-14 -2 -13 8v2 q7 6 7.5 6t6.5 -6q2 12 -0.5 28.5t-9 45.5t-8.5 36z" />
<glyph unicode="Z" horiz-adv-x="1841" d="M4 158q12 62 57 86q2 25 13.5 45t36.5 38t37 25.5t45 24.5q64 50 232.5 233.5t246.5 237.5q-15 12 -76 12h-24q-27 -1 -49 -1q-44 0 -68 3q-17 21 -25 47.5t0 48.5q6 -5 16 -8.5t17.5 -4.5t24 -2.5t22.5 -2.5q5 5 1.5 13.5t6.5 13.5q20 -11 63 -12h22q35 0 79 2 q34 2 58 2q16 0 28 -1q48 -6 61 5q31 24 120 88.5t120 91.5q6 1 15 4l12 4q54 42 172 114.5t172 114.5q10 -3 17 -0.5t14 10t10 9.5q-42 -4 -95.5 -16t-90 -23.5t-102 -33.5t-91.5 -30q-69 -9 -199 -49t-194 -47q-7 0 -15 -8t-14 -8q-1 8 -6.5 20.5t-7 20t1.5 28.5 q-17 2 -30.5 43.5t-26.5 80t-29 36.5q1 18 -19.5 46.5t-9.5 53.5q42 7 89.5 16.5t84 18t91 23t82 22.5t88 25.5t81.5 23.5l15 -2q3 -1 -3 -4q14 24 99 24q15 0 32 -1q7 1 3 7.5t-1 10.5q8 0 27.5 6t30.5 6t8 -12q11 -4 17.5 6.5t7.5 10.5q42 10 145.5 24t153.5 29q6 2 9.5 0 t2.5 -8q13 14 64.5 22.5t56.5 24.5q10 -1 17.5 -5t15.5 -11.5t12 -10.5q-13 -9 -11.5 -44t8.5 -68.5t14 -72.5t5 -56q-1 -16 -10 -37.5t-8 -34.5q-90 -58 -249.5 -153t-290.5 -179t-236 -168q233 -32 366 -32q22 0 41 1q-27 13 -55 9q15 13 36.5 8t37.5 -15t30 -24 q34 -30 34 -65q0 -5 -1 -11q-5 5 -15.5 5.5t-28 -0.5t-22.5 -1q13 13 -16 16q-15 2 -56 2q-58 0 -69 5q-8 0 -9.5 3t0.5 7t-1 8q-22 -3 -58 -3q-41 0 -99 4q-35 3 -62 3q-58 0 -82 -12q-8 -1 -13 7t-10 9q-32 2 -63 -8q-53 -44 -139 -106q-56 -39 -140.5 -135t-169 -188 t-145.5 -128q-9 -13 -20 -24t-27.5 -21.5t-25 -15.5t-31 -16.5t-27.5 -14.5q454 31 713 35q7 2 6 -9v-1.5v-1.5q25 2 60 3q80 0 214 -13q183 -17 271 -17h10q4 -6 0 -27q19 0 43.5 12.5t29.5 14.5q14 -28 54 -23q23 -20 35 -124q9 -79 9 -131q0 -17 -1 -31q1 -7 11 -12.5 t11 -6.5q-18 -11 -36 -47.5t-21 -40.5q-10 -1 -23 -1q-81 0 -242 24q-152 22 -243 21q-21 0 -39 -1q1 7 4 11.5t9.5 6t11 2t14 -0.5t12.5 0q-11 13 -63 13h-21.5h-20.5q-51 0 -52 13q-24 -12 -41 -8q-1 4 1 5.5t5 2.5t8 0q-4 8 -35 5q-17 -1 -16 -6q0 -1 2 -3q-15 6 -41 6 q-38 0 -101 -13q-71 -15 -111 -15q-20 0 -32 4q-31 -21 -85 -27q-19 -2 -36 -2q-32 0 -57 6q-8 -1 -8 -9t-8 -11q-8 1 -18 1q-40 0 -107 -19q-84 -24 -115 -27q-2 2 -9 7.5t-9.5 8t-8.5 9t-6.5 10t-2.5 10.5t3 12q-21 22 -45 79q-23 57 -39 123q-9 38 -9 74q0 28 5 54z M950 1470q48 3 84 31q-9 -3 -28.5 -8t-33 -10t-22.5 -13zM1049 1628q-4 -12 7 -12q13 1 15 12h-22zM1481 178q3 1 11 -0.5t12.5 0t4.5 8.5h-26q-2 -2 -2 -8z" />
<glyph unicode="[" horiz-adv-x="770" d="M4 18l10 19h2h-2q-30 43 4 67q-4 245 -5.5 732t1.5 596q-3 7 -10 10l10 18q-35 49 6 70q30 16 132 22q86 6 270 10.5t260 0.5q2 -1 5 -3.5t5 -3.5q24 -24 37 -47q-4 -4 -10.5 -11.5t-9.5 -10.5q-1 -3 1 -4t5 -0.5t6 0.5t5.5 -2t2.5 -6q-61 -61 -108 -78q-225 20 -471 20 q2 -248 12.5 -681.5t19.5 -606.5q103 5 266.5 9t233.5 1q2 -1 5 -4t5 -4q21 -18 37 -47q-11 -11 -20 -23q-1 -3 2 -3.5t7 0.5t7.5 -1t3.5 -8q-57 -57 -108 -78q-259 23 -471 23h-9q-103 -4 -114 -6q-1 1 -3.5 4t-3.5 4l-6 12z" />
<glyph unicode="\" horiz-adv-x="743" d="M0.5 1555.5q-1.5 4.5 3.5 15.5q13 3 28 -1.5t33.5 -12.5t28.5 -11q4 1 -0.5 10t4.5 13q70 -31 109 -76q27 -102 242.5 -729.5t252.5 -697.5q-2 -3 -6.5 -8t-6.5 -7t-4 -6.5t-3 -9.5l-23 6q-20 -29 -38.5 -32t-37.5 23.5t-26 40t-23 51.5l-3.5 7t-2.5 6q-35 79 -265 707 t-243 684q-2 4 -10 13.5t-9.5 14z" />
<glyph unicode="]" horiz-adv-x="770" d="M0 49q0 6 3.5 8t7 1t6 -0.5t1.5 3.5q-2 5 -9.5 13t-8.5 10q18 33 37 47q2 1 5 4t5 4q70 3 232 -1t268 -9q8 196 20 627.5t13 660.5q-244 0 -474 -20q-45 17 -106 78q0 4 1.5 5.5t4 2t5 0t4.5 -0.5t3 1t0 4q-2 3 -8.5 10.5t-9.5 11.5q16 28 37 47q2 1 5 3.5t5 3.5 q76 4 260.5 -0.5t270.5 -10.5q101 -6 131 -22q39 -21 4 -70l12 -18q-6 -2 -10 -10q2 -90 1 -596t-5 -732q34 -24 2 -67l12 -19q-7 -5 -10 -10q-4 -8 -8 -12q0 -3 -5 -8q-12 2 -116 6h-6q-209 0 -474 -23q-49 21 -106 78z" />
<glyph unicode="^" horiz-adv-x="1253" d="M0 418q7 13 35.5 89t60.5 158t88 183.5t116.5 180t146 132t176.5 53.5q87 0 187.5 -68t180.5 -169.5t129.5 -229.5t40.5 -237q10 -10 18.5 -24.5t19 -38.5t13.5 -31q0 -11 -8.5 -23.5t-11.5 -21.5t8 -33q-60 -35 -131 4q-13 8 -35 25q-53 55 -88 128t-51.5 133.5 t-36.5 116t-57.5 89.5t-100.5 38q-54 4 -109 -28t-107.5 -91.5t-99.5 -122t-105 -138.5t-103 -123q-9 -9 -33 -25q-76 -35 -131 -4q11 24 7.5 33t-12 21.5t-7.5 23.5z" />
<glyph unicode="_" horiz-adv-x="735" />
<glyph unicode="`" horiz-adv-x="337" d="M0 1870q0 24 10 47q44 21 80 29l4 2q18 -7 31 -15q4 -3 8 -5.5t9.5 -5.5t9.5 -5l4 -4h2v-2q4 -2 10 -8q69 -146 129 -220q-2 -5 -4.5 -10t-4.5 -8t-3 -7t0 -9h-23q-39 -93 -144 58q-2 2 -3 3.5t-2 3.5q-65 86 -113 156z" />
<glyph unicode="a" horiz-adv-x="860" d="M2 680q7 78 89 187.5t163 156.5q62 36 116 36q24 0 46 -7q2 -1 21.5 -16.5t27 -20t25 -12t34.5 -9.5q28 45 91 49q7 1 14 0q55 0 103 -31q54 -35 63 -91q1 -10 -4.5 -24.5t-6.5 -20.5q-1 -8 2.5 -20t1.5 -19q-10 -54 -55.5 -185.5t-46.5 -183.5q33 27 60 64t62 102.5 t46 83.5q14 25 30.5 50.5t40 60.5t33.5 49q10 4 16.5 -5.5t8.5 -23.5q-4 -17 -98 -195.5t-146 -259.5q-8 -13 -26 -46.5t-33 -57t-29 -33.5q-37 -23 -88 -23q-19 0 -41 3q-78 12 -121 49q-27 53 -27 121q0 71 16 128q16 55 41 133.5t34 118.5q-85 -106 -201 -241 q-2 -2 -13 -14.5t-15 -16.5t-12.5 -12t-15 -11.5t-13.5 -5.5q-22 -5 -42 -5q-59 0 -102 46q-50 55 -50 130q0 11 1 22zM180 635h15h10q31 16 71.5 61t51.5 54h-2q4 4 6 4q9 10 37 41.5t41 47.5t32.5 43.5t32.5 53.5q-4 2 -8 2.5t-6 0.5t-3.5 1t-0.5 3t4 7q-85 -22 -164 -98 q-44 -44 -76 -104t-41 -117z" />
<glyph unicode="b" horiz-adv-x="870" d="M2 410q11 114 90 378q1 0 2 1.5l2 3t2 2.5q2 15 13 55.5t12 62.5q7 14 10 29q17 31 27 53v2q16 16 22 37q17 39 50 135t53 146q11 27 27.5 59.5t38 73.5t32.5 63q4 8 18 37.5t18 37.5t16 33t17.5 34.5t16.5 29.5t18.5 32.5t18 29t20.5 31.5q2 3 19 34t31 46.5t30 13.5 q4 -1 46.5 -6t74.5 -12t49 -17q22 -13 44.5 -46.5t29 -66t-18.5 -49.5q8 -19 -4.5 -45.5t-13.5 -38.5q-59 -90 -123 -217q-11 -23 -37.5 -75t-41 -81.5t-34.5 -76.5t-34 -90q-4 -14 -10 -44t-13.5 -53t-21.5 -41q-2 -11 -0.5 -23t-1.5 -16q-5 -8 -25 -33.5t-25 -45.5 q22 19 65 77t67 84q22 24 34.5 37t36 34t42 30.5t43 18.5t50.5 7t54 -12q30 -34 30 -101q0 -91 -55 -243q-6 -17 -18.5 -62.5t-22.5 -66.5q-3 -6 -15.5 -17t-15.5 -18q-4 -7 -6.5 -22.5t-5.5 -20.5q-23 -39 -78 -94q-123 -109 -214 -109h-3q-11 1 -41 17.5t-45 13.5 q-10 -2 -17.5 -8.5t-12.5 -20t-7.5 -21t-6.5 -28.5t-5 -26q-49 -11 -91 -15q-17 -2 -34 -2q-24 0 -50 4q-42 6 -70.5 24.5t-43.5 58.5q-10 27 -10 62q0 17 2 36zM356 414q10 -3 17.5 4.5t17.5 5.5q11 -16 27 -17t30 5.5t32 15.5t30 10q6 5 3 15.5t3 15.5q9 5 16.5 3.5 t13.5 0t9 10.5q-4 1 -9 -2q-4 -2 -5 2q6 0 6 4q77 70 143.5 205.5t89.5 268.5q5 27 -8 53q-10 7 -22 7t-21 -3.5t-21 -12t-18 -15t-16 -17t-12 -12.5q-7 -7 -28 -22t-28 -24q-9 -11 -22 -40.5t-23 -43.5q-73 -96 -151 -225q-4 -18 -32 -84q-23 -56 -23 -95q0 -7 1 -13z" />
<glyph unicode="c" horiz-adv-x="630" d="M0 537q1 93 27 178q5 16 26.5 57t22.5 70l8 8t11 8.5t11 3.5q-8 2 -3 14.5t3 20.5q53 74 103 126t113 85q240 -7 315 -129q3 -33 3 -65q0 -84 -22 -156q-32 -100 -94 -166q-17 -3 -27 2t-18 14.5t-14 12.5q4 12 17 51.5t19 58.5t13 52.5t10 64.5q-55 -48 -99 -126 q-45 -78 -61 -176q-5 -27 -4 -54q0 -69 31 -132q16 1 31.5 9.5t23.5 16t23.5 26t19.5 22.5q59 64 165.5 214t148.5 231q5 -5 6 -5q10 -3 18 -20q15 -21 4 -47q-14 -27 -52 -82t-66 -101.5t-31 -70.5q-18 -21 -47 -59.5t-49.5 -65.5t-53 -62t-61 -57.5t-68.5 -44.5 q-41 -21 -81 -29q-28 -6 -61 -6q-15 -1 -31 1q-52 4 -109 22q-60 32 -91 112q-30 78 -30 167v6z" />
<glyph unicode="d" horiz-adv-x="751" d="M0 614q12 37 18 53t18.5 49.5t21 50t23.5 45t28 43.5t32.5 36t39.5 32.5t45.5 22.5t54.5 17q10 2 11.5 8.5t6.5 9.5q7 1 8.5 0.5t0.5 -3t-3 -4.5t-1 -4t5 -3q6 0 9 -0.5t3.5 1t0 2.5t-1.5 4.5t-1 6.5q9 -1 17 -3t17 -5l15 -5t15.5 -6.5t14 -6.5t15 -8t13.5 -7.5t16 -9 t15 -8.5q10 16 30.5 71.5t42.5 75.5v45q45 100 73.5 158.5t77 136.5t99.5 133q8 -1 30 -3.5t31.5 -4.5t29.5 -5.5t30 -7.5t25 -10.5t22.5 -15.5t15.5 -20.5t11 -27t2 -34.5q-1 -35 -17.5 -75t-43.5 -88t-37 -72q-23 -57 -70 -173t-61 -151q-5 -12 -11 -36.5t-10 -33.5 q-4 -8 -24.5 -46.5t-28.5 -65.5q-5 -17 -18.5 -57t-20 -62t-15 -55t-12.5 -61.5t-4 -55.5q98 77 186.5 214.5t145.5 283.5q33 4 55 -25q1 0 1 -2q0 -16 -52 -126q-60 -128 -147.5 -278t-143.5 -198q-10 -30 -10 -35q-56 -36 -103 -56t-104 -24q-8 6 -47 27.5t-55 38.5 q-31 105 -31 177v9q1 8 5 23.5t4.5 22.5t-3.5 18q-1 9 9.5 16.5t9.5 17.5q-3 9 -2.5 21t-2.5 18q-35 -50 -105 -60q-18 -3 -35 -2q-50 0 -96 23q-61 31 -73 90v3q-4 27 -10 36zM182 539q4 7 6 4.5t7.5 -6.5t11.5 -2q100 87 180 225q3 10 -4 17.5t-4 17.5q6 1 8.5 14.5 t10.5 13.5q2 -12 -6 -24t-9 -15q18 17 27.5 48.5t11.5 35.5q-72 -13 -136 -61.5t-96 -122.5q-18 -42 -18 -84q0 -31 10 -61z" />
<glyph unicode="e" horiz-adv-x="870" d="M4 332q-5 32 -5 66q0 38 6 79q12 78 36 154t59 143q20 36 61 93.5t66 82.5q52 49 117 49q14 0 28 -2q82 -13 154.5 -61t100.5 -98q3 -30 3 -57q0 -135 -77 -218q-5 -7 -20.5 -13.5t-20.5 -10.5q-12 -10 -29 -33t-24 -27q-13 -8 -30.5 -14t-30 -9t-34.5 -6.5t-30 -5.5 q-23 -71 -23 -120q0 -57 31 -86h8q2 -2 8 -5h-2q28 -10 51.5 -2.5t34.5 27.5l-2 -2q1 2 11 12q4 2 10.5 5t7.5 3q67 61 94 93q8 9 23.5 27t61 74.5t89.5 116.5t104 148.5t111 175.5q4 -4 6 -4q8 -3 17 -20q13 -23 0 -47q-14 -25 -88 -124.5t-80 -131.5q-20 -21 -86.5 -111 t-118.5 -129q-95 -106 -160 -145q-74 -43 -131 -54q-47 -9 -88 -9q-43 0 -77 10q-68 20 -99.5 69t-42.5 117zM352 518q137 36 180 250q-33 -17 -60 -43t-49.5 -63.5t-36.5 -66.5t-34 -77z" />
<glyph unicode="f" horiz-adv-x="768" d="M-354 -471q-2 25 -2 51q0 62 13 128q18 92 40.5 170t54.5 174.5t45 146.5h-2q9 11 21 67q8 57 47 164q17 13 24 14q16 54 43.5 107t65 113t55.5 96q8 16 57.5 129.5t90.5 165.5q-2 14 4.5 32t3.5 31q14 2 28 2q34 0 69 -10q50 -15 75 -30t70 -46q44 -67 51 -158 q2 -22 2 -44q0 -67 -18 -131q-23 -84 -73 -153.5t-114 -96.5q17 -2 46.5 -25.5t47.5 -24.5q13 -1 26 -1q52 0 101 18q63 24 109 63.5t88.5 89t70 93t50.5 78.5t32 42q7 25 25.5 63t34.5 38q17 1 22.5 -10t1.5 -27.5t-10 -34t-12 -33.5t-6 -22l-4 14q-9 -22 -26 -54.5 t-46.5 -78.5t-65 -90.5t-83.5 -88t-99.5 -74t-114.5 -45.5q-38 -9 -76 -9q-25 0 -51 4q-32 -376 -137 -594q-13 -28 -39 -87.5t-45.5 -96t-46.5 -72.5q-23 -30 -38 -41.5t-54 -32.5l-35 -17.5t-42.5 -20.5t-42 -17.5t-48.5 -13.5t-46 -3t-49 7.5t-44 25.5q-37 70 -45 156z M-29 -342q8 -3 11 -18q0 -2 -1 -7t-1 -8q0 -4 4 -12q1 -9 2.5 -13t5.5 -8t10 2q-8 8 -10 15h8q6 0 12 6h6q0 8 2 10q3 3 9 15q9 22 40.5 72.5t41.5 92.5q8 25 10 35q4 4 6 4q0 2 -4 2v11q70 110 112 272q26 99 26 178q0 51 -11 94q-28 -25 -56.5 -98.5t-48.5 -97.5 q-36 -122 -122 -305q-1 -5 2.5 -11.5t1.5 -13.5q-13 -15 -22 -33.5t-14.5 -44.5t-8 -42t-6.5 -50.5t-5 -46.5zM285 508q5 6 31.5 29t37.5 41t15 45q61 33 61 221q-12 -26 -37.5 -81.5t-41 -90t-35 -81.5t-31.5 -83z" />
<glyph unicode="g" horiz-adv-x="937" d="M-432 -184q1 31 12 49.5t35 42.5q9 -3 23 -12.5t20 -12.5q-1 -5 -1 -10q0 -29 23 -64q26 -38 63 -38h5q9 1 25.5 9.5t23.5 10.5q12 2 43 3t47 7q32 10 65.5 31t78.5 57.5t53 42.5q17 26 53 80.5t57 88t48 84.5t45 98q51 130 131 428q-27 -24 -65.5 -72.5t-65.5 -79.5 t-77 -56q-49 -24 -109 -24h-5q-61 23 -61 105q0 15 2 32q7 62 38.5 123.5t78.5 109t111 72.5q46 18 92 18q19 0 38 -3q10 -1 49 -20q26 -13 50 -13q13 0 26 4q0 8 10 8q2 -4 -4 -4q-1 -9 5 -5q3 1 9 5q15 12 21 11q77 0 135 -35t62 -94v-10q0 -24 -6 -67q-8 -54 -9 -61 q-4 -30 -14 -67.5t-17 -58.5t-25.5 -71t-22.5 -63q-6 -17 -25.5 -81t-28 -89t-27.5 -63.5t-40 -61.5q-5 -37 -23.5 -70t-55.5 -77t-48 -59q-10 -13 -28.5 -48t-37.5 -56t-47 -30q-17 -35 -82 -92q-92 -87 -288 -87q-36 0 -76 3q-52 5 -107.5 21.5t-81.5 38.5q-4 4 -9.5 19.5 t-10.5 19.5q-6 6 -20.5 10.5t-18.5 9.5q-8 11 -24.5 54.5t-16.5 58.5zM139 547q5 1 7 -2t2 -6.5t2.5 -5.5t7.5 -1q18 7 36 20t27 21.5t28.5 30.5t24.5 27q-13 3 -19.5 -7.5t-10.5 -11.5q-5 17 14 29.5t23 20.5q0 -5 -4.5 -11t-5 -8t7.5 -6q85 104 108 141q-4 -7 -1 -7 q6 -1 17 13q8 9 2 10q-2 0 -6 -1q3 11 14.5 11.5t16.5 4.5q0 11 11.5 23.5t11.5 25.5q-20 2 -40 2q-109 0 -185 -72q-88 -86 -89 -241z" />
<glyph unicode="h" horiz-adv-x="956" d="M0 258q17 95 84 268t84 248q44 103 124 302.5t147.5 357.5t135.5 292q0 5 -0.5 10.5t-1 8t0.5 6.5t4 10q43 5 78 5q71 0 112 -19q-3 -5 -1 -17t1.5 -15t3 -13t4.5 -12t5 -11.5t5 -11.5q-4 -22 -26 -69q-17 -37 -16 -66q0 -8 1 -16q-36 -49 -74 -179.5t-71 -179.5 q1 -43 -30.5 -117.5t-34.5 -85.5q-5 -16 -14 -51.5t-15 -56t-17 -50t-24 -53.5q21 12 46 37t45 49.5t47 51.5t53 43t63 22q11 2 22 1q27 0 54 -11q21 -30 23.5 -61.5t-5 -51.5t-27.5 -62t-30 -67q-10 -27 -22.5 -78.5t-18.5 -68.5q-3 -8 -16.5 -42t-16.5 -48t2 -36t25 -36 q22 9 45 29.5t35 35.5t34 44q131 166 264 378q7 7 15 7h4q4 0 4 -2q2 -2 2 -7q-28 -50 -35 -57l-266 -432q-44 -38 -100 -39h-3q-54 0 -94 32t-43 85q-1 10 -1 19q0 48 16 103q20 66 46.5 115.5t54.5 105.5t36 89h-2q-22 0 -66 -39q-21 -18 -42.5 -42.5t-47 -56.5t-39.5 -48 q-7 -32 -29 -62t-52 -68t-48 -77q-20 -40 -57 -176q-3 -11 -8.5 -35t-9 -35t-12.5 -24t-23 -19q-29 -13 -108 -16q-15 -1 -28 -1q-57 0 -85 11q-17 7 -35 28.5t-31 26.5z" />
<glyph unicode="i" horiz-adv-x="704" d="M-74 236q1 16 6.5 45t7 43.5t-5.5 40.5q19 39 19.5 63.5t1.5 53.5t20 75l4 8h-2q-5 -3 -6 2q3 5 8 15t7 13.5t6 11t5.5 11l4.5 10.5t5 12t4.5 13.5t5.5 17t6 19.5q10 10 14 33q11 21 31 60t35.5 68.5t29.5 49.5q151 -3 258 -137q1 -28 -5 -56.5t-12 -43.5t-20 -48 q-34 -74 -59 -189q-17 -80 -17 -138q0 -26 3 -47q67 51 137 131t164.5 210t113.5 154q-5 4 -5 9t2.5 12.5t2.5 13.5q4 0 9.5 -3t9.5 -3q-2 25 6.5 43.5t28.5 15.5q-10 8 -8 17.5t7.5 15.5t13 15t9.5 16q5 -1 22 -6t31 -4q3 -27 -6 -53.5t-26.5 -57t-22.5 -41.5 q-28 -64 -270.5 -358.5t-298.5 -339.5q-39 -6 -76 -6q-8 1 -16 1q-45 2 -81 11t-59 36.5t-26 71.5q-1 13 -9 46t-8 47zM197 1098q6 5 17.5 -2t21.5 -4q-1 11 -1 22q0 28 9 58q13 40 38.5 92t36.5 84q14 0 37.5 20t32.5 25q62 -11 162 -45q1 -8 5 -17.5t4 -13.5t-3 -19 q51 -38 66 -73q-10 -14 -39.5 -52t-43.5 -59t-30.5 -58.5t-22.5 -76.5q-24 6 -66.5 14t-70.5 14t-60.5 17.5t-56 29.5t-36.5 44z" />
<glyph unicode="j" horiz-adv-x="360" d="M-958 -287q9 -2 32.5 2.5t32.5 3.5q95 -95 156 -104q7 -1 15 -1q36 0 80 18q53 23 97 53q48 33 90 73q67 64 174 236q9 15 20 41t17 37q7 13 29 42.5t29 47.5q87 205 120 358q6 32 46.5 159.5t39.5 203.5q9 -5 31.5 -1.5t32.5 -2.5q10 17 24 20t40 -1.5t40 -4.5 q5 -15 36 -30.5t38 -28.5q2 -2 4.5 -17.5t5.5 -21.5q6 -14 18.5 -30.5t19 -32t5.5 -40.5q-3 -49 -41 -192q-5 -19 -9 -58.5t-9 -58.5q-52 -198 -123 -315q-51 -87 -92 -187q-51 -43 -122.5 -148t-108.5 -143q-19 -2 -47 -19.5t-48 -14.5q-31 -26 -41 -33 q-67 -22 -108.5 -33.5t-110.5 -23.5q-55 -10 -102 -10q-12 0 -23 1q-131 8 -209 73.5t-79 182.5zM47 1151q20 83 96 211q25 43 47.5 58.5t55.5 15.5t86 -4q17 -1 51.5 3t46.5 1q1 -1 0 -4t1 -7t7 -4q4 0 9.5 -2t16 -7t19.5 -9q-18 -95 -96 -305q-64 -9 -125 -10 q-5 -1 -11 -1q-55 0 -115 13q-66 15 -89 51z" />
<glyph unicode="k" horiz-adv-x="1107" d="M-4 289q6 39 12.5 64.5t24 74.5t22.5 64q9 15 18 46.5t13 41.5q18 52 18 57h5q29 62 87.5 245.5t108.5 264.5q2 41 22 85t51 96t44 85q7 18 18.5 58t20.5 59q8 18 26.5 47t30 54t14.5 52q35 -4 89.5 -24t91.5 -25q12 -12 16.5 -29t3 -30t-6 -39t-5.5 -39q-3 -24 -8 -73.5 t-10.5 -88t-12.5 -69.5q-8 -35 -34 -102t-35 -101q-7 -24 -22 -87.5t-30 -102t-41 -70.5q-1 -35 -23.5 -81t-27.5 -67q29 26 80 84.5t100 106t99 76.5q68 0 84 -11q13 -4 23 -24t18 -25q0 -135 -64 -227.5t-174 -130.5q-2 -25 -15 -87.5t-19 -104.5q-2 -15 -2 -30 q1 -26 7 -56q10 -46 45 -66q73 16 164 110.5t162 208.5t121.5 216t56.5 141q0 2 1 6t1 6q4 4 4 8q4 18 41 23h17q1 0 2 -2t2 -3q-12 -43 -48.5 -124t-94.5 -183t-124 -195t-144.5 -163t-147.5 -84q-19 -4 -36 -4q-42 -1 -74 25q-44 36 -58 99q-10 45 -10 95q0 20 2 40 q6 72 28 134q4 9 -4 14t-4 15q61 2 98.5 22t73.5 72q81 112 98 225q-41 -12 -77.5 -40.5t-65 -65t-54.5 -74t-58 -76.5t-64 -63q-70 -120 -166 -389q-21 -1 -48.5 -8.5t-47.5 -14.5t-42.5 -6t-39.5 14q-14 -4 -34 -2.5t-36 -1.5q-2 4 -6 8t-8 6t-10 5.5t-9 5.5q-1 5 1 6.5 t8.5 2.5t7.5 1q-25 22 -35 51q-7 19 -7 42q-1 13 1 26z" />
<glyph unicode="l" horiz-adv-x="593" d="M-188 180q-1 18 -1 36q0 35 5 69q6 6 6 18q-1 7 -1 16q0 19 4 51q3 21 3 36q0 18 -4 28q10 0 10 -18q76 221 109.5 315t103 280.5t132 326t128.5 261.5q13 24 24.5 40t17.5 21.5t26 22.5q40 -9 74.5 -21t69 -31t57.5 -43q24 -24 40 -56q17 -34 17 -74q0 -37 -12 -84 q-38 -48 -75.5 -108.5t-61.5 -104t-61 -129.5t-49.5 -116t-54 -137.5t-47.5 -123.5q-29 -48 -68.5 -157.5t-64.5 -155.5q1 -8 -3 -62q-2 -25 -2 -49q0 -25 2 -47q4 -42 20 -55q2 0 6 -4q3 1 8 2t8 2q63 21 139.5 104.5t139.5 188t111.5 202.5t70.5 162q7 24 12 48v14 q4 4 4 8q4 18 41 23h15q1 0 6 -5q-18 -83 -113.5 -279t-197.5 -327q-14 -24 -21 -41q-26 -24 -64 -68t-67.5 -75t-69.5 -63t-89 -49.5t-107 -18.5q-4 7 2 8t17.5 0.5t23.5 1.5q-12 10 -32.5 8t-31.5 -14q-5 1 -6.5 3t-1 4t2 5.5t1.5 7.5q-56 2 -91 31.5t-45.5 73.5t-14.5 98 z" />
<glyph unicode="m" horiz-adv-x="1409" d="M-156 238q-1 9 0 17q0 27 6 53q8 34 18.5 66t23.5 65q4 9 6 14q6 17 20.5 41t18.5 34q3 8 4.5 21.5t5.5 21t16 11.5q-7 7 -7.5 19t5 27t12.5 30t16 33.5t13 31.5q28 55 28 98q0 10 -1 19q75 200 100 260q22 -18 60.5 -31.5t72 -21t65.5 -25.5t46 -45q-10 -61 -28 -113.5 t-46.5 -116.5t-40.5 -96q36 33 114 147.5t134 157.5q70 0 92 -18q2 -25 2 -50q0 -30 -3 -58q-6 -52 -23 -131t-21 -103q16 9 28 25.5t23 40t19 34.5q37 49 79 88q77 144 189 197q24 -13 92 -26t94 -37q4 -3 7 -7.5t6 -11.5t5 -12.5t4.5 -16t4 -15.5t4.5 -18t4 -18 q0 -1 2.5 -11.5t3 -14.5t3 -15t3 -16.5t2 -16.5t1.5 -18.5v-18t-1 -18.5t-3 -17.5t-5 -17.5q-50 -84 -107 -258.5t-75 -218.5q-2 -2 -2 -6q11 -3 21 3t14 13l327 404q6 11 25 39q15 22 35 52l30 45t23.5 35.5t19.5 31t13.5 24.5t11 22.5t6.5 18.5t4 19q2 4 2 14q4 4 4 8 q4 15 43 21q4 2 15 2l4 -4q-28 -98 -157 -321.5t-255 -346.5l-16 -16q-27 -60 -49 -84q-3 -3 -15.5 -12t-19.5 -17q-21 -24 -66.5 -48t-62.5 -36q-32 -2 -62 1.5t-50 7.5t-47.5 16.5t-38.5 18.5t-40 23t-37 21q6 67 31.5 150t51 140.5t67.5 145.5t57 123q6 13 21 43.5 t22 45.5t17 39t16 45.5t10 43.5q1 8 -5 4q-9 -6 -9 -2v2q0 8 3.5 9.5t7 -0.5t5.5 0t0 12q-26 -4 -63 -51t-55 -58q-39 -60 -121 -175.5t-121 -174.5q-4 -11 2.5 -18t5.5 -13q-4 -5 -10.5 -16t-12.5 -19.5t-14 -13.5q-22 -5 -40 9.5t-27 15.5q-13 48 -13 104t7 98t18 106 t16 107q-50 -59 -76.5 -92t-69 -91t-66.5 -104.5t-50.5 -108.5t-40.5 -129.5t-18 -141.5q-83 -15 -151 -15q-88 0 -150 25q-15 30 -17 66z" />
<glyph unicode="n" horiz-adv-x="763" d="M-238 129q-2 10 -2 23q0 43 19 124q5 21 10 28.5t9 6.5t9.5 6.5t10.5 28.5q28 53 28 122v13q8 19 29.5 52t28.5 45q17 30 49 129q6 6 10 14q3 6 0 14q1 2 3 5t3 5q2 9 -2 17q5 13 30 49t30 53q1 2 3.5 29t18.5 35q11 2 27.5 -4.5t27.5 -13t22.5 -8t14.5 10.5q3 6 6 0 q4 -1 3.5 -5.5t-5.5 -4.5q39 -29 160 -84q-1 -3 -4.5 -11t-4 -10t-2 -7.5t-0.5 -7t3 -5.5t6 -6.5t10 -5.5q-17 -39 -59.5 -130t-63.5 -140q31 37 134 127q11 10 34 33.5t37 37t34 28t36 19.5t31 5q26 0 51 -14q38 -22 43 -60q1 -4 1 -8q-1 -38 -41 -116q-44 -86 -52 -112 q-2 -8 -3 -23t-3 -22v1l-40 -124q-10 -30 -22 -67q19 -8 28.5 -9.5t18 9t13 21.5t12.5 27t16 25q36 41 185.5 309.5t168.5 295.5q13 -17 13 -40q0 -34 -29 -81q-51 -58 -103.5 -153.5t-92.5 -178t-86 -158.5t-104 -116q-47 -32 -101 -31q-14 0 -27 2q-23 3 -34 9t-11.5 18.5 t3 24.5t10.5 35.5t9 43.5q8 78 78.5 225.5t79.5 182.5q-12 -1 -23.5 -6t-23 -15t-18.5 -17t-20 -21t-17 -19q-147 -165 -248 -316q-23 -53 -34 -104.5t-23 -87.5q5 -7 6.5 -15.5t7.5 -15.5q-50 -15 -100 -20q-23 -2 -45 -2q-27 0 -53 3q-48 6 -81.5 32t-42.5 71z" />
<glyph unicode="o" horiz-adv-x="626" d="M-104 513q2 48 15 149q2 17 3 26q1 1 7.5 15t17.5 34t27.5 45t40.5 49.5t52 45.5t66.5 35t79.5 16q25 1 57 -4.5t51 -11t61.5 -20.5t51.5 -18q24 -33 34 -74.5t15 -103.5q32 0 74 27.5t74.5 61t64 64.5t43.5 36q2 -1 7 -3t7 -3q-2 0 -2 -7q1 -3 3.5 -11.5t2 -11 t-3.5 -11.5q-52 -77 -125.5 -136t-144.5 -59q-12 -26 -26 -92.5t-29 -99.5q-3 -7 -7.5 -23t-6.5 -20q-2 -3 -16.5 -13t-18.5 -18q-25 -44 -58.5 -77t-60.5 -48.5t-55 -24.5t-39.5 -10.5t-18.5 -1.5l-53 10q1 0 4 1q10 0 -3 3q-11 2 -36 7q-67 12 -104.5 48.5t-45.5 108.5 q-6 55 -6 96q0 13 1 24zM174 576q-13 -56 -13 -112q0 -58 13 -116q8 -37 45 -15q54 32 105 141q39 84 61 188q-27 6 -46.5 19.5t-47 41.5t-33.5 33q-58 -68 -84 -180zM303 809q37 -47 78 -64q-6 53 -24.5 76.5t-53.5 -12.5z" />
<glyph unicode="p" horiz-adv-x="856" d="M-410 -543q5 13 10.5 39.5t12.5 46.5t18 33q22 157 90 303q10 22 37.5 81.5t38.5 86.5q21 50 52.5 154.5t52.5 154.5q3 8 14 22.5t14 22.5q13 31 32.5 102t37.5 107q16 22 16 45l-2 2q15 50 56.5 133t56.5 128q21 4 42 4q88 0 187 -68q6 -20 6 -45v-21 q-4 -37 -11.5 -60.5t-17.5 -61.5t-14 -68q24 23 65 75t70.5 87.5t78.5 63.5q44 24 92 24h10q76 -3 119 -49q11 -46 11 -96q0 -10 -1 -20q-2 -61 -27 -120t-65 -84q-26 -78 -74.5 -137t-118.5 -113q-20 -2 -38 -2q-114 0 -185 80q-24 -22 -50 -88.5t-46 -87.5q-1 6 3.5 12 t2.5 13q-20 -36 -33 -133q-5 -6 -9.5 -13t-7.5 -12.5t-5.5 -14.5t-4 -14t-3 -15.5l-2 -14t-2 -15.5t-1.5 -14q-29 -54 -77.5 -193t-69.5 -182q3 -15 -6 -38.5t-6 -43.5q0 -16 -23 -16q5 -7 3.5 -18.5t-3 -18.5t-8.5 -17.5t-11.5 -17t-12 -16.5t-11.5 -15q-40 -12 -95 -14h-8 q-50 0 -100 18q-53 18 -67 50q-4 10 -3.5 36.5t-9.5 32.5zM289 391q12 -3 22.5 -13.5t16.5 -20t21 -15t38 -0.5q39 8 92.5 87.5t85.5 162.5q25 63 37 178q-6 -1 -12 5.5t-17 4.5q-3 -3 -36 -36.5t-38.5 -39.5t-34 -36t-37 -41.5t-31.5 -39.5t-33 -46t-26 -44.5t-27 -52 t-21 -53.5zM297 367q-8 -11 3.5 -15.5t14.5 5.5q1 2 0 5q0 5 -18 5z" />
<glyph unicode="q" horiz-adv-x="1042" d="M0 557q8 1 7.5 14.5t6.5 16.5q-5 12 -1.5 24t10.5 19q0 1 -3.5 1.5t-3.5 2.5q6 55 35 84q0 -2 -1 -4t-1 -4q3 -1 3 2t3 2q2 4 -1.5 5.5t-2.5 4.5q1 1 1 2q1 3 5 2q6 19 15 23q27 56 82 104h8q3 5 10.5 10.5t9.5 7.5q9 0 11 -2q5 10 6 11q47 14 79 14q41 0 56 -23 q7 4 22.5 -3t24.5 -3q3 -4 25.5 -7t42.5 -5.5t20 -5.5q2 0 7.5 0.5t7.5 1t5 2.5t4 4.5t1 7.5q5 3 17 13t22.5 15t21.5 1q29 6 56 -6t58 -37t48 -33q15 -9 27 -21t27.5 -32.5t21.5 -26.5q-1 -4 -2 -8.5t-2 -7t-5 -4.5q1 -3 1 -8t0.5 -8t2 -6.5t5.5 -6.5q-1 -7 -9 -26.5 t-6 -28.5q-2 1 -4 -0.5t-4 -1.5q0 -19 -6 -23q14 -18 14 -36q0 -19 -16 -37q0 -2 6 -2q-4 -8 -14.5 -42.5t-26.5 -50.5q0 -4 3 -2t3 0q-11 -27 -20.5 -77.5t-14.5 -67.5q-2 -5 -8 -14.5t-8 -14.5q-25 -58 -53 -182q2 3 7.5 8.5t8.5 9t6.5 9t5.5 11.5t2 13q3 3 9 6l8 4 q2 0 2 2.5t-0.5 5.5t0.5 5q7 1 16 24q1 0 2 -1t2 -1q11 13 27 34t23 30h-3q2 9 9.5 21t15.5 16q2 26 45 57q-3 -2 -4 0q-2 7 6 12q3 2 6 0q-1 7 5 15t14 8q2 6 2 14q8 5 26.5 31.5t32.5 30.5q1 1 2 6q2 6 4 6q0 1 6.5 9.5t8.5 14.5q22 18 43.5 43t46 56.5t39.5 48.5 q1 1 3.5 7t2.5 9q15 6 18 23q2 0 3.5 -1t2.5 -1q0 9 15 25t12 28q15 12 25 35q3 0 11 7t13 9q3 -3 -1 -5q-2 0 -3 -1q26 11 51 43q8 0 17 6q-4 1 -2 7t6 12q10 2 19.5 1t19.5 1.5t14 11.5q4 -1 13 -3t14.5 -3t12 -4t9.5 -6q-33 -48 -88 -97q-21 -46 -79.5 -115.5 t-80.5 -111.5q-11 -3 -14 -18q-10 -13 -35 -40t-35 -40q-3 -4 -7 -12t-8 -13.5t-9 -9.5q-3 -11 -17.5 -28t-15.5 -32q-13 -18 -73 -101.5t-99 -129.5q-3 -29 -31 -57q0 -3 3.5 -2t4.5 -2q-4 0 -7 -2t-5 -3t-4.5 -4.5t-3.5 -5t-3 -6.5t-3 -6q-36 -58 -60 -88 q-25 -80 -59 -119q-6 -22 -28 -56t-29 -48q-2 0 -4 -1.5t-4 -0.5q0 -8 -5 -33q5 7 5 -1q1 -12 2 -13q-9 -7 -22.5 -34t-25.5 -32q-3 -22 -20 -33q-5 -14 0 -16q-7 -8 -25.5 -12t-31.5 -10.5t-11 -20.5q-5 -3 -10 2q-60 -34 -112 -47q-3 0 -5 -3t-4.5 -7t-3.5 -5 q-37 4 -51 -8q-6 -18 -8 -20q-6 0 -6 12q-14 3 -42 -1.5t-40 -2.5q-17 2 -42 17t-36 18q0 4 2 7t2 7q-2 0 -4 -1t-2 1q-2 -1 -1.5 -4t-2.5 -4q0 2 -3 5t-3 5q8 19 8 39q18 28 25 94.5t18 93.5q6 18 21 52t20 51q4 12 16.5 45t20.5 58t12 50q10 10 14 41q9 7 9.5 23.5 t13.5 21.5q0 2 -2.5 5.5t-1.5 5.5q10 14 12 16q1 2 -0.5 5t2.5 5q0 4 4 4q2 17 15 49t16 44q25 90 45 122q-4 8 -4 13q7 1 12 13t0 15q7 21 29 72t31 80q4 -7 10 2l-6 2q0 5 4.5 19t5.5 22q3 0 5 3.5t5 2.5q0 2 -2 2q-3 -1 -6 0q4 9 18 27q1 3 -2 1t-2 1q0 11 11 18 q2 13 17 44.5t9 45.5q-8 -5 -22.5 -19t-22.5 -19q-1 -2 -0.5 -4.5t-1.5 -4.5q-11 -5 -16.5 -22.5t-12.5 -22.5q-4 -4 -4 2q0 -9 -9 -18t-21 -12q-1 -3 0.5 -5.5t1.5 -5.5q-8 -6 -26.5 -26.5t-29.5 -24.5q-2 -2 -5 -9t-11 -7q-1 -1 -2.5 -5t-3.5 -5q-2 0 -2 6 q-7 -14 -17.5 -23.5t-36 -23.5t-26.5 -15q-7 1 -34 6.5t-38.5 8.5t-29 10.5t-29.5 17.5q0 4 -2 9.5t-2 9.5q-9 13 -13 42t-12 42q0 10 2 10q0 3 -3 2q-1 0 -2 0.5t-1 3.5zM23 637q6 -1 5 5q0 1 -1 3v2l-4 2q2 -3 0.5 -6t-0.5 -6zM126.5 536q-1.5 -13 1 -24t9.5 -20 q27 19 50 42.5t57 64t43 50.5q6 0 8 2v13q16 5 30.5 29t18.5 28q1 0 2 -1t2 -1q8 8 27 24q45 39 45 52q0 11 -31 11q-16 0 -39 -3q-1 -4 2 -7.5t2 -7.5q-18 2 -43.5 -1.5t-36.5 -2.5q-10 -5 -28.5 -22.5t-34.5 -20.5q-1 -12 -15 -22.5t-14 -24.5q-7 -2 -13 -14.5t-13 -15.5 q-2 -12 -10.5 -30.5t-4.5 -33.5q-1 -4 -5.5 -19.5t-6 -23.5t-3 -21zM1116 723q3 1 3.5 -2.5t2.5 0.5q0 1 -1 2t-1 2q1 1 3 2q5 3 1 4q0 -2 -3 -3t-3 -3q2 0 1 -1t-3 -1z" />
<glyph unicode="r" horiz-adv-x="856" d="M7 66q5 16 15 39t13 32q28 77 94 207t98 184q12 21 34 54t32 50.5t8 22.5q-7 24 -53 33.5t-93 20t-55 36.5q-20 61 -20 130q0 55 12 115q28 136 96 188q19 -9 65 -21t75.5 -28t42.5 -44q2 -46 -34 -130q-28 -66 -28 -118q0 -15 2 -28q22 -28 65 -42t87.5 -17.5t86.5 -8.5 t68.5 -24t26.5 -55q0 -18 -8 -46q-2 -6 -61 -107.5t-119.5 -211t-100.5 -213.5q-25 -65 -25 -97q0 -20 9 -28q34 38 90.5 87.5t109 97t112.5 111t121.5 155.5t115.5 204q-1 7 -1 15q0 29 15 67q19 48 21 56q15 -3 30 -15q2 0 4 -2q4 -12 7 -24q15 -45 12 -60 q-30 -45 -76 -205q-3 -9 -14.5 -30t-14.5 -33q-11 -34 -103 -124t-205.5 -198t-155.5 -165q-28 -38 -98 -38t-139 26t-121 68q-50 40 -50 77q0 15 7 37z" />
<glyph unicode="s" horiz-adv-x="714" d="M-286 -227v18q0 43 10 76q2 8 17 39.5t9 48.5q14 -12 14 6q0 7 -2 14q30 28 73 79t73.5 86t79 71t102.5 53q-4 50 -24 114q-21 64 -33 126q-6 31 -6 63.5t6 65.5q-9 0 -13 -2q2 9 3 27t2 22q0 46 -5 57q-3 22 -3 44q0 71 28 138q36 87 96 152q29 4 52.5 -5t47.5 -26.5 t40 -23.5q-12 -16 -8 -22t16 -19.5t14 -26.5q2 -14 -6 -53t-8 -59q5 -163 26 -228q4 -11 15.5 -35t19 -48t8.5 -50q63 18 149.5 77.5t158.5 123t151.5 129t122.5 88.5q4 -6 4 -29q-1 -15 -52.5 -72t-128.5 -128t-183 -147t-199 -120q5 -45 23 -119q17 -76 28 -128 q9 -41 9 -92q0 -14 -1 -29q-3 -69 -30 -127q-2 -5 -11.5 -15.5t-11.5 -15.5q-6 -16 -6 -45t-6 -52t-29 -40q1 -27 -11 -52t-24 -38t-40 -37t-35 -31q-100 -40 -208 -40q-1 0 -2 -1q-107 0 -194 47q-16 9 -45 38t-51 36l4 39q-24 23 -26 78zM-156 -276q23 -3 47 5t34.5 14.5 t45.5 29.5q3 6 18 38t19 41t17 38t17.5 42.5t14.5 41t14 46.5t9.5 45.5t8 52.5t3.5 54q-2 0 -6 2.5t-8 1.5q-52 -40 -95.5 -84.5t-83 -103t-55.5 -126.5q-8 -35 -7 -70q0 -34 7 -68z" />
<glyph unicode="t" horiz-adv-x="716" d="M-293 1163h56h61t56.5 0.5t60.5 1.5t55.5 3t60 5.5t54 8t55.5 10.5q24 76 90 227t82 191q4 13 11.5 42.5t16 48t23.5 32.5q49 -6 89 -16.5t79 -28.5q39 -20 60 -52q18 -28 18 -64v-11q-3 -43 -56.5 -158t-52.5 -180q31 -4 74 -4q42 1 80 3q9 1 17 0q28 0 55 -6 q35 -8 53 -28q9 -3 29.5 3t23.5 -3q-24 -26 -68 -38q-38 -10 -78 -10h-14q-48 2 -101 2q-6 0 -12 1q-46 0 -83 -4q-83 -239 -117 -482q-9 -55 -27 -114q-14 -42 -40 -112.5t-45.5 -128t-32.5 -112.5q8 4 15 9.5t15.5 15t13 14.5t14.5 18t13 17q33 38 93.5 131.5t101.5 139.5 q45 51 280 362q12 -1 16.5 -8.5t8.5 -22.5q2 1 27.5 12t42.5 13q-39 -79 -206 -310.5t-181 -252.5q-104 -156 -281 -330q-84 -84 -187 -84h-16q-54 3 -115 32.5t-75 65.5q-12 23 -10 60.5t9 64.5t16 66t11 65q14 -14 4.5 -60t-6.5 -58q10 28 23 86.5t20 80.5q-6 4 -11 -3 t-10 -19t-9 -16q48 210 131 333q14 23 18 88h2q-2 9 10.5 19.5t12.5 25.5q3 6 0 8t-7.5 1.5t-8.5 0.5t-3 5q5 10 17 60.5t34 62.5q-1 5 -1 10q0 39 32 113q36 82 41 98h-32q-55 0 -155 -4q-66 -3 -114 -3t-78 3q-5 6 -16 18.5t-19 23t-14 21.5z" />
<glyph unicode="u" horiz-adv-x="802" d="M-44 620v7q0 31 8 61q10 34 23 65.5t32.5 64.5t36 58.5t36 54.5t29.5 46q56 -18 78 -49q-15 -29 -46.5 -81.5t-50 -86.5t-32.5 -85q-12 -42 -11 -83v-17q3 0 13 -3.5t18.5 -3t18.5 6.5q6 10 10 22t8 21q30 18 74 69t71 69q8 24 38 65.5t38 73.5q15 8 28.5 20.5t29.5 31 t24 26.5q51 -2 103.5 -21.5t56.5 -52.5q1 -13 -13 -36.5t-18 -33.5t-8 -33.5t-8 -33.5q-13 -32 -21 -70q-8 -39 -41 -117.5t-41 -117.5q-5 -25 -6 -74t-6 -74q27 -2 51 21.5t37 27.5q31 50 159.5 231t155.5 222q6 10 24.5 39t27.5 45q3 -11 17.5 -13t20.5 -4t-1 -28 q-31 -77 -106.5 -188.5t-128 -177.5t-62.5 -76q-13 -15 -65.5 -76.5t-78.5 -95.5q-39 -15 -69 -64q-45 -25 -120.5 -25t-105.5 35q6 14 -4.5 38t-11.5 36q-2 22 -2 45q0 51 9 103q13 78 42 122q-3 5 -4.5 8.5t-1.5 9v7.5t1.5 11t2.5 13q-18 -38 -70 -61q-37 -17 -76 -17 q-15 0 -29 3q-54 9 -71 55q-12 31 -13 65z" />
<glyph unicode="v" horiz-adv-x="606" d="M-127 176q19 55 28.5 186t30.5 197q-2 0 -4.5 -1t-3.5 -1q4 13 7 36.5t6 33.5q3 16 10.5 31t20 34t16.5 27q23 41 90 182q43 -11 55 -33q30 10 56 -3t32 -40q-120 -229 -123 -614l4 -4q-2 -5 -7 -20.5t-7 -24.5q0 -4 -2 -6h2q24 -3 33 16l157 254q3 5 11.5 18.5 t11.5 20.5q78 128 125 242l-16 6q-27 5 -47 18.5t-46.5 41.5t-33.5 34q-2 -2 -5.5 -6t-5.5 -6q4 70 33 106q11 12 27.5 18.5t39.5 11.5t33 9q7 -3 22.5 -8t22.5 -8q21 -32 29 -62q12 -38 19 -100q0 -10 2 -14q32 0 67.5 20.5t60.5 45t50 48.5t37 29q8 -4 14 -4q-2 -2 -2 -6 t3.5 -19t-1.5 -16q-52 -75 -104.5 -113.5t-124.5 -38.5q-4 -4 -27 2q-148 -408 -393 -655q-3 -3 -12.5 -8.5t-12.5 -7.5q-22 5 -61.5 18t-42.5 14q-7 12 -18 36.5t-22 37.5t-30 21q-1 6 6.5 10t3.5 14q-2 6 -5 -0.5t-9 0.5zM324 860q33 -44 77 -63q-6 53 -24 76t-53 -13z " />
<glyph unicode="w" horiz-adv-x="1048" d="M-135 348q1 -1 2 -3l1.5 -3t2 -2.5t3.5 -1.5h5q50 246 109 369q-10 -6 -20.5 -25.5t-22.5 -51.5t-17 -42q7 46 46 130t49 122q-2 6 -6 -2q-7 -13 -15 -9q4 12 20.5 34.5t20.5 39.5q19 0 47 12.5t47 12.5q29 -10 81 -39t81 -39q-12 -45 -52 -123t-52 -129q0 -17 -17 -14 q-1 -7 5 -13t3 -16q-51 -112 -82 -287q7 5 13.5 10.5t13.5 13t12 12.5t12.5 14.5t10.5 13.5t11 15.5t10 14t10.5 15.5t9.5 14q39 58 124 205.5t138 218.5q1 5 23 49q8 -1 15 -1q29 0 50 16q4 -4 16.5 -10t16.5 -11q-5 -29 -23 -100.5t-29 -121.5q-8 -38 -8 -79v-27 q4 -58 31 -90q-14 3 -16 -4q19 -3 34.5 11t31.5 39.5t24 33.5q-1 5 -1 11q0 29 34 77q2 14 19.5 109.5t21.5 146.5q2 9 -4.5 19.5t-2.5 23.5q15 7 34.5 6.5t28 -2t15.5 6.5q17 -5 40.5 -7.5t36.5 -6.5t20 -15q13 -20 13 -55v-9q-2 -41 -12 -80q-6 -26 -6 -51q0 -12 2 -23 q4 -35 31 -48q60 34 112.5 107t88.5 157q50 4 65 4q-34 -87 -89 -177.5t-111 -129.5q-23 -15 -55 -23.5t-50 2.5q-3 -3 -6 -7q-5 -5 -14 -1q-6 2 -10 4q-5 -11 -12 -23.5t-13 -22t-16.5 -23.5t-16 -21t-19 -22t-17.5 -20t-19 -21t-18 -19q-1 -1 -7.5 -8t-8 -8.5l-7.5 -7.5 t-8 -7.5t-7.5 -6.5t-9 -6.5t-9 -4.5t-10.5 -4.5t-11 -3t-13 -2.5q-10 -1 -20 -1q-118 0 -166 179q1 4 7 14.5t5 13t-4 15.5q-24 -16 -52.5 -64t-45.5 -63q-21 -60 -58.5 -107.5t-98.5 -103.5t-83 -80q-54 -23 -96 -23q-34 0 -60 16q-58 34 -75 120q8 9 2.5 50.5t-4.5 53.5z M-123 317q-4 -32 6 -38q-1 4 2 15.5t2 18t-10 4.5z" />
<glyph unicode="x" horiz-adv-x="614" d="M-240 119q26 33 127 33q6 6 20.5 12t23 12.5t6.5 16.5q14 -7 23.5 5.5t16.5 25.5t15 7q2 7 -10 11q17 5 38.5 25t51 54t43.5 48q-2 9 -11 0.5t-10 -0.5q-2 8 7 10.5t8 9.5q3 -1 4 -3.5t1 -6.5t1 -6q8 -1 13.5 7t10.5 9q-8 58 -39.5 189.5t-40.5 203.5q-1 3 -18 25v8 q0 45 -31 59q3 14 1 21q0 2 -1 4q23 -1 43 -1q15 0 28.5 0.5t27.5 0.5q20 0 43 -1q40 -2 75 -9q10 -29 32 -74t35.5 -84t16.5 -82q1 -1 6.5 -5t8 -3t4.5 8q8 -3 8 -7t-3.5 -7.5t-6.5 -9.5t-2 -11q12 14 14.5 19t-0.5 26q6 -6 14 -6v25h17q37 61 128 182.5t132 192.5 q8 3 25 12t28 12q-1 -22 -11 -44t-32 -56.5t-31 -52.5q-10 -19 -27 -40t-39 -45.5t-32 -37.5q-25 -30 -55 -94.5t-47 -88.5q-7 -9 -36 -37t-38 -51q16 -44 45 -140t55.5 -167.5t57.5 -128.5q21 1 42.5 -15t30.5 -40q-7 -6 -19.5 2t-15.5 8q3 -8 10.5 -20.5t11 -19.5 t6.5 -21.5t-3 -26.5q-23 -6 -54.5 -22.5t-53 -28t-59.5 -18.5q-13 -2 -27 -2q-24 0 -48 8q-90 174 -141 442q-25 -14 -53 -45.5t-49.5 -61.5t-51.5 -62t-59 -48q-31 -17 -67.5 -20.5t-61 0.5t-72.5 16z" />
<glyph unicode="y" horiz-adv-x="745" d="M-598 -342q19 22 14 50t0 38q27 14 52 11.5t43.5 -15t42 -25t47.5 -19t59 2.5q-3 5 -13 6t-20.5 -0.5t-19.5 0.5q159 4 221 33q10 2 14 24q114 68 206.5 184.5t139.5 254.5q13 5 23.5 33t21.5 36q12 51 52.5 153t50.5 171q-14 -7 -58 -53.5t-77 -55.5q-21 -2 -39 -2 q-36 0 -63 7q-41 12 -58.5 37.5t-22.5 58.5q-2 12 -2 25q0 24 6 51q10 43 24 83.5t36.5 84t41.5 76t38 61.5q18 7 37 7q24 0 51 -11q5 -17 -2 -34t-22.5 -37.5t-20.5 -31.5q-68 -146 -68 -235q0 -56 27 -90q24 7 30.5 19t8.5 36q9 2 8 -13v-4q27 15 18 35q4 -4 7.5 -4t5.5 1 t7 4.5t7 4.5q16 20 47.5 55t56 66.5t41.5 65.5q2 28 17.5 80.5t30.5 60.5q39 21 83 21q7 0 14 -1q51 -4 93.5 -33.5t46.5 -68.5q1 -15 1 -32q0 -54 -14 -135q-19 -106 -40 -148q-13 -49 -27.5 -153t-34.5 -156q-11 -30 -41 -78.5t-38 -65.5q-6 -11 -12.5 -29.5t-12.5 -29.5 q-140 -235 -244 -314q-66 -51 -192 -100t-226 -61q-36 -5 -74 -5q-49 0 -101 9q-93 15 -146 45q-3 1 -4 4t-1.5 6t-1 5t-3.5 0.5t-9 -7.5q1 4 -1 8.5t-6.5 11.5t-6.5 11q-8 0 -21 6.5t-28 3.5z" />
<glyph unicode="z" horiz-adv-x="968" d="M-193 -309q-2 30 1.5 57t17.5 55.5t22 42.5t32.5 48.5t29.5 42.5q118 176 334 294q-7 38 -23.5 69.5t-46 59t-50.5 44t-63 44t-59 39.5q2 6 6.5 12.5t5 8.5t-1.5 12q30 10 39 35q25 1 55 12.5t50 26.5q92 70 227 291q28 47 38 77q6 18 6 39q0 15 -3 31 q-85 -11 -141 -63.5t-113 -147.5q-3 -1 -13 -3.5t-15 -7t-5 -13.5q-14 3 -29.5 20.5t-31.5 18.5q3 14 25 34.5t16 42.5q8 -2 15.5 4t10.5 7q0 2 -6.5 6.5t-1.5 13.5q30 1 52 22.5t22 45.5q23 9 65.5 31.5t77.5 36t72 16.5q14 1 27 1q54 0 106 -16q64 -20 96 -63 q25 -33 27 -80v-13q0 -41 -13 -84q-15 -50 -37.5 -96t-49.5 -86q-8 -6 -31 -6q-5 -4 -5.5 -8.5t1.5 -8.5t0 -11q-66 -42 -154 -133q17 -18 57 -42t54 -36q75 58 262.5 228.5t214.5 217.5q14 2 48 20q20 11 39 10q13 0 26 -5q-2 -27 -4.5 -33.5t-7 -2.5t-11 9.5t-20.5 0 t-31 -27.5q-23 -29 -73 -105.5t-83 -111.5q-12 -12 -41.5 -32t-42.5 -31q-16 -15 -53 -50.5t-56.5 -53t-52 -41.5t-63.5 -41q3 -7 14 -38.5t15.5 -44.5t11.5 -43t8.5 -51t0 -51t-8.5 -59q-5 -22 -10.5 -70.5t-10.5 -70.5q-12 -46 -51 -120t-45 -87q-10 -9 -52.5 -54 t-72.5 -65q-16 -10 -47.5 -34.5t-51.5 -37.5t-55 -23q-21 -6 -44 -5q-14 0 -29 2q-9 2 -28.5 14t-30.5 16q-7 3 -34.5 14t-39.5 16t-36 16t-38 18.5t-30.5 18t-26.5 20.5q-3 3 -12 15.5t-18.5 20t-23.5 9.5zM-61 -260q6 -1 11 -1q22 0 50 18q34 23 41 46q15 6 29 14.5t24 15 t22.5 20.5t18 19.5t18.5 25t15.5 23.5t16.5 27.5t16 26.5q43 71 43 146v16q0 6 -8 6q-54 -35 -89.5 -61t-82.5 -69t-78 -87q-62 -89 -62 -142q0 -26 15 -44z" />
<glyph unicode="{" horiz-adv-x="964" d="M0 795q1 11 12.5 8t18.5 2q0 10 -15.5 15.5t-15.5 15.5q19 12 57 13t47 3q36 9 63.5 31t56.5 57.5t44 48.5q18 60 70 127v23q17 17 28.5 53.5t25.5 68.5t38 44q3 41 24 78.5t46 71.5t32 61q20 5 34.5 24t29.5 37.5t37 21.5q2 8 -7 11.5t-8 11.5q22 5 54.5 23.5t48.5 23.5 q3 7 -4 9.5t-4 9.5q18 -6 41.5 2.5t23.5 19.5q9 8 20 -7t19 -15q9 5 22 2.5t19 -3t17 -7t15.5 -10t14 -11t13.5 -10.5q-8 -26 6 -54q-11 -2 -24 1.5t-21 2.5q-53 -17 -89.5 -56t-56.5 -89.5t-36 -102.5t-39.5 -107t-55.5 -89q3 -5 1 -14.5t-2 -14t-4 -13.5t-5.5 -12.5 t-6.5 -12t-7 -12t-7.5 -11t-7.5 -10.5q-30 -107 -99 -174.5t-169 -67.5q1 -10 18 -16.5t21 -10.5q26 -42 36.5 -77.5t6.5 -69t-12 -59t-24.5 -69t-25.5 -77.5q-33 -43 -61 -102t-45.5 -125.5t-11 -134.5t42.5 -117q11 -2 21 3t15 5q2 -17 -10 -33.5t-12 -17.5 q-35 -3 -64 6.5t-43.5 21t-37.5 33.5t-35 31q-2 8 -10.5 35.5t-11.5 38t-9.5 35t-8.5 39.5t-4 36.5t-1 40.5t4 39q12 58 34.5 106.5t43.5 77t41 78t28 111.5q-12 38 -43 63.5t-74 48.5t-63 42z" />
<glyph unicode="|" horiz-adv-x="223" d="M0 33q4 7 6 16.5t2.5 15.5t0 18.5t-0.5 16.5q-2 12 -2 39q0 29 -6 41v2q9 188 20.5 613.5t12.5 662.5h-4q0 105 4 135q99 -6 129 -22q39 -21 4 -70l12 -18q-7 -3 -10 -10q3 -107 1.5 -595t-5.5 -733q34 -24 2 -67l12 -19l-10 -10q-4 -8 -8 -12q0 -4 -4 -8q-11 2 -117 6 h-6q-23 0 -33 -2z" />
<glyph unicode="}" horiz-adv-x="964" d="M0 1595q11 30 4 54q4 3 13.5 10.5t14 11t15 10t17 7.5t19 3t21.5 -3q8 0 19.5 15t21.5 7q0 -11 23 -19.5t43 -2.5q3 -7 -4 -9.5t-4 -9.5q15 -5 47 -23.5t53 -23.5q2 -8 -7 -11.5t-7 -11.5q18 -3 32 -15t21 -25t20 -26t29 -17q6 -27 31 -61t46.5 -71.5t23.5 -78.5 q24 -12 38 -44t25.5 -68.5t28.5 -53.5v-23q50 -65 71 -127q13 -12 42.5 -48.5t56.5 -58t63 -30.5q9 -2 48.5 -3t58.5 -13q0 -10 -16 -15.5t-15 -15.5q4 -4 9 -4t9.5 2t8 0.5t4.5 -8.5q-20 -18 -64 -41.5t-75 -49t-42 -63.5q7 -62 26.5 -111.5t40.5 -78t44 -77t35 -106.5 q4 -23 4.5 -47t-1.5 -43.5t-7.5 -45.5t-10 -42t-12.5 -44.5t-12 -41.5q-9 -6 -43.5 -39t-63.5 -45t-73 -8q-3 5 -10.5 13t-11.5 16.5t-1 21.5q4 0 14.5 -5t20.5 -3q36 49 43 117t-11 134.5t-45.5 125t-60.5 102.5q-10 37 -31 94t-28.5 84.5t0 74.5t39.5 99q4 5 21.5 11 t19.5 16q-102 0 -171.5 67.5t-97.5 174.5q-44 60 -38 100q-32 34 -56 89t-40 107t-36.5 102.5t-57 89.5t-89.5 56q-7 1 -20 -2.5t-23 -1.5z" />
<glyph unicode="~" horiz-adv-x="786" d="M-4 590q31 85 98 110q6 2 25 15h4q8 4 29.5 10.5t55 13t71 3t63.5 -20.5q11 -10 23.5 -19t29.5 -19l25.5 -15t31 -16.5t27.5 -14.5q66 -36 123 0q9 5 34.5 15t43 20.5t29.5 27.5q3 3 9.5 5.5t8.5 -0.5q4 -2 7 -6t5.5 -9.5t3.5 -7.5q4 -4 0 -12q-3 -7 -12.5 -27.5 t-14.5 -29.5t-14.5 -23.5t-21.5 -24t-27 -16.5q-34 -17 -41 -23q-34 -21 -75 -18q-2 0 -4.5 0.5t-4.5 1t-3.5 0t-2.5 -1.5q-74 -14 -160 43q-53 35 -106 51q-61 13 -111 -6q-14 -6 -52.5 -21t-59.5 -24q-20 -10 -31 4q-14 11 -6 35z" />
<glyph unicode="&#xa1;" horiz-adv-x="704" d="M-100 -137q3 27 6 42.5t15 30t32 15.5q15 31 54.5 87.5t55.5 92.5q6 42 32.5 108t33.5 99q5 2 11.5 9t11.5 9q14 52 66.5 151.5t64.5 160.5q3 14 6 55t11 71t26 54q4 38 21.5 107t19.5 114q1 1 11 4.5t9 11.5q1 8 0 8.5t-6 -2.5t-10 -1q12 13 25 19.5t31 3t27 -6 t33.5 -13t28.5 -12.5q1 -4 3 -40.5t13 -51.5q4 -4 7 -4t7.5 2t8.5 2q-7 -99 -61 -260q4 -31 -16.5 -88t-18.5 -82q-9 -6 -14.5 -35t-20.5 -32q-13 -92 -53 -140q-1 -34 -29 -88.5t-33 -70.5q-3 -11 -8.5 -36.5t-12 -41.5t-18.5 -27q4 -6 4 -27q-7 1 -9.5 0t-4.5 -4t-4 -4 q-11 -46 -46.5 -117t-45.5 -98q8 3 14 6t10.5 10t6 10t6.5 15t6 15q4 0 5.5 -1.5t0.5 -5t-2.5 -6.5t-4 -6.5t-3.5 -5.5q-35 -100 -82 -168q-36 2 -68 22t-52 44t-48 53t-53 43zM387 1368q5 29 14 41t18 11.5t21.5 11t22.5 38.5q5 14 13.5 45t18 53.5t25.5 39.5 q-2 16 5.5 35.5t6.5 33.5q5 -12 13.5 -13t22.5 5.5t18 7.5q21 -38 61 -49q20 -60 15 -115.5t-19 -86.5t-30.5 -82t-18.5 -101q-43 13 -65 20.5t-54.5 22.5t-53.5 35t-34 47z" />
<glyph unicode="&#xa2;" horiz-adv-x="964" d="M3 516.5q9 79.5 26 148t41 134.5q110 271 282 424q29 10 62 40t56.5 55t63.5 39t87 1q92 145 139 436q107 7 164 -41q-8 -23 -23.5 -80t-31 -93.5t-38.5 -61.5q-4 -45 -19 -82.5t-39 -78t-34 -63.5q-6 -7 -15 -7t-11 -1q51 -30 72.5 -100.5t5.5 -136.5 q-5 -21 -30.5 -68.5t-27.5 -52.5q-3 -8 -4 -22.5t-4 -18.5q-2 -4 -13.5 -10t-13.5 -9q-2 -4 0.5 -14t-0.5 -14q-19 -27 -50.5 -39.5t-63.5 -1.5q63 99 88 305q-60 -14 -104.5 -50t-92 -95t-72.5 -82q-19 -35 -34 -63.5t-33 -68t-30 -74t-23.5 -77.5t-17 -82.5t-5 -85.5 t7.5 -90q6 -6 16 -20t20 -22.5t26 -10.5q2 0 4 2t4 2q-2 6 -10 2t-13 2q2 7 13.5 5.5t13.5 -5.5q41 25 65.5 43t53.5 48t45 64q30 12 49.5 39t38.5 70q36 5 47 4q-3 -21 10 -27q-90 -215 -344 -335q0 -8 8.5 -18t6.5 -23q-42 -59 -93.5 -206t-87.5 -208q-7 -1 -15 2.5 t-15 1.5q-17 28 -14.5 67.5t12 69.5t19 72t7.5 74q3 1 7.5 9.5t11.5 8.5q-8 28 9 68t17 63q-13 8 -54.5 28.5t-59.5 39.5q-41 47 -56.5 119t-6.5 151.5zM97 418q6 -25 18 -45q-3 47 -15 92q-9 -22 -3 -47zM104 586q2 -6 1.5 -13t0.5 -14t5 -8l3 11q2 11 0.5 18t-10.5 6z" />
<glyph unicode="&#xa3;" horiz-adv-x="1101" d="M-133 45q-5 10 2 21q8 10 14 26l-2 2q12 9 35 21q24 12 43 37q5 7 19.5 26.5t21.5 30.5q13 26 27 61q1 2 3 5.5t3 5.5q13 13 24 43q3 9 13.5 25t13.5 22q4 8 4 14q4 21 25 64q4 8 7.5 25t4.5 20q2 8 6 24.5t6 24.5q10 24 8 30q-1 4 5 37q1 4 2 12t2 11q0 6 -7 9.5 t-12 0.5q-5 -5 -8 2q-9 7 -25 4q-35 -10 -45 -6q-2 1 -5 0t-7 -3l-6 -3q-14 -2 -41 -2q-2 0 -2 2q-1 4 -3.5 5.5t-4.5 1.5t-5.5 -0.5t-5.5 -0.5l-4 12t-4 15q4 0 4 2q2 0 2 4h-4q-10 -8 -10 4q0 4 -2 4q-5 2 -14 5t-13 5q-6 3 -14 11q-16 16 -18 20q-2 5 -4 15.5t-2 11.5 q-2 6 -9 20q10 4 33 8q56 10 72 11q18 2 57 2h47q56 4 84 8q14 0 17 12q11 54 20 86q3 12 10.5 33.5t10.5 32.5q2 5 10 28t14 35q2 6 8 17.5t8 17.5q32 68 35 74q9 18 13 22q9 16 28.5 50t28.5 51q24 38 35 45q3 3 9 8t9 8q16 12 19 18q6 9 21.5 19t19.5 14q12 12 14 21 q0 3 2 6.5t4.5 5t6.5 3.5t5 3q5 5 60 43q24 17 61 39q4 3 9.5 4t12 1t9.5 1q21 7 29 23q0 4 6 4q15 -5 18 -8q9 -9 35 -13q63 -4 96 -24q6 -4 31.5 -21.5t40.5 -25.5q1 -1 4.5 -5.5t5.5 -5.5q3 -1 10.5 -3t10.5 -3l20 -20q1 -2 6 -8t6 -7.5t5.5 -7.5t4.5 -8.5t3 -9t1.5 -9.5 t-1.5 -10q-2 -7 2 -20v-8q-4 -24 0 -72q0 -15 -6 -27q-3 -9 4 -14t0 -12q-25 -35 -27 -43q-4 -16 -20 -35q-15 -22 -29 -29l-14 -14q-8 -8 -31 -8q-18 2 -45 10q-6 3 -10 14q-3 3 -3 2q11 11 27 31q2 2 15.5 14.5t15.5 20.5q1 2 14 30t12 46q-1 9 2.5 29t2.5 30 q-3 42 -13 70q-6 14 -26 18q-5 1 -16.5 1t-16.5 1q-13 1 -49 -12q-42 -22 -66 -41q-24 -20 -69 -68q-24 -24 -29 -45q-5 -11 -8 -12q-21 -21 -27 -47q-1 -4 -10 -17q-16 -27 -17 -28q-3 -5 -8 -19q-28 -67 -33 -86q-4 -11 -30 -96q-2 -4 -2 -14q0 -9 -3 -17.5t-8.5 -18.5 t-7.5 -15q-2 -6 -2 -19h15q49 6 90 -2q4 0 13.5 -1t16.5 -0.5t13 3.5q3 2 7 2t9 -1t8 -1l4 8q15 -9 27 -6q2 1 17.5 6t23.5 6q13 2 33 -14q12 -12 18 -20h2q-2 -5 1.5 -16t0.5 -17q-4 -6 -4 -23q-2 -12 -20 -30q-9 -6 -15 -15q-8 -12 -37 -12q-2 0 -11.5 -2.5t-12.5 0.5 q0 3 -11.5 0.5t-13.5 -2.5q-4 0 -12 4q-3 0 -10 1.5t-10 0.5q-24 -4 -35 -2q-4 1 -10 1t-13.5 -0.5t-11.5 -0.5q-46 -4 -66 -4q0 6 -14 6q-3 0 -8 -10q-19 -69 -14 -111q0 -5 -2 -20t-1 -23q0 -22 -8 -35q-1 -3 4 -24l4 -8q-1 -4 5 -27q4 -31 -15 -43q-3 -1 -2 -4 q2 -3 2.5 -7t-0.5 -7t-2.5 -7t-1.5 -6q0 -3 -1 -9.5t-1 -10.5q-1 -1 -5.5 -4.5t-6.5 -5.5q13 -16 -2 -29q-2 -2 -6 -10q0 -27 -2 -39q0 -5 -5 -10q-47 -90 -47 -91q-5 -10 -20 -45q-1 -3 0.5 -7.5t3.5 -4.5q9 -5 28 -11t23 -7q29 -7 47 -15q10 -2 31 -7t31 -7q57 -12 88 -14 q28 -5 37 4q0 2 4 2q32 -3 67 22q6 4 17.5 13.5t17.5 13.5q3 2 9.5 4t9.5 4q1 0 4.5 2t4.5 2.5t3.5 2.5t3 4t0.5 5v5q22 19 31 49q4 17 0 67q0 17 -4 41q-3 18 -13 39q-13 22 -32 35q1 2 3 5t3 5l2 2q8 -1 17 0t20.5 3t17.5 3q5 0 15.5 1t15.5 1q63 -11 67 -12 q47 -11 84 -57q31 -33 51 -86q12 -30 15 -64q5 -35 -23 -75q-13 -22 -47 -64q-14 -23 -35 -47q-1 -2 -6.5 -7.5t-7.5 -10.5q-5 -15 -22 -25q-2 -1 -25 -18q-23 -15 -37 -27q-25 -20 -68 -31q-4 -1 -15 -6.5t-19.5 -8t-16.5 -1.5h-2q-12 -6 -36.5 -9.5t-36.5 -9.5 q-3 -2 -7.5 -2t-10.5 1t-9 1q-24 -4 -35 -4q-12 1 -35 2t-35 2q-8 1 -23.5 4t-17.5 3q-8 2 -20 6q-45 15 -51 18q-17 6 -56 23q-3 1 -21.5 9.5t-27.5 14.5q-4 2 -24 17q-16 8 -37 22q-1 0 -2 2t-2 2q-3 3 -27 21h-2q-16 -5 -47 8q-8 2 -20 6v2q-12 4 -15 4q-25 0 -39 12 q-10 7 -28 11q-23 11 -41 14q-9 2 -28 4t-28 4q-19 4 -57 0q-23 -4 -31 13q-12 16 -18 22zM803 1440q3 0 10 1t12 1q-19 16 -22 -2z" />
<glyph unicode="&#xa4;" horiz-adv-x="1165" d="M0 246q0 8 9.5 16.5t8.5 20.5q18 7 37.5 17t32 17t34.5 23.5t28.5 21t32.5 25.5t28 23q-40 81 -44.5 181t21.5 190t76.5 167t114.5 117q-86 149 -131 206q-18 23 -37 44q6 3 31 8q2 13 -10 28t-9 21q44 4 75.5 -12.5t51 -46t34 -61.5t34.5 -65.5t43 -51.5q16 14 40.5 10 t42 -13.5t43.5 -21.5t46 -14q8 0 0 5q-8 6 0 7q72 -3 88 -49q18 1 48 -5t45.5 -7.5t37.5 8.5q1 10 -4 16.5t0 13.5q54 23 134.5 102.5t141.5 100.5q-20 -54 -57.5 -102.5t-85 -99.5t-72.5 -89q15 -38 18 -86t-14 -94q-2 -6 -12 -17t-12 -18q-9 -27 -23 -58t-34 -68t-34 -61 t-38.5 -65t-30.5 -51q65 -109 92 -250q-4 -3 -10 -11.5t-10 -10.5q-11 1 -24 12t-29 10q-11 37 -47 90t-46 76q-29 -6 -66 -41t-67 -41q-9 -3 -12.5 5t-7.5 8q-70 -18 -145 -6.5t-115 49.5q-14 -13 -52 -50t-66 -62t-58 -46q-12 4 -31 18.5t-35 16.5zM386 548q0 -16 6 -36 t18 -33q-1 -5 -6 -2t-9 2q13 -24 30.5 -32t38.5 -1.5t39 16.5t43 27q9 6 13 9q65 43 124 125t81 155q19 59 7.5 118t-46.5 93q-57 1 -103.5 -17t-77 -46.5t-56 -74.5t-40 -86.5t-30.5 -96.5q-10 -2 -14.5 -22t-16.5 -21q0 -11 -0.5 -36t-0.5 -41z" />
<glyph unicode="&#xa5;" horiz-adv-x="1347" d="M6 35q5 0 15 1t14 1q21 5 26 12q4 4 11 4q9 -4 20.5 -4.5t18 0t23 3t20.5 3.5q7 2 12 13q2 14 14 47q1 5 6.5 15t6.5 15q3 6 11.5 23.5t12.5 29t6 23.5q0 2 3.5 8t4.5 9q16 38 17 43t5.5 17t4.5 17q2 16 13 43t14 39q2 16 18 52q3 9 8 34q3 7 -1 9t-11 2q-13 0 -76 -5 q-13 -1 -63 -10h-31q-36 -4 -59 -6q-14 -3 -29 -6q2 4 2 14q0 3 -2.5 8l-3.5 7q-1 1 -6 10q0 10 -2 12q-7 10 -2 25q4 17 22 24q1 0 2 -1t2 -1q3 -3 7 -8.5t6 -7.5q2 -4 6.5 -5.5t8 -1.5t10.5 0.5t9 0.5q28 4 45 4q10 1 32 4t32 4q45 5 53 6q33 3 64 6q17 3 26 27 q1 4 4 13.5t4 13.5q2 10 6.5 30.5t6.5 30.5q1 0 2.5 3.5t3.5 4.5q3 8 -1 12t-13 3q-13 0 -19 2q-8 0 -12 2q-9 1 -26 4t-23 4h-17q-30 -3 -57 -6q-8 -1 -28.5 -0.5t-28.5 -1.5q-6 0 -39 -11l-9 -2l-4 8t-3.5 9t1.5 12q9 17 -4 43q18 15 29 4q14 -10 39 -6q48 6 53 6 q51 2 154 2q23 0 20 21q1 8 0 25t0 26q0 21 2 31q6 31 2 90q-4 27 -4 88q2 16 2 47q4 25 8 67q0 6 -1 17.5t-1 17.5q2 12 2 35q0 29 -2 43q1 6 1.5 26t2.5 31q-2 6 -2 23q0 6 5 63q0 11 -11 11q-10 0 -32 1.5t-33 0.5q-12 -1 -31.5 0t-28.5 0q-2 -1 -4 -1t-4 -1 q-15 -5 -22 0.5t-13 19.5q-2 6 -5 17.5t-5 17.5q11 -6 27 4q3 1 6.5 1t3.5 -1q10 -6 35 -2q14 2 47 2q9 1 28 1t29 1q12 1 38 4t38 4q8 2 27 2q36 -2 94 11h6q9 1 29.5 4t29.5 4h13q51 5 61 4q24 0 47 -10q23 -6 33 -27q6 -15 -10 -23q-17 -10 -41 -20q-3 -1 -37 -6 q-12 -3 -21.5 -14t-9.5 -23q-2 -12 -4 -35t-4 -35q-2 -16 -6 -49t-6 -49q0 -3 -11 -51q0 -17 -2 -21q-1 -5 -3.5 -16.5t-3 -16.5t0.5 -14q2 -8 -4 -63q5 -22 4 -29v-55v-33q-1 -4 0 -8t3 -9.5t3 -9.5q0 -5 1 -14t1 -14q1 -2 -0.5 -6t-1.5 -5q-6 -12 -6 -22q0 -4 8 -4 q3 2 5 4q8 14 24.5 39.5t20.5 32.5q4 6 13 18.5t13 18.5q18 20 49 59q3 5 22.5 30t27.5 40q8 12 23.5 36t23.5 37q14 24 41 62q4 5 12 16t12 16q2 4 7.5 12.5t7.5 12.5q1 2 4 6t5.5 7.5t4.5 7.5q9 12 78 112q3 3 7 11t7 12q0 8 -2 8q-3 1 -14.5 5t-14 3t-16.5 -2l-4 8 q-4 9 -2 10q3 11 3.5 14.5t-2 13t-3.5 13.5l8 -4q10 -10 55 -10q6 1 29.5 3t38.5 3q3 0 8 -1t8 -1q14 0 40 1t38 1q4 0 10 -2t10 -2q26 -5 27 -6q13 -10 23 -23q-2 -2 -2 -4q-44 -15 -56 -20q-4 0 -6 -2q-9 -6 -17.5 -7.5t-21 0t-16.5 1.5q-5 0 -14.5 1t-14.5 1q-6 1 -12 -4 t-8 -11q-23 -44 -39 -67q-39 -51 -70 -96q-7 -10 -22.5 -31t-22.5 -31q-6 -9 -20.5 -26t-20.5 -25q-2 -3 -9 -13t-11 -16q-10 -15 -66 -90q-1 -1 -29 -35q-1 -2 -9.5 -16t-14.5 -21q-2 -4 -27 -34q0 -2 -4 -6q-2 -8 -7 -15.5t-14 -18t-12 -14.5q-1 -1 -3 -2t-3 -2 q-7 -21 -18 -35q-1 -1 -4 -6t-6 -6q-7 -7 -2 -12q4 -4 10 -4q15 0 44 -1t44 -1q14 0 44 1t46 1q2 0 5.5 1t4.5 1q16 3 39 -12q2 -1 6 -2.5t6 -2.5q13 -4 23 -12q-33 -8 -66 -8q-19 0 -102 -10q-5 -1 -15.5 -1t-15.5 -1q-13 0 -33 -4q-10 -1 -31.5 -4.5t-31.5 -4.5 q-22 -3 -16 -16q3 -14 -17 -63q-7 -26 -16 -46q-5 -10 6 -10q15 2 41 5t41 5q12 1 36 2.5t36 2.5q36 4 53 4q4 2 16 -2l8 -4q7 -4 9 -6t5.5 -6.5t4.5 -10.5l2 -2h-12v-4q2 -1 16.5 -14t22.5 -19q-5 -3 -5 -4h-6q-16 0 -22 -6q-2 -1 -9 -2t-10 -2q-4 -2 -16 -6q-3 8 -14 4 q-8 -2 -22.5 -4t-16.5 -2q-10 -1 -30.5 -1t-29.5 -1q-13 -1 -36 -3.5t-33 -3.5q-12 -2 -34 -6t-34 -6q-14 0 -14 -14q0 -5 -4 -15t-4 -12q-6 -22 -19 -41q-3 -4 -4.5 -16t-5.5 -17q-1 -2 -4 -6t-4 -6q-2 -2 -2 -4q0 -9 -7 -28t-8 -25q-2 -10 -12 -29.5t-12 -26.5 q-4 -15 -11.5 -45t-11.5 -45q-5 -21 -16 -55q-1 -4 -3 -12.5t-3 -12.5q-1 -2 -4.5 -6t-4.5 -6q-8 -8 -6 -10q0 -3 3.5 -5.5t5.5 -0.5q13 1 15.5 1.5t12 -4.5t10.5 -5q23 -11 27 -27q0 -9 -6 -14q-18 -14 -21 -25q0 -10 -12 -10q-33 -4 -49 -2q-18 2 -59 -2q-5 0 -13 0.5 t-14.5 0.5t-11.5 -1q-17 0 -41 -4q-10 0 -30.5 -1t-29.5 -1h-63q-35 0 -53 -2q-2 0 -4.5 1t-4.5 1q-16 4 -26 -9l-8 -4q-1 1 -1 4.5t-1 4.5q0 18 -21 12q-13 -4 -21 1t-6 17q1 3 -0.5 5.5t-4 5.5t-3.5 4q0 2 -4 10zM252 66q10 5 10 6q1 2 0 6t0 6q-2 0 -4 -2l-6 -12v-4z M479 1182q5 0 17 4q0 2 -1 6.5t-1 7.5q-2 -3 -7.5 -9t-7.5 -9zM487 1221h5q4 23 6.5 47t4.5 56.5t3 45.5h-4q0 -2 -3 -10t-3 -12q-1 -10 -3.5 -31t-3.5 -31v-18v-39q-1 -2 -1 -4.5t-1 -3.5zM797 582q19 -5 34 10q-7 -1 -32 -6q-2 -2 -2 -4z" />
<glyph unicode="&#xa6;" horiz-adv-x="282" d="M41 686q2 7 6 20.5t6 20.5q1 1 2 4t2 4v2q0 1 1 3t1 3q4 8 9 13q11 9 32 16q10 2 33 -2l2 -2q2 0 4 -2q1 -1 4 -3t4 -3q2 0 7 -4.5t6 -7.5q12 -15 24 -46q11 -449 -2 -475q2 -17 10.5 -136t16.5 -154q19 -2 26 -14t6 -26t-6 -39q-1 -7 -2 -10q-26 -14 -39.5 -17.5 t-20.5 1t-13 11t-23.5 10.5t-46.5 0q-27 76 -27 165q0 2 -2 6t-2.5 7t-1 6.5t1.5 5.5t7 2q1 -5 2 -17.5t2 -17t6 -10.5t14 -10q-1 31 -16 100.5t-11 114.5q-1 0 -4 6t-12 2q5 20 12 27q-7 11 -8 27t1.5 41t2.5 38q-14 60 -14 340zM43 993q7 420 23 494q-1 27 -6 57.5 t-4.5 55t10.5 63.5q3 0 5.5 -1t4 -1t4 0.5t6.5 3.5q16 16 30.5 54t16.5 42q16 8 23 10t9.5 -2.5t2.5 -11.5t3.5 -20t10.5 -25q-4 -1 -7 0t-5 2t-3.5 1.5t-2.5 -1.5t-2 -8q-2 -8 6.5 -11t9.5 -5q-11 -46 -12 -73t-8 -67q9 -19 11.5 -46t1.5 -41.5t-6 -52.5t-5 -40 q-2 -9 12 -346q-2 -2 -2 -10v-17q0 -6 -4 -18q-13 -19 -27 -31q-7 -8 -33 -16h-18q3 0 -0.5 1t-5.5 1t-4 2h-2q-4 2 -8 6q2 -2 -1 0t-4 2q0 1 -1 2t-1 2q-2 2 -6 10l-2 5l-4 8q-1 4 -3 11t-3 11z" />
<glyph unicode="&#xa7;" horiz-adv-x="1122" d="M-86 735q0 9 8 29q2 5 8 22t9 25q2 5 22.5 52t22.5 52q7 15 74 58t106 63q-10 25 -6 60q-2 4 -4.5 10t-3.5 8q-4 20 0 80q2 10 2 33q-4 30 2 45q1 6 10 28q0 1 4 16t8 21q15 28 49 76q12 21 31 37q25 22 66 51q37 29 77 37q7 2 22.5 8t22.5 8l27 5h25q36 5 47 0h24 q1 0 8 -1.5t9 -3.5q15 -10 46 -16t44 -12q23 -14 31 -17q33 -9 38 -12q8 -4 33 -24q5 -5 16.5 -14.5t16.5 -14.5q3 -2 18 -17q24 -29 27 -36q9 -18 29 -50q4 -6 4 -28q0 -1 3 -17t3 -24v-49q0 -10 -2.5 -21.5t-5 -19.5t-7 -20.5t-6.5 -18.5q-15 -35 -24 -43q-7 -7 -17.5 -22 t-15.5 -21q-40 -40 -82 -37q-13 0 -33 -4q-4 0 -8 4q-16 19 -39 24q-20 4 -26 19q-10 17 10 31q49 34 63 110q2 12 3 35.5t2 28.5q0 4 1.5 16t0.5 19q-4 21 -11 32q-9 26 -28 64q-23 37 -31 45q-28 24 -47 29q-50 8 -74 -9q-1 0 -2 -1t-2 -1q-5 3 -18 -6q-9 -9 -23 -6 q-9 3 -12 -8q-2 -22 -27 -27l-4 -2q-1 -3 -15.5 -30t-19.5 -42q-10 -42 -10 -71q4 -48 8 -72q1 -8 6 -23.5t6 -23.5q2 -10 12.5 -25t12.5 -22q6 -12 18 -21q47 -47 66 -59q28 -19 72 -37q31 -16 53 -18q13 -3 62.5 -28t103 -53.5t59.5 -31.5q48 -25 68 -41q62 -50 90 -78 q10 -8 24 -41q2 -4 6 -11t6.5 -12.5t4.5 -10.5q3 -8 7 -26t7 -26q8 -49 4 -73q-3 -14 -10 -27q-3 -6 -10.5 -22.5t-11.5 -24.5q-43 -86 -52 -98q-11 -19 -123 -76q5 -15 5 -39q2 -5 4.5 -10.5t3.5 -6.5q6 -20 6 -79q0 -23 2 -33q7 -26 2 -45q-1 -6 -4 -16.5t-4 -12.5 q-1 -4 -4 -18.5t-6 -20.5q-13 -30 -43 -80q-12 -21 -27 -39q-12 -12 -35 -31.5t-27 -23.5q-38 -33 -75 -43q-4 -2 -20 -9.5t-25 -10.5l-25 -7q-4 -1 -12.5 -1t-12.5 -1q-31 -8 -47 -4h-24h-17q-16 10 -48 15t-44 10q-5 2 -16.5 6t-16.5 6q-4 1 -17.5 4t-20.5 6q-1 0 -35 23 q-6 4 -17.5 12.5t-17.5 12.5q-16 10 -18 14q-23 23 -31 35q-11 18 -33 47q-1 1 -6 28q-8 29 -10 39q-2 16 -2 52q-2 29 14 79q11 39 18 46t18 25t13 20q34 43 80 43q30 6 31 6q5 3 10 -2q17 -21 39 -21q22 -4 31 -18q9 -15 -11 -31q-44 -37 -55 -115q-1 -11 0.5 -34t1.5 -29 q0 -25 2 -35q2 -14 10 -33q3 -4 15.5 -26t19.5 -33q20 -33 35 -43q26 -22 49 -25q53 -4 72 13l4 2q9 -4 18 10q9 9 23 6q10 -3 10 8q1 14 6.5 20t18.5 11q4 0 6 2q3 9 13 34.5t13 39.5q10 42 5 73q-3 30 -13 70q-1 5 -8 20.5t-8 24.5q-2 10 -13 24t-14 21q-1 2 -20 21 q-4 3 -20.5 17t-28 22t-23.5 14q-29 18 -74 31q-31 12 -55 14q-12 2 -62.5 22.5t-107.5 45t-61 26.5q-42 17 -72 35q-67 47 -96 72q-3 2 -29 39q-12 20 -16 32q-5 10 -19 52q-13 37 -10 71zM72 762q4 -18 12 -29q17 -22 45 -47q6 -8 35 -22q12 -7 45 -21q33 -17 47 -20 q17 -4 126 -46.5t124 -46.5q55 -11 84 -20q13 -4 37 -12.5t37 -12.5q8 -4 10 -4q9 -5 27.5 -16t27.5 -16q42 -21 51 -25v-4q5 -6 15.5 -18.5t15.5 -18.5q34 14 64 30.5t30 22.5q0 4 8 42t7 44q0 14 -11 29q-24 36 -41 53q-6 8 -32 25q-21 12 -45 24q-29 17 -46 23 q-15 5 -120 56t-121 56q-45 13 -82 27q-63 27 -72 31q-4 4 -10 4q-20 15 -53 37q-21 15 -47 28v5q-2 3 -7.5 10t-7.5 10q-14 -6 -48.5 -24.5t-66 -39t-30.5 -26.5q0 -3 -4.5 -42t-3.5 -46z" />
<glyph unicode="&#xa8;" horiz-adv-x="602" d="M0 1659q0 73 16 106q23 42 107 68q24 -8 24 -39q2 1 5 14q7 -7 17 -5.5t21 -0.5q-4 -5 -14 0q1 -4 -4.5 -8t-5.5 -8q7 -2 10 2.5t10 3.5q3 -7 -5 -9t-9 -5q3 -4 14 -4t13 -5q6 11 4 13q6 4 8 -5q0 -9 -6 -12q6 0 6 4q11 -17 7 -38t-1 -39q-3 -2 -6 -1t-6 -1q0 -15 10 -15 q-7 -3 -12 2q-1 2 -2 5.5t-2 5.5q0 -9 4 -11q1 -16 -19.5 -35.5t-23.5 -25.5h-8q-5 -1 -15.5 -2t-15.5 -2q-1 0 -3 -1t-3 -1l-2 4q-78 4 -90 31q2 3 4 1.5t6 -1.5q-1 3 -7 6t-9.5 6t-0.5 6q-3 -1 -8 -2t-8 -2zM158 1751q1 -1 5 -4t7 -4q0 6 2 6q-2 -4 3.5 -5t11.5 -1.5 t6 -3.5q-1 0 -3 -5q-1 -3 -4 -3q8 -4 17 -2q0 2 3.5 7t2.5 9q-5 1 -5 2q3 2 -1 2q-6 -2 -24.5 2.5t-20.5 -0.5zM189 1759q-8 -3 1 -8l1 5l2 -2q4 -4 6 -5q0 2 3 3t3 3q-5 7 -16 4zM342 1718q0 48 10 68q9 16 39 33h21q4 1 6 3t3.5 5t2.5 4q37 7 52 -3t13 -34q2 1 5 14 q7 -7 17 -5.5t21 -0.5q-4 -5 -14 0q1 -4 -4.5 -8t-5.5 -8q7 -2 11 2.5t11 3.5q2 -7 -6.5 -9t-9.5 -5q3 -4 14.5 -4t14.5 -5q0 2 1 5l1.5 4.5t-0.5 3.5q7 4 8 -5t-6 -12q6 0 6 4q11 -17 7 -38t-1 -39q-3 -2 -6 -1t-6 -1q0 -15 10 -15q-7 -3 -12 2q0 2 -1 5.5t-1 5.5 q-3 -6 2 -11q2 -12 -5 -21.5t-19.5 -20.5t-18.5 -19h-8q-5 -1 -15.5 -2t-15.5 -2q-1 0 -3 -1t-3 -1l-2 4q-76 4 -90 31q2 3 5.5 1.5t6.5 -1.5q-2 3 -8.5 6t-10 6t-0.5 6q-2 -1 -7 -2t-7 -2q0 41 -2 59zM500 1751q2 -1 6 -4t6 -4q0 6 2 6q-1 -4 4.5 -5t11.5 -1.5t7 -3.5 q-3 0 -4 -4t-3 -4q5 -5 15 -2q0 2 3.5 7t2.5 9q-5 1 -5 2q3 2 -1 2q-6 -2 -24.5 2.5t-20.5 -0.5zM532 1751q1 7 5 2q4 -3 6 -4q0 2 2 3t2 3q-3 7 -15 4q-9 -3 0 -8z" />
<glyph unicode="&#xa9;" horiz-adv-x="1568" d="M151 896q16 113 69 216t120 177.5t160 148.5q11 -3 39 -7.5t45.5 -10t27.5 -15.5q29 77 118 101t199 0.5t223 -72.5t200 -111q34 -99 52 -206.5t19.5 -215t-4.5 -199.5t-20 -198q-3 -50 -33 -125t-39 -111q-94 -258 -389 -258q-176 -6 -357.5 80t-322.5 227 q-73 168 -98 317t-9 262zM289 657q0 -72 102 -305q29 -79 90 -127.5t133.5 -61.5t152.5 -9t151 25t124 45.5t76 47.5q41 44 78.5 175.5t48.5 254.5q9 98 11 175t-5 172t-37 170.5t-81 123.5q-106 48 -187 58.5t-132.5 -13t-82.5 -58.5t-53 -87q-27 15 -79 29t-85 14 q-17 -36 -63 -105.5t-77 -124t-58 -162t-27 -237.5zM582 758q2 20 28 162q3 2 0.5 23.5t-2.5 25.5q10 43 29 94q2 6 41 80q6 2 10 2q3 0 0 5q-2 2 0 3q19 13 71.5 8t71.5 -18q0 -1 3.5 -7.5t3.5 -11.5q7 1 16 5.5t12 5.5l16 -8t23 -7q6 -3 12 -12t9 -12q7 -27 10 -55.5 t2.5 -44.5t-2.5 -45.5t-2 -39.5q-6 1 -8.5 -1.5t-1.5 -6t0 -4.5q-23 9 -30 32.5t-6.5 58.5t-2.5 48q-33 -19 -37 -82q-3 0 -4 -4t-4 -4q-1 -20 -24 -147t-23 -158q0 -9 4 -32t4 -36q2 -53 11 -90.5t36 -66.5q19 4 29.5 20.5t17.5 41t14 34.5q1 16 11.5 59.5t7.5 75.5 q7 -3 13 2.5t17 1.5q1 -7 5.5 -22.5t5 -21t-3.5 -19.5q4 -112 -29 -152q-1 -1 2 -10q-4 -4 -13 -16.5t-15 -19.5t-19 -13.5t-29 -7.5q-2 -1 -2 -6t-2 -5q-9 1 -61.5 1t-61.5 1q-41 6 -74.5 52t-51 109t-25 126.5t-2.5 108.5z" />
<glyph unicode="&#xaa;" horiz-adv-x="667" d="M-20 1292q-10 51 21 123t75 103q48 33 100 18q53 -34 82 -39q10 29 50 32t82.5 -20t58.5 -59q2 -7 1.5 -15.5t0.5 -13.5t5.5 -12.5t4.5 -11.5q3 -35 -1 -128t5 -114q33 35 102 260q4 16 10 33t14.5 38.5t12.5 31.5q6 3 12 -3t9 -16q2 -9 -44 -172t-67 -219q-2 -7 -6 -24 t-6.5 -27.5t-7.5 -22t-11 -16.5q-26 -21 -79.5 -13.5t-88.5 31.5q-36 45 -48 107.5t-7 114t0 106.5q-44 -87 -86 -158q-17 -34 -33 -39q-53 -13 -101.5 27.5t-59.5 97.5zM104 1264q7 -2 9 0h8q16 10 32 37t25 36l-2 2q2 0 2 2h2q5 10 20 35.5t23.5 45t12.5 40.5 q-2 0 -6.5 0.5t-5 1t-2.5 3t1 6.5q-53 -18 -86 -66q-46 -63 -33 -143z" />
<glyph unicode="&#xab;" horiz-adv-x="1363" d="M0 877q0 24 23.5 65.5t76.5 99.5t126.5 119t186.5 129t244 125q9 10 24 18.5t37.5 18t31.5 14.5q11 0 24 -8.5t21.5 -11.5t31.5 8q35 -58 -4 -131q-9 -21 -24 -33q-67 -66 -172.5 -134t-189 -110.5t-145 -84.5t-61.5 -68q0 -32 64 -87.5t148.5 -110.5t189.5 -131 t164 -134q15 -12 24 -33q39 -73 4 -131q-23 11 -31.5 8t-21.5 -11.5t-24 -8.5q-40 21 -113.5 64t-187.5 118t-210.5 149t-166.5 155t-70 137zM479 877q0 24 23.5 65.5t76.5 99.5t127 119t187 129t244 125q9 10 24 18.5t37 18.5t31 14q11 0 24 -8.5t22 -11.5t32 8 q35 -58 -4 -131q-8 -20 -25 -33q-67 -66 -172.5 -134t-188.5 -110.5t-144.5 -84.5t-61.5 -68q0 -32 64 -87.5t148 -110.5t189 -131t164 -134q15 -12 24 -33q17 -31 19.5 -64t-14.5 -67q-23 11 -32 8t-22 -11.5t-24 -8.5q-40 21 -113.5 64t-187.5 118t-210.5 149t-166.5 155 t-70 137z" />
<glyph unicode="&#xac;" horiz-adv-x="1058" d="M-36 1465.5q-1 7.5 4 9.5t12 2t20 2t25 8q1 -4 -0.5 -8t-3 -5.5t0 -3.5t7.5 -4q8 -3 11.5 6.5t6.5 10.5q45 -16 72 -18.5t65 -12.5q16 6 34 7.5t39.5 -0.5t36 -4.5t39 -7.5t32.5 -7q7 -1 61 9.5t98.5 15.5t77.5 -9q38 3 147.5 24.5t135.5 24.5q1 15 8.5 23t21.5 8t26 -2 t32 -8q16 -33 18.5 -53.5t-4 -31t-12.5 -35.5t-4 -60q-3 -3 -6 -3q3 -30 10 -71t10 -60q15 -1 23 -8.5t8 -21.5t-2 -26t-8 -32q-33 -16 -54 -18.5t-31.5 4t-35.5 12.5t-60 4q-22 70 -18 166q0 2 -1 6t-1.5 7t-1 6.5t1.5 5.5t6 2q0 -5 0.5 -13.5t1 -12t1.5 -9.5t3.5 -9.5 t6.5 -7t10 -5.5q1 23 1 35v4q2 4 5 26h-35q-2 0 -6 -1t-7 -1.5t-6.5 -1t-5.5 1.5t-2 6q4 0 15.5 0.5t15 1t10.5 3t10.5 7t6.5 11.5q-31 1 -100.5 -11.5t-114.5 -5.5q0 -1 -6.5 -3t-4.5 -11q-18 3 -26 12q-11 -7 -27.5 -7t-40.5 3.5t-37 3.5q-23 -3 -41.5 -5t-32 -3.5t-29 0 t-23 1.5t-24.5 4t-23.5 5.5t-30 8.5t-33.5 10q-26 1 -58.5 -2.5t-56.5 -1t-64 15.5q1 3 3 6.5t1.5 6.5t-4.5 8q-11 13 -26.5 21.5t-35.5 17t-30 14.5q-6 16 -7 23.5z" />
<glyph unicode="&#xad;" horiz-adv-x="663" d="M-16 946q5 8 12.5 9.5t14.5 -1t16.5 -6t15.5 -4.5q36 4 89.5 4t90 -2t111 -7.5t96.5 -6.5q107 -6 141 -17q82 -25 31 -96l14 -22q-7 -4 -11 -9t-8.5 -13.5t-8.5 -14.5q-41 5 -83 6t-86.5 -2t-80.5 -6.5t-89 -9.5t-87 -9q-68 29 -135 99q0 7 4.5 9t9 0.5t8 -1t2.5 5.5 q-6 8 -24.5 27t-29 34.5t-13.5 32.5z" />
<glyph unicode="&#xae;" horiz-adv-x="1536" d="M151 896q16 113 69 216t120 177.5t160 148.5q11 -3 39 -7.5t45.5 -10t27.5 -15.5q29 77 118 101t199 0.5t223 -72.5t200 -111q34 -99 52 -206.5t19.5 -215t-4.5 -199.5t-20 -198q-3 -50 -33 -125t-39 -111q-94 -258 -389 -258q-176 -6 -357.5 80t-322.5 227 q-73 168 -98 317t-9 262zM289 657q0 -72 102 -305q29 -79 90 -127.5t133.5 -61.5t152.5 -9t151 25t124 45.5t76 47.5q41 44 78.5 175.5t48.5 254.5q9 98 11 175t-5 172t-37 170.5t-81 123.5q-106 48 -187 58.5t-132.5 -13t-82.5 -58.5t-53 -87q-27 15 -79 29t-85 14 q-17 -36 -63 -105.5t-77 -124t-58 -162t-27 -237.5zM557 1141q13 0 131 3t189.5 -4t111.5 -30q22 -14 41.5 -47.5t11.5 -58.5q-6 -23 -25 -39t-54 -33t-45 -23q41 -23 71 -49q0 -12 -2 -16q7 -7 19 -4q0 -2 -7 -9q7 -16 8 -37t-1.5 -52t-1.5 -52q0 -7 -2.5 -23t-2.5 -22 q0 -2 1 -9.5t0.5 -11.5t-5.5 -6q0 -3 5 -4.5t4 -5.5q0 -204 8 -260q-9 -5 -11 -10q-4 0 -13.5 -0.5t-16.5 -0.5h-18t-18 1t-16.5 2.5t-14 5t-10 8t-4.5 11.5t3 16q-5 40 -7.5 149t-8.5 156q-6 48 -3 74q0 42 -7.5 81t-22.5 42q-14 3 -34 -6.5t-26 -8.5q-7 -34 -4 -80 q1 -17 1 -53t1 -53q0 -4 2 -13.5t1.5 -15.5t-5.5 -10q8 -25 8 -111t3 -106q1 -3 -3 -4.5t-4 -3.5q8 -8 11 -37q7 -7 30 -16q-1 -2 -5 -5.5t-3 -9.5q-26 -4 -106 -8.5t-99 -7.5q-2 7 -16.5 11t-17.5 11q-1 4 2 5.5t10 2.5t8 1q-6 9 -6 20t2.5 23.5t1.5 19.5q0 8 -1.5 11 t-2.5 10q0 10 3 30.5t3 30.5q0 26 -5 102t-5 88q0 95 -2 140q-1 35 2 122t2 138q-4 2 -8 2t-10.5 -1t-10.5 -1q-1 4 -1.5 17.5t-2.5 23.5zM788 1112q8 -34 5 -93.5t0 -90.5q19 3 55.5 19t52.5 20q65 22 78 34q18 20 13.5 38.5t-23.5 31.5q-29 21 -89.5 36t-91.5 5z" />
<glyph unicode="&#xb0;" horiz-adv-x="407" d="M42.5 1272.5q-4.5 44.5 8 78.5t31.5 59t49 48q26 -5 29 -8q9 26 44 28t73.5 -12t68.5 -36q28 -79 12 -207q-1 -13 -8.5 -31.5t-9.5 -28.5q-22 -65 -98 -65q-44 -1 -90.5 21t-81.5 57q-23 52 -27.5 96.5zM84 1272q0 -14 8.5 -38.5t18.5 -37.5q25 -33 64.5 -45.5t70 -7 t43.5 19.5q10 10 20 44t13 65q14 126 -29 166q-22 10 -39 11.5t-26.5 -0.5t-18.5 -13.5t-11.5 -16.5t-9.5 -20q-6 4 -23 9t-26 5q-5 -12 -20.5 -32.5t-25 -46t-9.5 -62.5z" />
<glyph unicode="&#xb1;" horiz-adv-x="790" d="M-8 1118q5 9 12.5 10.5t14.5 -1.5t16.5 -6.5t15.5 -4.5q86 10 240 0q1 33 2.5 54.5t6.5 61.5t11.5 58t19 44t29.5 20t41 -15l23 17q4 -7 9 -11.5t13.5 -9t14.5 -8.5q-9 -73 -2 -223q196 -9 235 -48q23 -26 -4 -63l17 -24q-7 -4 -11 -8.5t-9 -14t-9 -14.5q-80 11 -207 4 q8 -84 10 -117q-23 -62 -96 -135q-7 0 -19 1t-17.5 0.5t-10.5 -5.5q-8 1 -41 12q-3 2 -10.5 6.5t-10.5 6.5q-7 72 0 217q-20 -1 -55.5 -4.5t-50.5 -4.5q-60 22 -135 97q0 7 4.5 9t9.5 1t8 -0.5t2 4.5q-6 8 -24.5 27t-29 34.5t-13.5 32.5zM0 524q0 4 2 6t5.5 2t6 -0.5t4 0 t0.5 3.5q-4 8 -18 22q18 32 37 49q2 1 5 3t5 3q76 4 270 -1t281 -11q112 -4 139 -28q24 -22 -4 -62l12 -18q-5 -3 -8 -7t-6.5 -11.5t-7.5 -12.5q-111 9 -305.5 2t-311.5 -19q-51 22 -106 80z" />
<glyph unicode="&#xb2;" horiz-adv-x="346" d="M0 1169q8 4 14 10t11 15t8 15t7.5 18.5t6.5 17.5q36 59 43 76q2 2 4 2q4 19 19.5 43.5t17.5 28.5q0 10 2 10v4q4 5 7 21t7 20q0 13 8.5 34t8.5 36q-8 6 -15.5 6.5t-17 -2t-14.5 -2.5q-1 0 -1 -2q0 -3 -1 -4q-31 -16 -45 -50q-7 -10 -13 -38t-12 -37q-4 2 -9 6t-9 6v10 q1 2 1 10t1 11q11 43 45 73q2 15 30 27q44 19 82 -12q0 -4 4 -6q29 -13 62 -60q0 -1 -1 -1t-1 -1v-4v-10q-3 -19 -23 -39v-6q-4 0 -2 -6q-9 -8 -19.5 -34t-19.5 -34q0 -6 -5.5 -12.5t-6.5 -8.5q2 -13 -12 -32q2 -7 -10 -19q1 -1 0.5 -3t1.5 -3q-4 -4 -16.5 -19t-22.5 -20 q5 -4 0.5 -10.5t-4.5 -7.5q11 4 44.5 5t43.5 5q5 0 33.5 2t39.5 -4q10 -10 25 -10q-1 -1 -3.5 -1h-4.5t-2 -1q2 -3 6.5 -4t7.5 -4v-4l-2 1l6 -6q-1 0 -3 -1t-4 -1t-3 2h4q-9 1 -43.5 7.5t-48.5 3.5q-2 0 -4 -2.5t-4 -2.5h-13q-6 -1 -19.5 -6t-19.5 -6q-4 -4 -4 -8 q-14 -3 -32.5 -18t-30.5 -19h-10q-1 1 -23 10q-6 3 -12 7.5t-14 13.5t-9 10t-3.5 2t-3.5 2t-2.5 2t-2 3t-0.5 5zM124 1218q0 -1 1 -4q4 1 2 5q-3 2 -3 -1z" />
<glyph unicode="&#xb3;" horiz-adv-x="319" d="M0 1438q6 9 13.5 18.5t13 15.5t15 16t13.5 15q9 5 28 19.5t37 22.5t40 7q44 0 55 -26q4 -4 18 -16.5t19 -20.5q2 -6 4 -18.5t4 -16.5q2 -17 -18 -45q-11 -14 -19 -16q0 -2 4 -2q-7 -8 -22.5 -22t-20.5 -19q53 -12 68 -54l6 -6v-2q0 -2 2.5 -4t3.5 -4q2 -9 7.5 -24t5 -20 t-4.5 -24q0 -9 -3 -17.5t-6 -13t-9.5 -11.5t-9.5 -11q-22 -9 -33 -26q-3 0 -8 -5q-18 -16 -82 -24q0 2 3 2.5t3 1.5q-15 2 -25 0q0 2 1.5 3t0.5 3q-3 -1 -6.5 -1t-8.5 0.5t-9 0.5q-1 2 1.5 2h5.5t3 2q-1 0 -4.5 1t-6 1t-3.5 -2q-1 0 -2 2l-2 2q-2 4 2 4q-9 3 -23 11.5 t-20 11.5q-2 0 -1 -1l1.5 -1.5t-0.5 -1.5q-13 9 -21 29t-6 36q12 -4 14 -4q7 -6 20.5 -22.5t27 -24.5t32.5 -6q31 4 62 35q0 9 8 12q-1 5 6 19t4 24q4 3 0.5 11t-4.5 16q-6 26 -36.5 37.5t-59.5 -2.5h-17q-5 5 -8.5 11t-7 14t-6.5 13q-3 -1 -5 -0.5t-3.5 2.5t-2.5 3.5 t-2.5 4t-2.5 3.5q27 8 59 24q45 25 72 56q21 35 22 37q11 18 14 40q1 19 -12.5 24.5t-30.5 -1.5q-5 -1 -15.5 -7.5t-16.5 -8.5q-3 -2 -8.5 -4t-8.5 -5t-4 -8q-13 -8 -25 -20.5t-27.5 -31t-21.5 -24.5q-2 -1 -5 0t-5 0q-6 3 -10 11zM47 1147q1 -1 10 -6q-1 2 -5 3.5t-5 2.5z " />
<glyph unicode="&#xb4;" horiz-adv-x="337" d="M0 1683q60 74 129 220q6 6 10 8v2h2l4 4q2 1 12 6.5t15 9.5q13 8 31 15q2 -2 4 -2q36 -8 80 -29q10 -23 10 -47q-48 -70 -113 -156q-51 -73 -78 -92q-46 -32 -71 27h-23q1 6 -0.5 10.5t-5.5 11t-6 12.5z" />
<glyph unicode="&#xb5;" horiz-adv-x="937" d="M-41 201q4 16 12 24q-6 12 -6.5 28t2.5 41.5t4 37.5q-12 68 -2 342q2 5 7.5 18t7.5 21l4 8v2q0 1 1 3t1 3q4 8 8 12q18 12 35 15q10 2 33 -2l2 -2q2 0 4 -2l6 -7q5 0 12 -14q17 -20 23 -45q-4 -446 -19 -475q0 -5 1 -16t1 -17l19 -47q3 0 14 -3.5t19 -3t16 6.5 q3 8 3.5 14t0 11.5t0.5 17.5q26 18 54.5 69.5t49.5 69.5q1 7 20.5 164.5t18.5 192.5q9 7 17.5 17t13.5 18t14 22t13 20q53 -2 111 -21t71 -52q5 -13 -2 -35.5t-8 -32.5q-1 -12 2 -35.5t2 -33.5q-3 -39 0 -70q3 -36 -5.5 -115.5t-4.5 -120.5q2 -26 14 -74.5t14 -72.5 q21 -1 32.5 9t20.5 23t21 17q16 49 90 228t90 225q15 40 27 84q5 -9 15.5 -12t18.5 -2t13.5 -5.5t3.5 -23.5q-15 -148 -164 -445q-84 -154 -92 -172q-38 -16 -51 -63q-39 -24 -114 -23.5t-114 33.5q1 14 -17.5 37.5t-23.5 36.5q-19 53 -40 32q1 1 8 19q-15 19 -17 49 q-7 -41 -61.5 -64t-108.5 -8q4 -101 11 -139q28 -4 29.5 -30.5t-9.5 -59.5q-32 -16 -47.5 -16.5t-19.5 7.5t-22.5 15t-53.5 4q-25 79 -21 166q0 1 -1.5 6t-2.5 8t-1 6.5t2 5.5t7 1q0 -4 0.5 -15t1 -14t3 -10t7 -10.5t11.5 -6.5q0 31 -13.5 100.5t-7.5 114.5l-2 6q-2 7 -12 5 z" />
<glyph unicode="&#xb7;" horiz-adv-x="260" d="M0 829q0 74 16 107q23 42 107 68q24 -8 24 -39q2 1 2.5 5t2.5 7q6 -5 16.5 -3.5t21.5 -0.5q-4 -4 -16 0q2 -6 -3 -10.5t-5 -6.5q7 -2 10 3t10 4q3 -7 -5 -9.5t-9 -5.5q3 -4 14.5 -3.5t12.5 -4.5q5 9 4 10q6 6 7.5 -3.5t-5.5 -10.5q6 -2 6 4q11 -18 6 -38.5t0 -39.5 q-3 -2 -6 -1t-6 -1v-3q0 -11 10 -11q-9 -4 -12 2q-1 2 -2 5t-2 5q0 -8 4 -10q1 -12 -6.5 -22.5t-19.5 -21.5t-17 -18q-4 0 -8 -2q-5 0 -15.5 -1t-15.5 -1q-1 0 -3 -1t-3 -1q-2 2 -2 4q-79 4 -93 31q1 3 5.5 1.5t7.5 -1.5q-1 2 -3.5 4t-5.5 3.5t-6 3.5t-3.5 3.5t1.5 4.5 q-2 -1 -8 -2.5t-8 -2.5z" />
<glyph unicode="&#xb8;" horiz-adv-x="565" d="M-5 -580.5q6 61.5 64 99.5q4 -2 15 -4.5t16 -8.5q-13 -28 2.5 -69.5t46.5 -71.5t68 -44.5t67 11.5q11 27 15 31q37 33 42.5 88.5t-23.5 106.5t-81 71q7 7 12 29.5t25 28.5q-2 4 -7 6.5t-7 7.5q34 96 72.5 168t101.5 127q32 -10 47 -47q-19 -24 -36 -53t-26.5 -49.5 t-25 -56.5t-23.5 -54q12 -15 50.5 -54t60.5 -70t29 -65q3 -5 9.5 -7t8.5 -7q10 -43 5 -93t-19.5 -94.5t-54.5 -82.5t-101 -56q4 8 4 13q-70 -38 -159 -18.5t-148 87.5q-56 69 -50 130.5z" />
<glyph unicode="&#xb9;" horiz-adv-x="221" d="M-23 1364q21 17 36.5 43t31 60t25.5 51q0 1 -1 3t-1 3q7 10 10 10q0 1 2 2t2 2q17 0 41 -16q30 -13 35 -19q1 -1 2 -3t2 -1q0 -4 -2 -4q10 -28 -2 -70q0 -1 1 -2t1 -2q-8 -43 -2 -78q-3 -6 -2.5 -25t-1.5 -28q1 -11 1.5 -43t4.5 -56t14 -52q0 -1 1 -2.5t2.5 -4t2.5 -4.5 q-2 0 -2 -4q-4 1 -11.5 -4.5t-12.5 -5.5q-15 -3 -48.5 7t-35.5 18q1 1 5 1t7 1q-3 1 -6.5 4.5t-5.5 3.5q-1 12 -2 20.5t-3.5 18.5t-3.5 20q0 3 1.5 3.5t0.5 2.5q1 2 -0.5 3t-1.5 2q4 8 2 10q1 -1 5 2q0 1 -3.5 0t-3.5 0q0 5 3.5 8t3.5 4q-1 2 -4 4l-3 2q4 4 1 24t4 23 q0 1 -2.5 2t-2.5 2q0 4 1 10t1 9q0 4 -2 9.5t-2 8.5t4 4q-2 2 -8 2q-2 5 -1 11t5 6q-10 8 0 18q-5 6 -1.5 19t-2.5 14l6 2q-4 5 -4 9.5t2 10t2 9.5q-7 -1 -10.5 -8.5t-5.5 -8.5q-6 -24 -25 -47q-5 -8 -8.5 -12.5t-9.5 -9.5t-12.5 -3t-12.5 11z" />
<glyph unicode="&#xba;" horiz-adv-x="407" d="M42.5 1272.5q-4.5 44.5 8 78.5t31.5 59t49 48q26 -5 29 -8q9 26 44 28t73.5 -12t68.5 -36q28 -79 12 -207q-1 -13 -8.5 -31.5t-9.5 -28.5q-22 -65 -98 -65q-44 -1 -90.5 21t-81.5 57q-23 52 -27.5 96.5zM84 1272q0 -14 8.5 -38.5t18.5 -37.5q25 -33 64.5 -45.5t70 -7 t43.5 19.5q10 10 20 44t13 65q14 126 -29 166q-22 10 -39 11.5t-26.5 -0.5t-18.5 -13.5t-11.5 -16.5t-9.5 -20q-6 4 -23 9t-26 5q-5 -12 -20.5 -32.5t-25 -46t-9.5 -62.5z" />
<glyph unicode="&#xbb;" horiz-adv-x="1361" d="M14 1454q24 -11 33 -8t21.5 11.5t23.5 8.5q7 -3 31 -13.5t38.5 -19t24.5 -18.5q130 -57 243 -125t186.5 -129t126.5 -119t76.5 -99.5t23.5 -65.5q0 -56 -70 -137t-166.5 -155t-210.5 -149t-187.5 -118t-113.5 -64q-11 0 -23.5 8.5t-21.5 11.5t-33 -8q-32 57 4 131 q11 19 25 33q59 58 164 134t189 131t148 110.5t64 87.5q0 26 -61.5 68t-144.5 84.5t-188.5 110.5t-172.5 134q-14 14 -25 33q-39 73 -4 131zM494 1454q24 -11 32.5 -8t21 11.5t23.5 8.5q9 -4 25 -11t26.5 -12t23 -12.5t20.5 -15.5q130 -57 242.5 -125t186 -129t126.5 -119 t76.5 -99.5t23.5 -65.5q0 -56 -70 -137t-166.5 -155t-210.5 -149t-187.5 -118t-113.5 -64q-11 0 -23.5 8.5t-21 11.5t-32.5 -8q-32 57 4 131q12 21 24 33q59 58 164 134t189.5 131t148.5 110.5t64 87.5q0 26 -61.5 68t-145 84.5t-189 110.5t-172.5 134q-12 12 -24 33 q-39 73 -4 131z" />
<glyph unicode="&#xbc;" horiz-adv-x="935" d="M-4 -133q13 56 27 67q12 10 32 3q21 29 76.5 131.5t67.5 121.5q-3 25 117 277t245.5 502t126.5 254q2 6 9.5 31.5t12 38t12.5 32.5t18.5 35t23.5 26q9 40 20 65.5t19 70.5q1 2 11.5 1t10.5 7q2 9 0 10.5t-6.5 0t-9.5 3.5q11 8 19.5 18.5t11 16.5t7 9t10 -1.5t17.5 -17.5 q1 -12 -1 -33.5t-1.5 -40t5.5 -33.5q3 -4 5 -6t3 -2t4 -0.5t6 -1.5q-7 -40 -17 -62.5t-27.5 -48.5t-29.5 -51q-21 -84 -214 -529t-245 -515q-5 -10 -13 -35t-15.5 -39t-18.5 -20q5 -10 0 -29q-6 7 -11 2t-7 -4q-15 -43 -57.5 -99.5t-55.5 -84.5q7 0 12 1t8.5 2.5t7 6.5 t5.5 8t6 10.5t6 11.5q5 -6 5 -8.5t-6 -9t-7 -8.5q-41 -88 -92 -139q-30 18 -50.5 19.5t-27.5 -4t-20 2t-35 37.5zM6 1251q10 -12 19 -15t18.5 4t15 13.5t13.5 18.5q24 30 34 71q4 2 10.5 12t14.5 11q0 -5 -2 -11.5t-2 -12.5t4 -13q0 -2 -3 -2t-3 -2q8 -6 3.5 -23.5 t0.5 -29.5q-14 -14 0 -25q-11 -3 -4 -24q1 -1 5 -1.5t5 -2.5q-4 -2 -4 -7t2 -13.5t2 -12.5t-2.5 -13.5t-1.5 -13.5q0 -3 4 -4.5t4 -3.5q-8 -7 -4.5 -36t-1.5 -36q1 -2 4 -4t4 -4q-1 -4 -5 -8.5t-5 -7.5q1 -3 5.5 -2.5t4.5 -1.5q-4 -4 -8 -2q6 -5 -2 -17q0 -2 2 -2t2 -0.5 v-3.5q2 -2 0 -2q-3 -1 -2 -4q2 -15 5.5 -41.5t4.5 -48.5q5 -2 11 -8t8 -7h-17q3 -14 52 -29t75 -12q8 1 18 9.5t17 7.5q1 1 0 3q1 2 2 3q-2 3 -5 9t-5 9q-15 41 -20 79t-6.5 80.5t-4.5 66.5q3 11 3.5 40.5t7.5 39.5q-13 61 4 116q-4 8 -4 9q20 53 2 102q4 4 4 6q-3 0 -4 1.5 t-1 4.5t-1 4q-9 7 -28 15t-24 10q-3 2 -14 8t-16.5 8t-15 4.5t-19.5 1.5q-2 -2 -2 -4q-6 -1 -19 -14q2 -2 2 -8q-16 -27 -38 -79t-44.5 -90.5t-54.5 -64.5zM563 137q8 -8 12 -14q17 -10 37 -8q36 4 81.5 35t70.5 36q-2 -6 -6 -28.5t-10 -34.5q2 -8 1.5 -11t-3 -9t-3.5 -9 q-2 -14 2 -27t-4 -26q2 -6 4 -14q-4 -7 -2.5 -31.5t-3.5 -32.5q1 -5 1.5 -28t7.5 -37q15 -11 30 -9q10 -8 25.5 -9t34.5 1.5t28 1.5q4 8 6 8q-7 17 -5.5 33.5t-0.5 30.5q4 8 4.5 18t-1 24t-1.5 21q0 27 -1 55.5t-1 51.5q10 13 0 33q16 37 4 61q3 1 4.5 2.5t3.5 4t3 3.5 q0 13 4 57t2 66q0 10 -6 19q-3 5 -18 16.5t-23 15.5q-2 1 -6.5 2.5t-6.5 2.5q-23 18 -34 18q-5 -17 -2 -51q-11 -17 -11 -60q-5 -14 -7 -51t-11 -53q-4 -2 -17 -2q-2 -2 -4 -5t-4 -5h-10q-3 -6 -9.5 -10.5t-11 -6.5t-16 -6.5t-14.5 -5.5q-17 -11 -49 -25q28 57 32 95 q7 21 7 24q0 1 -2 4t-2 4q0 3 3 7t3 6q-1 11 -1 27t-1 24q0 2 -2.5 11.5t0.5 10.5q-2 8 -12.5 18.5t-12.5 18.5q-2 3 -9 6q-6 3 -6 5l1 2q-8 -1 -16 7l-9 9q-3 -1 -16 5q-3 1 -2 -1q-3 -2 0 -5t6.5 -7t1.5 -6q-12 3 -23 0q2 -6 5.5 -10.5t11.5 -10t10 -6.5q16 -18 19 -36.5 t-3 -45.5t-6 -33q0 3 2 3t2 -3q-4 -9 -14 -51.5t-23 -58.5q0 -5 -4 -12.5t-4 -8.5z" />
<glyph unicode="&#xbd;" horiz-adv-x="937" d="M-4 -133q13 56 27 67q12 10 32 3q21 29 76.5 131.5t67.5 121.5q-3 25 117 277t245.5 502t126.5 254q2 6 9.5 31.5t12 38t12.5 32.5t18.5 35t23.5 26q9 40 20 65.5t19 70.5q1 2 11.5 1t10.5 7q2 9 0 10.5t-6.5 0t-9.5 3.5q11 8 19.5 18.5t11 16.5t7 9t10 -1.5t17.5 -17.5 q1 -12 -1 -33.5t-1.5 -40t5.5 -33.5q3 -4 5 -6t3 -2t4 -0.5t6 -1.5q-7 -40 -17 -62.5t-27.5 -48.5t-29.5 -51q-21 -84 -214 -529t-245 -515q-5 -10 -13 -35t-15.5 -39t-18.5 -20q5 -10 0 -29q-6 7 -11 2t-7 -4q-15 -43 -57.5 -99.5t-55.5 -84.5q7 0 12 1t8.5 2.5t7 6.5 t5.5 8t6 10.5t6 11.5q5 -6 5 -8.5t-6 -9t-7 -8.5q-41 -88 -92 -139q-30 18 -50.5 19.5t-27.5 -4t-20 2t-35 37.5zM6 1251q10 -12 19 -15t18.5 4t15 13.5t13.5 18.5q24 30 34 71q4 2 10.5 12t14.5 11q0 -5 -2 -11.5t-2 -12.5t4 -13q0 -2 -3 -2t-3 -2q8 -6 3.5 -23.5 t0.5 -29.5q-14 -14 0 -25q-11 -3 -4 -24q1 -1 5 -1.5t5 -2.5q-4 -2 -4 -7t2 -13.5t2 -12.5t-2.5 -13.5t-1.5 -13.5q0 -3 4 -4.5t4 -3.5q-8 -7 -4.5 -36t-1.5 -36q1 -2 4 -4t4 -4q-1 -4 -5 -8.5t-5 -7.5q1 -3 5.5 -2.5t4.5 -1.5q-4 -4 -8 -2q6 -5 -2 -17q0 -2 2 -2t2 -0.5 v-3.5q2 -2 0 -2q-3 -1 -2 -4q2 -15 5.5 -41.5t4.5 -48.5q5 -2 11 -8t8 -7h-17q3 -14 52 -29t75 -12q8 1 18 9.5t17 7.5q1 1 0 3q1 2 2 3q-2 3 -5 9t-5 9q-15 41 -20 79t-6.5 80.5t-4.5 66.5q3 11 3.5 40.5t7.5 39.5q-13 61 4 116q-4 8 -4 9q20 53 2 102q4 4 4 6q-3 0 -4 1.5 t-1 4.5t-1 4q-9 7 -28 15t-24 10q-3 2 -14 8t-16.5 8t-15 4.5t-19.5 1.5q-2 -2 -2 -4q-6 -1 -19 -14q2 -2 2 -8q-16 -27 -38 -79t-44.5 -90.5t-54.5 -64.5zM530 -29q0 -5 2 -8t7 -5t6 -3l9 -9l11 -11t10.5 -9t12.5 -8q21 -9 26 -12q3 3 13 0q12 5 34.5 24t40.5 23q0 6 5 6 q7 2 22.5 8t22.5 8h16q2 0 5 3t5 4q16 3 56 -4.5t53 -8.5h-2q0 -2 1.5 -2.5t3 0t4 1t3.5 -0.5q-1 1 -4 2.5t-4 3.5l2 1q0 1 -2 3q-2 4 -8.5 6.5t-8.5 4.5q1 2 6.5 0.5t6.5 -0.5q-22 9 -27 14q-17 4 -32.5 4.5t-32.5 -1t-25 -1.5q-13 -4 -53 -5.5t-53 -4.5q0 1 4 5t4.5 6.5 t-2.5 8.5q11 5 25 23t20 22q-2 0 -0.5 3.5t0.5 5.5q13 9 10 24q19 19 14 39q15 15 15 23q13 10 25.5 41t23.5 41q-2 6 -1 7q1 0 3 -1q-2 4 0 8q19 18 28 47q-1 2 -1.5 4t0 3.5t1 2.5t0.5 2l-4 4q0 1 2 1t2 1q-32 47 -52 61q-10 7 -21 11q-1 1 -2 4t-2 4q-48 36 -99 15 q-32 -14 -37 -33q-41 -32 -53 -88q-1 -3 -1 -12.5t-1 -12.5q-2 -6 -2 -12q5 -2 12.5 -8t10.5 -8q6 12 13 45.5t17 46.5q14 40 54 59q1 1 1 3q0 1 0.5 2t2.5 1q5 0 15.5 3.5t20 3t19.5 -8.5q1 -18 -9 -42.5t-9 -39.5q-6 -5 -10.5 -25t-10.5 -26q0 -1 1 -2t1 -2q-4 0 -4 -12 q-4 -9 -21 -35t-22 -49q-2 -2 -6 -2q-12 -30 -51 -93q-2 -4 -7 -17t-7 -18.5t-7.5 -16t-9.5 -16.5t-11 -13t-14 -11zM680 29q-4 4 1 5q2 0 3 -1q0 -4 -0.5 -4.5t-3.5 0.5z" />
<glyph unicode="&#xbe;" horiz-adv-x="929" d="M-66 -133q3 11 4 16t3.5 15t5 14t6 11t7.5 9.5t9 5t11 2.5t14 -3q21 29 76 131t67 122q-3 25 117.5 277t246 502t126.5 254q2 8 9 32t11.5 37.5t12.5 33t18.5 34.5t23.5 26q9 40 20 65.5t19 70.5q1 2 12 1t11 7q2 9 0 10.5t-6.5 0t-9.5 3.5q11 8 19.5 18.5t11 16.5t7 9 t10 -1.5t17.5 -17.5q0 -8 -3 -53.5t5 -53.5q3 -4 5 -6t3.5 -2t4.5 -0.5t6 -1.5q-7 -40 -17 -62.5t-27.5 -48.5t-29.5 -51q-21 -84 -214 -529t-245 -515q-5 -10 -13 -35t-15.5 -39t-18.5 -20q5 -10 0 -29q-6 7 -11 2t-7 -4q-15 -43 -57.5 -99.5t-55.5 -84.5q7 0 12 1t8.5 2.5 t7 6.5t5.5 8t6 10.5t6 11.5q5 -6 5 -8.5t-6 -9t-7 -8.5q-41 -88 -92 -139q-30 18 -50.5 19.5t-28 -4t-20.5 2t-35 37.5zM6 1391q2 -5 12 -15q3 1 8 0t7 0q9 10 26.5 32t34 39t33.5 28q1 6 4.5 9t10.5 5t10 4q7 3 21 12t20 11q23 9 40.5 1.5t16.5 -30.5q-2 -17 -19 -51 q-10 -24 -30 -47q-32 -40 -90 -72q-34 -17 -76 -31q2 -2 4 -5.5t3.5 -5.5t4.5 -4t6 -1q3 -5 13.5 -23t19.5 -26h20q37 20 76 4.5t45 -47.5q2 -10 4.5 -17t2.5 -8t-1 -10q5 -14 -4.5 -32.5t-9.5 -23.5q-8 -3 -8 -14q-41 -41 -82 -45q-24 -2 -40 8t-33 31.5t-25 28.5 q-7 0 -19 4q-3 -21 6 -46t27 -38q3 1 0 6q8 -4 26 -14.5t29 -14.5q-6 0 -4 -4q3 1 5 -2t3 -4q2 7 17 0q0 -3 -6.5 -2.5t-5.5 -3.5h30q2 -2 0.5 -4t-0.5 -4q6 2 27 2q0 -2 -3 -3t-3 -3q3 0 19 2.5t20.5 3.5t17 3.5t18.5 5.5t14.5 7t14.5 10q4 4 10 4q25 25 43 33q2 3 12 14.5 t13.5 16.5t8 16t5.5 23q4 24 3.5 30.5t-7.5 24.5t-10 29q-1 3 -4 5.5t-4 4.5q2 2 2 4l-8 8q-19 50 -86 70q3 2 17 14t22 20t14 17q-2 0 -2 2q5 1 7.5 3.5t6.5 8.5l6 9q27 31 25 57q-3 5 -5 20.5t-5 22.5q-6 11 -23.5 26t-23.5 23q-16 35 -70 35q-28 1 -51.5 -10.5t-46 -29 t-35.5 -23.5q-38 -37 -72 -84zM68 1018q1 -1 6 -2.5t6 -3.5q-12 0 -12 6zM563 137q8 -8 12 -14q17 -10 37 -8q36 4 81.5 35t70.5 36q-2 -6 -6 -28.5t-10 -34.5q2 -8 1.5 -11t-3 -9t-3.5 -9q-2 -14 2 -27t-4 -26q2 -6 4 -14q-4 -7 -2.5 -31.5t-3.5 -32.5q1 -5 1.5 -28 t7.5 -37q15 -11 30 -9q10 -8 25.5 -9t34.5 1.5t28 1.5q4 8 6 8q-7 17 -5.5 33.5t-0.5 30.5q4 8 4.5 18t-1 24t-1.5 21q0 27 -1 55.5t-1 51.5q10 13 0 33q16 37 4 61q3 1 4.5 2.5t3.5 4t3 3.5q0 13 4 57t2 66q0 10 -6 19q-3 5 -18 16.5t-23 15.5q-2 1 -6.5 2.5t-6.5 2.5 q-23 18 -34 18q-5 -17 -2 -51q-11 -17 -11 -60q-5 -14 -7 -51t-11 -53q-4 -2 -17 -2q-2 -2 -4 -5t-4 -5h-10q-3 -6 -9.5 -10.5t-11 -6.5t-16 -6.5t-14.5 -5.5q-17 -11 -49 -25q28 57 32 95q7 21 7 24q0 1 -2 4t-2 4q0 3 3 7t3 6q-1 11 -1 27t-1 24q0 2 -2.5 11.5t0.5 10.5 q-2 8 -12.5 18.5t-12.5 18.5q-2 3 -9 6q-6 3 -6 5l1 2q-8 -1 -16 7l-9 9q-3 -1 -16 5q-3 1 -2 -1q-3 -2 0 -5t6.5 -7t1.5 -6q-12 3 -23 0q2 -6 5.5 -10.5t11.5 -10t10 -6.5q16 -18 19 -36.5t-3 -45.5t-6 -33q0 3 2 3t2 -3q-4 -9 -14 -51.5t-23 -58.5q0 -5 -4 -12.5t-4 -8.5z " />
<glyph unicode="&#xbf;" horiz-adv-x="931" d="M0 0q-1 3 0.5 5.5t3 3.5t3 1.5t1.5 1.5q1 9 -2 31.5t-2 30.5q3 20 17.5 60t13.5 59q16 35 57.5 98.5t57.5 103.5q8 -1 13 6.5t13 6.5q-1 6 4 30q80 77 115 164q34 22 74.5 87.5t66.5 86.5q17 60 44.5 115.5t38.5 98t7 116.5q-2 6 1.5 6.5t9.5 -1.5t11 -1t5 8q1 8 -1.5 9 t-6 -1.5t-5.5 -1.5t-1 9q38 -2 84.5 -25.5t64.5 -28.5q6 -10 4 -22q6 7 10 7.5t13 -3.5q16 -31 25.5 -67t11.5 -78t-13 -76q5 -45 -0.5 -74t-16 -42t-25.5 -41t-25 -65q-26 -28 -51.5 -65.5t-58 -90.5t-48.5 -77q-22 -33 -63 -80.5t-69.5 -89t-43.5 -88.5q-5 -19 -24 -63.5 t-29.5 -75t-4 -64t41.5 -49.5q45 -4 78 10.5t65 38t57 31.5q12 19 30 44.5t33 45t32 46t29 49.5t23 53t16 59.5t4.5 65t-7.5 73.5q9 -2 15.5 4.5t11.5 7.5q14 -5 44 -14.5t48 -15.5t43 -16t45 -19q4 -67 -17.5 -131t-53 -128t-40.5 -106q-30 -42 -68.5 -78t-100 -83 t-81.5 -64q-16 -2 -56 -6t-59 -5.5t-54 -3.5t-55 0t-48 7t-45.5 14t-35.5 24t-30 36q-22 -1 -55 17.5t-41 35.5q-46 107 -49 133zM533 1329q-1 10 2 18.5t10 16.5q-6 19 -3.5 23.5t-0.5 23.5q-8 20 -8 41t24 33q50 9 117 6q6 1 10.5 9t5.5 9q49 8 68.5 -5.5t19.5 -45.5 q2 2 2 8.5t2 10.5q9 -9 24 -6.5t30 -0.5q-8 -8 -21 0q1 -6 -5.5 -11.5t-6.5 -10.5q9 -2 13.5 4t14.5 4q3 -9 -8 -11.5t-12 -6.5q4 -6 18.5 -6t18.5 -7q5 14 2 17q10 6 12 -6q3 -14 -8 -17q8 0 8 6q16 -21 9.5 -49.5t-1.5 -54.5q-4 -2 -8 -1t-8 -1v-3q0 -17 10 -16h2 q-6 -6 -16 3q0 2 -1 6t-1 6q-2 -4 2 -12q3 -23 -30.5 -54t-37.5 -51q-3 -1 -6.5 0.5t-5.5 1.5q4 -11 0.5 -16.5t-13.5 -14.5t-12 -14q-12 4 -10.5 29t-5.5 35q-102 4 -121 41q2 3 8 1.5t9 -1.5q-2 4 -10.5 7.5t-13.5 7.5t-1 9q-28 -8 -51 -6q-2 5 -6.5 17t-6.5 18t-3 16z M741 1177.5q-2 -13.5 4 -16.5q1 4 5.5 10t6 9t-2.5 8q-11 3 -13 -10.5zM766 1214q0 -9 8 -12q0 3 4.5 5.5t3.5 6.5h-16zM791 1403q3 -2 8 -6t8 -6q0 8 4 8q-1 -5 3 -6.5t9.5 -1.5t10.5 -1.5t6 -5.5q-5 0 -6.5 -5.5t-2.5 -6.5q9 -4 19 -2q1 3 5.5 9.5t2.5 13.5q-7 -1 -6 1 q-1 5 -2 5q-8 -3 -31 2.5t-28 1.5zM799 1624q3 3 4 15.5t4 15.5h18q-2 -8 -2 -14.5t-2 -12.5q-6 1 -11 -2t-11 -2zM833 1404q1 0 3 -1q0 4 0.5 5t2.5 -2q6 -6 9 -7q0 2 3 3.5t3 2.5q-5 10 -21 6q-8 -2 0 -7z" />
<glyph unicode="&#xc0;" d="M-430 -35q56 91 235 437t232 460q-5 7 -28.5 18t-24.5 25q8 0 10 3.5t0.5 10.5t-0.5 9q17 2 39 -1.5t35 -2.5q11 2 23.5 19t19.5 20q4 8 3.5 19t4.5 11q4 7 26.5 38.5t30.5 53.5q3 2 11.5 12.5t15.5 10.5q108 209 289 453q10 15 29 36t32 39t18 39q65 0 175.5 -20 t138.5 -45q11 -11 24 -32t27.5 -36.5t36.5 -23.5q4 -24 -11 -65.5t-39 -98.5t-34 -97q-6 -27 -16.5 -67.5t-16 -62.5t-12.5 -58t-7 -54.5t1 -51.5q-7 -14 -13 -30.5t-9.5 -28t-7.5 -33t-5.5 -30t-5 -35t-4.5 -32.5q-3 -6 -0.5 -27t2.5 -26q-2 -27 -63.5 -362.5t-55.5 -389.5 q-9 1 -23 -4t-24 -4q-5 -8 -5 -17t2 -12.5t-1 -5.5q-19 2 -133 4t-188 14.5t-91 43.5q23 72 80 418t69 395q-40 8 -133 13t-120 9q-49 -71 -240 -440t-227 -426q-45 0 -72 8zM162 932q30 -15 113 -17.5t92 -3.5q4 1 7 9t7 8q13 47 55.5 222.5t75.5 270.5q31 82 31 109 q-37 -51 -104.5 -144.5t-104.5 -144.5q0 8 -4 0q5 -3 -2.5 -15.5t-1.5 -15.5h-19q3 -10 1 -19.5t-11 -2.5q-3 -6 1.5 -12.5t-1.5 -14.5q-15 -7 -28.5 -44t-37.5 -48q8 -5 5 -18q-25 -16 -43.5 -61.5t-30.5 -57.5zM553 1972q0 24 10 47q40 19 80 31h4q23 -9 31 -14 q5 -2 14 -8.5t13 -8.5l4 -4h2q6 -6 10 -8q67 -144 129 -219q-2 -5 -6 -12.5t-5.5 -13t-0.5 -11.5h-23q-37 -88 -125 33q-6 9 -17 25l-7 10q-88 116 -113 153zM668 1595q16 -12 30 -12q4 8 -1 13t-14 5t-15 -6z" />
<glyph unicode="&#xc1;" d="M-430 -35q27 -8 72 -8q36 57 227 426t240 440q27 -4 120 -9t133 -13q-12 -49 -69 -395t-80 -418q17 -31 91 -43.5t188 -14.5t133 -4q2 1 1 6t-2 12.5t5 16.5q10 -1 24 4t23 4q-6 54 55.5 389.5t63.5 362.5q0 5 -2.5 26t0.5 27q1 6 4.5 32.5t5 35t5.5 30t7.5 33t9.5 28 t13 30.5q-1 33 -1 51.5t7 54.5t12.5 58t16 62.5t16.5 67.5q10 40 34 97t39 98.5t11 65.5q-22 8 -36.5 23.5t-27.5 36.5t-24 32q-28 25 -138.5 45t-175.5 20q-5 -21 -18 -39t-32 -39t-29 -36q-181 -244 -289 -453q-7 0 -15.5 -10.5t-11.5 -12.5q-8 -22 -30.5 -53.5 t-26.5 -38.5q-5 -3 -4.5 -11t-3.5 -19q-7 -3 -19.5 -20t-23.5 -19q-13 -1 -35 2.5t-39 1.5q-1 -2 0.5 -9t-0.5 -10.5t-10 -3.5q1 -14 24.5 -25t28.5 -18q-53 -114 -232 -460t-235 -437zM162 932q12 12 30.5 57.5t43.5 61.5q3 13 -5 18q24 11 37.5 48t28.5 44q6 8 1.5 14.5 t-1.5 12.5q9 -7 11 2.5t-1 19.5h19q-6 3 1.5 15.5t2.5 15.5q4 8 4 0q37 51 104.5 144.5t104.5 144.5q0 -27 -31 -109q-33 -95 -75.5 -270.5t-55.5 -222.5q-4 0 -7 -8t-7 -9q-9 1 -92 3.5t-113 17.5zM668 1595q6 6 15 6t14 -5t1 -13q-14 0 -30 12zM676 1788q62 75 129 219 q4 2 10 8h2l4 4q4 2 13 8.5t14 8.5q8 5 31 14h4q40 -12 80 -31q10 -23 10 -47q-25 -37 -113 -153q-49 -70 -72 -89q-51 -39 -77 21h-23q1 6 -0.5 11.5t-5.5 13t-6 12.5z" />
<glyph unicode="&#xc2;" d="M-430 -35q27 -8 72 -8q36 57 227 426t240 440q27 -4 120 -9t133 -13q-12 -49 -69 -395t-80 -418q17 -31 91 -43.5t188 -14.5t133 -4q2 1 1 6t-2 12.5t5 16.5q10 -1 24 4t23 4q-6 54 55.5 389.5t63.5 362.5q0 5 -2.5 26t0.5 27q1 6 4.5 32.5t5 35t5.5 30t7.5 33t9.5 28 t13 30.5q-1 33 -1 51.5t7 54.5t12.5 58t16 62.5t16.5 67.5q10 40 34 97t39 98.5t11 65.5q-22 8 -36.5 23.5t-27.5 36.5t-24 32q-28 25 -138.5 45t-175.5 20q-5 -21 -18 -39t-32 -39t-29 -36q-181 -244 -289 -453q-7 0 -15.5 -10.5t-11.5 -12.5q-8 -22 -30.5 -53.5 t-26.5 -38.5q-5 -3 -4.5 -11t-3.5 -19q-7 -3 -19.5 -20t-23.5 -19q-13 -1 -35 2.5t-39 1.5q-1 -2 0.5 -9t-0.5 -10.5t-10 -3.5q1 -14 24.5 -25t28.5 -18q-53 -114 -232 -460t-235 -437zM162 932q12 12 30.5 57.5t43.5 61.5q3 13 -5 18q24 11 37.5 48t28.5 44q6 8 1.5 14.5 t-1.5 12.5q9 -7 11 2.5t-1 19.5h19q-6 3 1.5 15.5t2.5 15.5q4 8 4 0q37 51 104.5 144.5t104.5 144.5q0 -27 -31 -109q-33 -95 -75.5 -270.5t-55.5 -222.5q-4 0 -7 -8t-7 -9q-9 1 -92 3.5t-113 17.5zM410 1788q62 75 129 219q4 2 10 8h2l4 4q4 2 13.5 8.5t13.5 8.5 q10 6 30 14h4q40 -12 80 -31q11 -26 11 -47q-25 -37 -113 -153q-50 -72 -75 -91q-49 -38 -75 23h-22q1 6 -0.5 11.5t-5.5 13t-6 12.5zM668 1595q6 6 15 6t14 -5t1 -13q-14 0 -30 12zM707 1972q0 24 10 47q40 19 80 31h4q20 -8 30 -14q5 -2 14 -8.5t13 -8.5l4 -4h2 q6 -6 10 -8q65 -142 130 -219q-2 -6 -6 -13t-6 -12.5t-1 -11.5h-22q-37 -89 -128 36q0 1 -22 32q-77 102 -112 153z" />
<glyph unicode="&#xc3;" d="M-430 -35q56 91 235 437t232 460q-5 7 -28.5 18t-24.5 25q8 0 10 3.5t0.5 10.5t-0.5 9q17 2 39 -1.5t35 -2.5q11 2 23.5 19t19.5 20q4 8 3.5 19t4.5 11q4 7 26.5 38.5t30.5 53.5q3 2 11.5 12.5t15.5 10.5q108 209 289 453q10 15 29 36t32 39t18 39q65 0 175.5 -20 t138.5 -45q11 -11 24 -32t27.5 -36.5t36.5 -23.5q4 -24 -11 -65.5t-39 -98.5t-34 -97q-6 -27 -16.5 -67.5t-16 -62.5t-12.5 -58t-7 -54.5t1 -51.5q-7 -14 -13 -30.5t-9.5 -28t-7.5 -33t-5.5 -30t-5 -35t-4.5 -32.5q-3 -6 -0.5 -27t2.5 -26q-2 -27 -63.5 -362.5t-55.5 -389.5 q-9 1 -23 -4t-24 -4q-5 -8 -5 -17t2 -12.5t-1 -5.5q-19 2 -133 4t-188 14.5t-91 43.5q23 72 80 418t69 395q-40 8 -133 13t-120 9q-49 -71 -240 -440t-227 -426q-45 0 -72 8zM162 932q30 -15 113 -17.5t92 -3.5q4 1 7 9t7 8q13 47 55.5 222.5t75.5 270.5q31 82 31 109 q-37 -51 -104.5 -144.5t-104.5 -144.5q0 8 -4 0q5 -3 -2.5 -15.5t-1.5 -15.5h-19q3 -10 1 -19.5t-11 -2.5q-3 -6 1.5 -12.5t-1.5 -14.5q-15 -7 -28.5 -44t-37.5 -48q8 -5 5 -18q-25 -16 -43.5 -61.5t-30.5 -57.5zM432 1751q32 86 98 111q10 4 25 14h4q8 4 29.5 10.5t55 13 t71 3t63.5 -20.5q11 -10 23.5 -19t29.5 -19l25.5 -15t31 -16.5t27.5 -14.5q66 -36 123 0q8 4 34.5 15t43.5 21.5t29 27.5q3 3 9.5 5t8.5 -1q4 -2 7.5 -6t6 -10t3.5 -7q4 -4 0 -12q-3 -7 -12.5 -27.5t-14.5 -29.5t-14.5 -23.5t-21.5 -24t-27 -16.5q-36 -18 -41 -22 q-36 -22 -76 -19q-2 0 -4.5 0.5t-4.5 1t-3.5 0t-2.5 -1.5q-73 -14 -159 43q-52 34 -107 51q-60 13 -110 -6q-15 -6 -53.5 -21t-59.5 -24q-20 -10 -31 4q-14 11 -6 35zM668 1595q16 -12 30 -12q4 8 -1 13t-14 5t-15 -6z" />
<glyph unicode="&#xc4;" d="M-430 -35q27 -8 72 -8q36 57 227 426t240 440q27 -4 120 -9t133 -13q-12 -49 -69 -395t-80 -418q17 -31 91 -43.5t188 -14.5t133 -4q2 1 1 6t-2 12.5t5 16.5q10 -1 24 4t23 4q-6 54 55.5 389.5t63.5 362.5q0 5 -2.5 26t0.5 27q1 6 4.5 32.5t5 35t5.5 30t7.5 33t9.5 28 t13 30.5q-1 33 -1 51.5t7 54.5t12.5 58t16 62.5t16.5 67.5q10 40 34 97t39 98.5t11 65.5q-22 8 -36.5 23.5t-27.5 36.5t-24 32q-28 25 -138.5 45t-175.5 20q-5 -21 -18 -39t-32 -39t-29 -36q-181 -244 -289 -453q-7 0 -15.5 -10.5t-11.5 -12.5q-8 -22 -30.5 -53.5 t-26.5 -38.5q-5 -3 -4.5 -11t-3.5 -19q-7 -3 -19.5 -20t-23.5 -19q-13 -1 -35 2.5t-39 1.5q-1 -2 0.5 -9t-0.5 -10.5t-10 -3.5q1 -14 24.5 -25t28.5 -18q-53 -114 -232 -460t-235 -437zM162 932q12 12 30.5 57.5t43.5 61.5q3 13 -5 18q24 11 37.5 48t28.5 44q6 8 1.5 14.5 t-1.5 12.5q9 -7 11 2.5t-1 19.5h19q-6 3 1.5 15.5t2.5 15.5q4 8 4 0q37 51 104.5 144.5t104.5 144.5q0 -27 -31 -109q-33 -95 -75.5 -270.5t-55.5 -222.5q-4 0 -7 -8t-7 -9q-9 1 -92 3.5t-113 17.5zM471 1774q0 73 16 106q23 42 107 68q24 -8 24 -39q2 1 5 14 q7 -7 17.5 -5.5t21.5 -0.5q-4 -6 -15 0q1 -4 -4.5 -8t-5.5 -8q7 -2 10 2.5t10 3.5q3 -7 -5 -9.5t-9 -5.5q3 -4 14.5 -3.5t12.5 -4.5q5 11 4 12q6 5 7.5 -5t-5.5 -11q6 0 6 4q11 -17 7 -38.5t-1 -39.5q-3 -2 -6 -1t-6 -1q0 -14 10 -14q-7 -3 -12 2l-4 10q0 -8 4 -10 q1 -16 -19.5 -35.5t-23.5 -25.5h-8l-31 -5q-1 0 -3 -1t-3 -1l-2 5q-79 4 -90 30q2 3 4 1.5t6 -1.5q-1 2 -3.5 4t-5.5 3.5t-6 3.5t-3.5 3.5t1.5 4.5zM629 1866q1 -1 5 -4t7 -4q0 6 2 6q-1 -3 2 -4.5t7 -1.5t8 -1t4 -4q-2 0 -3 -3q-1 -5 -4 -5q8 -4 17 -2q0 2 3.5 7.5t2.5 9.5 q-5 1 -5 2q3 2 -1 2q-6 -2 -24.5 2.5t-20.5 -0.5zM660 1873q-6 -2 2 -7l1 5l1 -2q3 -5 6 -5q0 2 3 3t3 3q-6 8 -16 3zM668 1595q6 6 15 6t14 -5t1 -13q-14 0 -30 12zM813 1833q0 48 10 68q8 14 39 32h21q5 1 9 7l3 6q37 7 52.5 -3t13.5 -34q1 0 4 14q7 -7 17.5 -5.5 t21.5 -0.5q-4 -6 -15 0q1 -4 -4.5 -8t-5.5 -8q7 -2 11 2.5t11 3.5q2 -7 -6.5 -9.5t-9.5 -5.5q3 -4 14.5 -3.5t14.5 -4.5q0 2 1 4.5t1.5 4t-0.5 3.5q7 4 8.5 -5t-6.5 -11q6 0 6 4q11 -17 7 -38.5t-1 -39.5q-3 -2 -6 -1t-6 -1q0 -14 10 -14q-7 -3 -12 2q0 2 -1 5t-1 5 q-3 -5 2 -10q2 -12 -5 -21.5t-19.5 -20.5t-18.5 -19h-8l-31 -5q-1 0 -3 -1t-3 -1l-2 5q-76 4 -90 30q2 3 5.5 1.5t6.5 -1.5q-1 2 -4 4t-6.5 3.5t-6.5 3.5t-3.5 3.5t1.5 4.5l-14 -4q0 41 -2 59zM971 1866l12 -8q0 6 2 6q-1 -3 2.5 -4.5t7.5 -1.5t8 -1t5 -4q-3 0 -4 -4t-3 -4 q5 -5 15 -2q0 2 3.5 7.5t2.5 9.5q-5 1 -5 2q3 2 -1 2q-6 -2 -24.5 2.5t-20.5 -0.5zM1002 1873q-6 -2 2 -7q1 7 4 2q4 -3 6 -4q0 2 2 3t2 3q-4 8 -16 3z" />
<glyph unicode="&#xc5;" d="M-430 -35q27 -8 72 -8q36 57 227 426t240 440q27 -4 120 -9t133 -13q-12 -49 -69 -395t-80 -418q17 -31 91 -43.5t188 -14.5t133 -4q2 1 1 6t-2 12.5t5 16.5q10 -1 24 4t23 4q-6 54 55.5 389.5t63.5 362.5q0 5 -2.5 26t0.5 27q1 6 4.5 32.5t5 35t5.5 30t7.5 33t9.5 28 t13 30.5q-1 33 -1 51.5t7 54.5t12.5 58t16 62.5t16.5 67.5q10 40 34 97t39 98.5t11 65.5q-22 8 -36.5 23.5t-27.5 36.5t-24 32q-28 25 -138.5 45t-175.5 20q-5 -21 -18 -39t-32 -39t-29 -36q-181 -244 -289 -453q-7 0 -15.5 -10.5t-11.5 -12.5q-8 -22 -30.5 -53.5 t-26.5 -38.5q-5 -3 -4.5 -11t-3.5 -19q-7 -3 -19.5 -20t-23.5 -19q-13 -1 -35 2.5t-39 1.5q-1 -2 0.5 -9t-0.5 -10.5t-10 -3.5q1 -14 24.5 -25t28.5 -18q-53 -114 -232 -460t-235 -437zM162 932q12 12 30.5 57.5t43.5 61.5q3 13 -5 18q24 11 37.5 48t28.5 44q6 8 1.5 14.5 t-1.5 12.5q9 -7 11 2.5t-1 19.5h19q-6 3 1.5 15.5t2.5 15.5q4 8 4 0q37 51 104.5 144.5t104.5 144.5q0 -27 -31 -109q-33 -95 -75.5 -270.5t-55.5 -222.5q-4 0 -7 -8t-7 -9q-9 1 -92 3.5t-113 17.5zM655 1759q0 72 17 105q21 41 106 67q10 -2 35.5 -14t32.5 -14 q-4 -7 12 -23q6 5 7.5 -5t-5.5 -11q6 0 6 4q8 -18 6.5 -42.5t-5 -35.5t2.5 -14q-44 -44 -55 -62h-8q-5 -1 -15.5 -2t-15.5 -2h-6q-82 10 -92 35q4 1 -8 8zM668 1595q6 6 15 6t14 -5t1 -13q-14 0 -30 12zM705 1788q11 -7 14 -16q2 0 9.5 -2.5t18 -5t23.5 -5.5h2q3 0 8 1t8 1 q5 6 16 17t15 16q0 2 1 5t1 5q5 24 2 41l-28 27q-3 1 -17 8q-51 -18 -63 -39q-6 -14 -10 -53z" />
<glyph unicode="&#xc6;" horiz-adv-x="1540" d="M-416 -6q56 91 236 438t231 457q-5 8 -28 19t-25 26q8 -1 10 2.5t0.5 10.5t-0.5 9q16 1 38 -3t36 -3q11 3 24 20t19 21q4 8 3.5 18.5t4.5 12.5q4 7 26.5 38t30.5 54q3 2 12 12t17 11q100 196 287 452q9 12 30 34.5t33 40.5t17 40q85 -7 108 -10q2 0 6 -1t5 -1q7 -1 20 -3 t20 -3q126 -22 154 -50l8 -8q41 0 153 3t169.5 3t131.5 -5.5t114 -18.5q1 -2 10.5 -17t13.5 -24q-9 -18 -22 -31q-43 -2 -130 5.5t-139 4.5q-35 -52 -49 -168q-4 -3 -12 0q-4 -28 -10.5 -56t-19 -70t-15.5 -54q-2 -6 -56 -134t-53 -157q22 6 76.5 9t81.5 10q3 -5 20 -19.5 t19 -29.5q-8 -7 -23 -31q-29 3 -61 -1t-52 -9t-51.5 -15.5t-44.5 -13.5q0 -30 -26 -145.5t-25 -151.5q-2 -5 -9 -2t-13 2q0 -1 5.5 -16t6.5 -25q-8 -2 -10.5 5.5t-5.5 8.5q-2 -14 3 -37.5t3 -33.5q-2 7 -3.5 11t-3.5 5.5t-3.5 1.5t-3.5 -2.5t-3.5 -5t-4.5 -7l-5 -7.5 q0 -4 3.5 -3t8.5 3.5t11 -0.5q1 -24 -6.5 -33t-22.5 -15q3 -8 10 -9q4 0 2 7v2q8 -17 5.5 -41.5t2.5 -37.5q-15 -6 -28 -19q0 -6 7 -1t7 -3q2 -12 -4 -17.5t-18 -2.5q15 -23 -0.5 -94.5t2.5 -92.5q39 -2 122 -0.5t119 0.5q14 -16 17 -49q-6 1 -11 -5t-8 -7q-107 8 -264 -12 q-40 -4 -174 -23q0 -1 -1 -2t-1 -2q-2 0 -6 1t-6 1q-159 -23 -238 -27q-23 10 -35 25q2 4 2 14q-61 6 -96 23q-24 9 -33 24q20 58 92 486q41 254 58 327q-40 8 -132.5 13.5t-119.5 9.5q-51 -72 -243 -442t-226 -424q-39 0 -72 10zM178 961q29 -16 110 -18.5t95 -4.5 q3 1 5.5 9t6.5 9q13 46 55.5 221t75.5 271q32 88 33 111q-150 -205 -211 -291q0 8 -4 0q6 -3 -2 -15t-2 -16h-18q1 -5 1.5 -9.5t0 -9.5t-3.5 -6t-9 2q-3 -7 1.5 -12.5t0.5 -13.5q-16 -7 -29.5 -43.5t-37.5 -48.5q8 -3 4 -17q-25 -16 -43 -61t-29 -57z" />
<glyph unicode="&#xc7;" horiz-adv-x="1118" d="M9.5 186.5q-7.5 98.5 3 211.5t36 217.5t57.5 179.5q29 65 90.5 182.5t82.5 161.5q8 18 15 53.5t15 52.5q47 97 123 199q62 83 146 174q6 6 22 6q6 2 3.5 10t4.5 11q46 27 156.5 13.5t144.5 -40.5q0 -27 -2 -35q12 1 24 4t25 8t21 7q2 -1 27 -16t47 -15q8 -8 15 -27.5 t11 -25.5q-2 -30 -6 -60.5t-8 -53t-13 -53.5l-13.5 -46.5t-17.5 -49t-17 -43.5t-19 -47t-18 -43q-12 2 -20 -11t-11 -15q-32 15 -37.5 53t5.5 76t27.5 92t20.5 82q-80 -50 -137 -180q-4 -1 -10.5 -10t-14.5 -9q-15 -41 -150 -313t-157 -342q-7 -23 -15 -72.5t-15 -73.5 q-21 -74 -31.5 -126t-7.5 -111.5t26 -104.5q47 12 81.5 48t68 88t57.5 75q15 41 64 131.5t65 153.5q13 -3 32 10t40 4q-3 -15 -5 -47t-8 -52.5t-22 -37.5q-65 -241 -164 -324q-6 -2 -5 -11t1 -11q-6 -5 -48.5 -46.5t-76 -59.5t-78.5 -21q-5 -1 -7.5 -10t-8.5 -8 q-21 3 -131.5 2.5t-130.5 1.5q-67 9 -106 77t-46.5 166.5zM41 -547q-6 46 27 80q2 -1 9.5 -1t12.5 -3q-4 -21 14 -46.5t44 -41t54 -19t44 18.5q1 3 1.5 11t2.5 13q18 32 13.5 68.5t-32.5 68t-67 36.5q5 9 3 16t-0.5 15.5t11.5 13.5q-2 2 -6 2.5t-6 3.5q16 155 70 233 q21 0 38 -24q-9 -19 -15.5 -42t-9 -38t-7 -44.5t-6.5 -41.5q11 -7 34.5 -22t37.5 -24.5t31 -25.5t26 -33q2 -2 6.5 -2.5t7.5 -3.5q19 -44 24 -86.5t-15 -89.5t-71 -76q2 4 2 10q-43 -39 -106 -40.5t-117 34.5q-49 34 -55 80z" />
<glyph unicode="&#xc8;" horiz-adv-x="1400" d="M-88 39q11 3 43.5 4t46.5 8q7 32 19 97.5t23 118.5t22 93q11 39 41 110.5t40 100.5q10 31 62.5 168t62.5 168q23 77 75 194t116.5 252t87.5 189q-10 6 -23.5 11.5t-31.5 11t-27 8.5q0 43 -6 80q2 2 8.5 3t10 3.5t1.5 9.5q6 -1 17 -11t28 -5q11 3 4 12.5t-2 17.5 q2 2 13.5 4.5t13.5 8.5q7 -2 12 -13.5t11 -13.5q114 -13 247 -7t289.5 4t222.5 -24q2 -4 10 -17t11 -21q-13 -20 -27 -31q-46 -3 -131 4t-137 4q-41 -51 -70 -166q-3 -3 -4 -3.5t-3.5 1t-4.5 2.5q-12 -52 -68 -180q-6 -16 -73.5 -139.5t-69.5 -151.5q24 6 78.5 8.5t81.5 8.5 q2 -4 17 -19.5t16 -30.5q-15 -12 -27 -30q-34 0 -48 1t-45 -6t-42.5 -10t-40 -12t-37.5 -12q-3 -30 -43.5 -146.5t-44.5 -150.5q-2 -5 -8.5 -2t-12.5 2q0 -1 3.5 -15t3.5 -24q-8 -2 -11 4.5t-6 7.5q-3 -13 -1 -36.5t-1 -32.5q-1 17 -6 18q-4 -2 -20 -23q0 -4 3.5 -3t8.5 3.5 t10 -0.5q-1 -17 -7 -27.5t-9.5 -13t-16.5 -8.5q0 -5 8 -7q5 -1 5 5v2q5 -16 -2 -40.5t-3 -37.5q-25 -15 -28 -18q-1 -5 1 -4q1 0 4 2q7 4 7 0v-2q0 -26 -24 -23q12 -22 -12 -92.5t-9 -93.5q43 -2 121.5 0t120.5 0q10 -11 11 -20t-1 -27q-6 0 -11.5 -6.5t-6.5 -7.5 q-83 7 -204.5 -4.5t-224.5 -28.5t-216 -27t-181 -2q-16 45 -10 76zM635 1972q0 24 10 47q40 19 80 31h4q23 -9 31 -14q4 -2 13 -8t13 -9q3 -2 5 -4h2q6 -6 10 -8q67 -144 129 -219q-2 -5 -6 -12.5t-5.5 -13t-0.5 -11.5h-23q-37 -88 -125 33q-6 9 -17 25l-7 10 q-88 116 -113 153z" />
<glyph unicode="&#xc9;" horiz-adv-x="1400" d="M-88 39q-6 -31 10 -76q68 -8 181 2t216 27t224.5 28.5t204.5 4.5q1 1 6.5 7.5t11.5 6.5q2 18 1 27t-11 20q-42 2 -120.5 0t-121.5 0q-15 23 9 93.5t12 92.5q24 -3 24 23q1 7 -5 3q-8 -5 -8 -2q1 1 1 3q3 3 28 18q-4 13 3 37.5t2 40.5q1 -7 -3 -7q-8 1 -10 7q1 1 4.5 2.5 t5 2t4.5 2.5t4 3l3.5 3.5t3.5 4.5t3 5.5t2.5 7t1.5 8.5t1 10q-4 2 -10 0t-8.5 -3.5t-3.5 3.5q1 2 3 4.5t3 3.5q5 7 7.5 10t5.5 4.5t4.5 -3t2.5 -14.5q3 10 1 32.5t1 36.5q3 -1 6 -7.5t11 -4.5q0 7 -1.5 14l-3 14t-2.5 11q6 1 12.5 -2t8.5 2q4 34 44.5 150.5t43.5 146.5 q9 3 37.5 12t40 12t42.5 10t45 6t48 -1q12 18 27 30q-1 15 -16 30.5t-17 19.5q-27 -6 -81.5 -8.5t-78.5 -8.5q2 28 69.5 151.5t73.5 139.5q56 128 68 180q2 -1 3.5 -2t2.5 -1t2.5 0.5t3.5 2.5q29 115 70 166q52 3 137 -4t131 -4q14 11 27 31q-3 8 -11 21t-10 17 q-66 22 -222.5 24t-289.5 -4t-247 7q-6 2 -11 13.5t-12 13.5q-2 -6 -13.5 -8.5t-13.5 -4.5q-5 -8 2 -17.5t-4 -12.5q-17 -5 -28 5t-17 11q2 -7 -1.5 -9.5t-10 -3.5t-8.5 -3q6 -37 6 -80q9 -3 27 -8.5t31.5 -11t23.5 -11.5q-23 -54 -87.5 -189t-116.5 -252t-75 -194 q-10 -31 -62.5 -168t-62.5 -168q-10 -29 -40 -100.5t-41 -110.5q-11 -40 -22 -93t-23 -118.5t-19 -97.5q-14 -7 -46.5 -8t-43.5 -4zM758 1788q62 75 129 219q4 2 10 8h2l4 4q4 2 13.5 8.5t13.5 8.5q8 5 31 14h4q38 -11 79 -31q11 -26 11 -47q-25 -37 -113 -153 q-49 -70 -72 -89q-51 -39 -77 21h-23q1 6 -0.5 11.5t-5.5 13t-6 12.5z" />
<glyph unicode="&#xca;" horiz-adv-x="1400" d="M-88 39q-6 -31 10 -76q68 -8 181 2t216 27t224.5 28.5t204.5 4.5q1 1 6.5 7.5t11.5 6.5q2 18 1 27t-11 20q-42 2 -120.5 0t-121.5 0q-15 23 9 93.5t12 92.5q24 -3 24 23q1 7 -5 3q-8 -5 -8 -2q1 1 1 3q3 3 28 18q-4 13 3 37.5t2 40.5q1 -7 -3 -7q-8 1 -10 7q1 1 4.5 2.5 t5 2t4.5 2.5t4 3l3.5 3.5t3.5 4.5t3 5.5t2.5 7t1.5 8.5t1 10q-4 2 -10 0t-8.5 -3.5t-3.5 3.5q1 2 3 4.5t3 3.5q5 7 7.5 10t5.5 4.5t4.5 -3t2.5 -14.5q3 10 1 32.5t1 36.5q3 -1 6 -7.5t11 -4.5q0 7 -1.5 14l-3 14t-2.5 11q6 1 12.5 -2t8.5 2q4 34 44.5 150.5t43.5 146.5 q9 3 37.5 12t40 12t42.5 10t45 6t48 -1q12 18 27 30q-1 15 -16 30.5t-17 19.5q-27 -6 -81.5 -8.5t-78.5 -8.5q2 28 69.5 151.5t73.5 139.5q56 128 68 180q2 -1 3.5 -2t2.5 -1t2.5 0.5t3.5 2.5q29 115 70 166q52 3 137 -4t131 -4q14 11 27 31q-3 8 -11 21t-10 17 q-66 22 -222.5 24t-289.5 -4t-247 7q-6 2 -11 13.5t-12 13.5q-2 -6 -13.5 -8.5t-13.5 -4.5q-5 -8 2 -17.5t-4 -12.5q-17 -5 -28 5t-17 11q2 -7 -1.5 -9.5t-10 -3.5t-8.5 -3q6 -37 6 -80q9 -3 27 -8.5t31.5 -11t23.5 -11.5q-23 -54 -87.5 -189t-116.5 -252t-75 -194 q-10 -31 -62.5 -168t-62.5 -168q-10 -29 -40 -100.5t-41 -110.5q-11 -40 -22 -93t-23 -118.5t-19 -97.5q-14 -7 -46.5 -8t-43.5 -4zM655 1788q62 75 129 219q6 3 11 8h2l4 4q4 3 13 9t13 8q8 5 31 14h4q40 -12 80 -31q10 -23 10 -47q-35 -51 -112 -153q-50 -72 -75 -91 q-49 -38 -75 23h-22q1 6 -1 11.5t-6 12.5t-6 13zM952 1972q0 21 11 47q41 20 79 31h5q20 -8 30 -14q5 -2 14 -8.5t13 -8.5l4 -4h2q6 -6 10 -8q67 -144 129 -219q-2 -5 -6 -12.5t-5.5 -13t-0.5 -11.5h-23q-37 -88 -125 33q-6 9 -17 25q-5 7 -7 10q-88 116 -113 153z" />
<glyph unicode="&#xcb;" horiz-adv-x="1400" d="M-88 39q-6 -31 10 -76q68 -8 181 2t216 27t224.5 28.5t204.5 4.5q1 1 6.5 7.5t11.5 6.5q2 18 1 27t-11 20q-42 2 -120.5 0t-121.5 0q-15 23 9 93.5t12 92.5q24 -3 24 23q1 7 -5 3q-8 -5 -8 -2q1 1 1 3q3 3 28 18q-4 13 3 37.5t2 40.5q1 -7 -3 -7q-8 1 -10 7q1 1 4.5 2.5 t5 2t4.5 2.5t4 3l3.5 3.5t3.5 4.5t3 5.5t2.5 7t1.5 8.5t1 10q-4 2 -10 0t-8.5 -3.5t-3.5 3.5q1 2 3 4.5t3 3.5q5 7 7.5 10t5.5 4.5t4.5 -3t2.5 -14.5q3 10 1 32.5t1 36.5q3 -1 6 -7.5t11 -4.5q0 7 -1.5 14l-3 14t-2.5 11q6 1 12.5 -2t8.5 2q4 34 44.5 150.5t43.5 146.5 q9 3 37.5 12t40 12t42.5 10t45 6t48 -1q12 18 27 30q-1 15 -16 30.5t-17 19.5q-27 -6 -81.5 -8.5t-78.5 -8.5q2 28 69.5 151.5t73.5 139.5q56 128 68 180q2 -1 3.5 -2t2.5 -1t2.5 0.5t3.5 2.5q29 115 70 166q52 3 137 -4t131 -4q14 11 27 31q-3 8 -11 21t-10 17 q-66 22 -222.5 24t-289.5 -4t-247 7q-6 2 -11 13.5t-12 13.5q-2 -6 -13.5 -8.5t-13.5 -4.5q-5 -8 2 -17.5t-4 -12.5q-17 -5 -28 5t-17 11q2 -7 -1.5 -9.5t-10 -3.5t-8.5 -3q6 -37 6 -80q9 -3 27 -8.5t31.5 -11t23.5 -11.5q-23 -54 -87.5 -189t-116.5 -252t-75 -194 q-10 -31 -62.5 -168t-62.5 -168q-10 -29 -40 -100.5t-41 -110.5q-11 -40 -22 -93t-23 -118.5t-19 -97.5q-14 -7 -46.5 -8t-43.5 -4zM614 1774q0 71 17 106q23 42 106 68q25 -8 25 -39q1 0 4 14q7 -7 17.5 -5.5t21.5 -0.5q-3 -5 -14 0q1 -4 -5 -8t-6 -8q7 -2 10.5 2.5 t10.5 3.5q3 -7 -5.5 -9.5t-9.5 -5.5q3 -4 14.5 -3.5t12.5 -4.5q5 11 4 12q6 5 7.5 -5t-5.5 -11q6 0 6 4q11 -17 7 -38.5t-1 -39.5q-3 -2 -6 -1t-6 -1q0 -14 10 -14q-7 -3 -12 2l-4 10q0 -8 4 -10q1 -16 -19.5 -35.5t-23.5 -25.5h-8l-31 -5q-1 0 -3 -1t-3 -1l-2 5 q-79 4 -90 30q2 3 4.5 1.5t5.5 -1.5q-1 2 -3.5 4t-5.5 3.5t-5.5 3.5t-3 3.5t1.5 4.5zM772 1866q1 -1 5 -4t7 -4q0 6 2 6q-1 -3 2 -4.5t7 -1.5t8 -1t4 -4q-2 0 -2.5 -4t-3.5 -4q8 -4 16 -2q0 2 3.5 7.5t2.5 9.5q-5 1 -5 2q3 2 -1 2q-6 -2 -24.5 2.5t-20.5 -0.5zM803 1873 q-6 -2 2 -7l1 5l1 -2q3 -5 6 -5q0 2 3 3t3 3q-6 8 -16 3zM956 1833q0 46 11 68q8 14 39 32h20q5 1 8 7l4 6q37 7 52.5 -3t13.5 -34q1 0 4 14q7 -7 17.5 -5.5t21.5 -0.5q-3 -5 -14 0q1 -4 -5 -8t-6 -8q7 -2 11.5 2.5t11.5 3.5q2 -7 -7 -9.5t-10 -5.5q3 -4 14.5 -3.5 t14.5 -4.5q0 2 1 4.5t1.5 4t-0.5 3.5q7 4 8.5 -5t-6.5 -11q6 0 6 4q11 -17 7.5 -38.5t-0.5 -39.5q-3 -2 -6.5 -1t-6.5 -1q0 -14 10 -14q-7 -3 -12 2q0 2 -1 5t-1 5q-3 -5 2 -10q2 -12 -5 -21.5t-19.5 -20.5t-18.5 -19h-8l-31 -5q-1 0 -3 -1t-3 -1l-2 5q-76 4 -90 30 q1 3 5 1.5t7 -1.5q-1 2 -4 4t-6 3.5t-6 3.5t-3.5 3.5t1.5 4.5l-15 -4q0 41 -2 59zM1114 1866l12 -8q0 6 2 6q-1 -3 2.5 -4.5t7.5 -1.5t8 -1t5 -4q-3 0 -3.5 -4t-2.5 -4q5 -5 14 -2q0 2 3.5 7.5t2.5 9.5q-5 1 -5 2q3 2 -1 2q-6 -2 -24.5 2.5t-20.5 -0.5zM1145 1873 q-6 -2 2 -7q1 7 4 2q4 -3 6 -4q0 2 2 3t2 3q-4 8 -16 3z" />
<glyph unicode="&#xcc;" horiz-adv-x="1359" d="M0 66q48 -6 190 4q1 5 -1.5 16t1.5 18q1 8 8.5 15.5t8.5 11.5q26 110 73.5 267t116.5 373t86 271q11 38 49.5 204.5t63.5 226.5q7 18 31.5 61t31.5 68q-22 12 -91 9t-103 7q0 6 -2 22.5t-2 24t3 19.5t9 22q17 -12 43.5 -19t47 -8.5t56.5 -2t50 -1.5q8 -2 12.5 6t7.5 9 q71 -3 140.5 -2.5t181.5 3.5t147 3q92 0 122 -11q31 -13 38 -38q-10 -5 -20.5 -6t-18 1t-19.5 5t-20 4q-8 -3 -8.5 -6t3 -6t5 -8t-1.5 -11q-32 10 -92.5 9.5t-108.5 0.5q-6 -14 6.5 -23.5t25 -21t5.5 -31.5q8 -9 29.5 -18.5t28.5 -15.5q-5 -39 -38 -107.5t-40 -87.5 q0 -4 -2.5 -6t-7.5 -3.5t-7 -2.5q-8 -49 -100.5 -291.5t-103.5 -290.5q-4 1 -8 -3.5t-7 -4.5q-21 -85 -55.5 -206t-60 -223t-44.5 -214q18 6 62.5 8.5t62.5 9.5q10 -7 11 -26t4 -23q-1 0 -7.5 -2.5t-7.5 -3.5t-6.5 -4t-5 -5t-2 -7t1.5 -9q-57 -13 -293 -33.5t-291 -39.5 q14 14 25 16q-5 6 -17 3.5t-14 4.5q-8 -1 -1.5 -9t1.5 -15q-3 1 -9.5 1.5t-12 1.5t-10.5 5q6 -15 -26 -11q-28 3 -50 11q10 7 20 7t23.5 -3.5t23.5 -3.5q1 10 -4.5 14.5t-15.5 3.5t-20.5 -3t-21.5 -4.5t-16 -2.5q-61 53 -63 107zM602 1456q9 0 15 6t1 11q-8 1 -11 -3.5 t-5 -13.5zM615.5 1034q-0.5 -7 0.5 -8q1 2 8.5 10.5t8.5 16.5q-6 2 -11.5 -5t-6 -14zM676 1972q0 24 10 47q40 19 80 31h4q23 -9 31 -14q4 -2 13 -8t13 -9l4 -4h3q6 -6 10 -8q67 -144 129 -219q-2 -5 -6 -12.5t-5.5 -13t-0.5 -11.5h-23q-37 -89 -128 36q0 1 -22 32 q-77 102 -112 153z" />
<glyph unicode="&#xcd;" horiz-adv-x="1359" d="M0 66q2 -54 63 -107q5 0 16 2.5t21.5 4.5t20.5 3t15.5 -3.5t4.5 -14.5q-10 0 -23.5 3.5t-23.5 3.5t-20 -7q31 -12 61 -12q20 0 15 12q5 -4 10.5 -5t12 -1.5t9.5 -1.5q5 7 -1.5 15t1.5 9q3 -7 14 -4.5t17 -3.5q-11 -2 -25 -16q55 19 291 39.5t293 33.5q-2 4 -2 7.5 t1.5 6.5t3 5t5.5 4l6 3t6.5 2.5t6.5 2.5q-3 4 -4 23t-11 26q-18 -7 -62.5 -9.5t-62.5 -8.5q19 112 44.5 214t60 223t55.5 206q3 0 7 4.5t8 3.5q11 48 103.5 290.5t100.5 291.5q2 1 5 2t5.5 1.5t4.5 3t2 5.5q7 19 40 87.5t38 107.5q-7 6 -28.5 15.5t-29.5 18.5 q7 20 -5.5 31.5t-25 21t-6.5 23.5q42 -3 74 -1t67.5 0.5t59.5 -9.5q3 5 2 9t-3.5 7.5t-4.5 5.5t0 4.5t8 4.5q8 -1 20 -4t19.5 -5t18 -1t20.5 6q-5 18 -19 28.5t-39.5 14.5t-42 5t-47.5 1h-12q-35 0 -147 -3t-181.5 -3.5t-140.5 2.5q-3 -1 -7.5 -9t-12.5 -6q-14 1 -50 1.5 t-56.5 2t-47 8.5t-43.5 19q-6 -10 -9 -22t-3 -19.5t2 -24t2 -22.5q29 -10 103 -7t91 -9q-7 -25 -31.5 -68t-31.5 -61q-25 -60 -63.5 -226.5t-49.5 -204.5q-17 -55 -86 -271t-116.5 -373t-73.5 -267q-1 -4 -8.5 -11.5t-8.5 -15.5q-4 -7 -1.5 -18t1.5 -16q-142 -10 -190 -4z M602 1456q2 6 2.5 9t4 6t9.5 2q5 -5 -1 -11t-15 -6zM615.5 1034q0.5 7 6 14t11.5 5q-1 -8 -8.5 -16.5t-8.5 -10.5q-1 1 -0.5 8zM819 1788q62 75 129 219q4 2 10 8h3l4 4q4 3 13 9t13 8q8 5 31 14h4q40 -12 80 -31q10 -23 10 -47q-35 -51 -112 -153q-50 -72 -75 -91 q-49 -38 -75 23h-23q1 6 -0.5 11.5t-5.5 13t-6 12.5z" />
<glyph unicode="&#xce;" horiz-adv-x="1359" d="M0 66q2 -54 63 -107q5 0 16 2.5t21.5 4.5t20.5 3t15.5 -3.5t4.5 -14.5q-10 0 -23.5 3.5t-23.5 3.5t-20 -7q31 -12 61 -12q20 0 15 12q5 -4 10.5 -5t12 -1.5t9.5 -1.5q5 7 -1.5 15t1.5 9q3 -7 14 -4.5t17 -3.5q-11 -2 -25 -16q55 19 291 39.5t293 33.5q-2 4 -2 7.5 t1.5 6.5t3 5t5.5 4l6 3t6.5 2.5t6.5 2.5q-3 4 -4 23t-11 26q-18 -7 -62.5 -9.5t-62.5 -8.5q19 112 44.5 214t60 223t55.5 206q3 0 7 4.5t8 3.5q11 48 103.5 290.5t100.5 291.5q2 1 5 2t5.5 1.5t4.5 3t2 5.5q7 19 40 87.5t38 107.5q-7 6 -28.5 15.5t-29.5 18.5 q7 20 -5.5 31.5t-25 21t-6.5 23.5q42 -3 74 -1t67.5 0.5t59.5 -9.5q3 5 2 9t-3.5 7.5t-4.5 5.5t0 4.5t8 4.5q8 -1 20 -4t19.5 -5t18 -1t20.5 6q-5 18 -19 28.5t-39.5 14.5t-42 5t-47.5 1h-12q-35 0 -147 -3t-181.5 -3.5t-140.5 2.5q-3 -1 -7.5 -9t-12.5 -6q-14 1 -50 1.5 t-56.5 2t-47 8.5t-43.5 19q-6 -10 -9 -22t-3 -19.5t2 -24t2 -22.5q29 -10 103 -7t91 -9q-7 -25 -31.5 -68t-31.5 -61q-25 -60 -63.5 -226.5t-49.5 -204.5q-17 -55 -86 -271t-116.5 -373t-73.5 -267q-1 -4 -8.5 -11.5t-8.5 -15.5q-4 -7 -1.5 -18t1.5 -16q-142 -10 -190 -4z M602 1456q2 6 2.5 9t4 6t9.5 2q5 -5 -1 -11t-15 -6zM615.5 1034q0.5 7 6 14t11.5 5q-1 -8 -8.5 -16.5t-8.5 -10.5q-1 1 -0.5 8zM635 1788q62 75 129 219q4 2 10 8h2l4 4q4 2 13.5 8.5t13.5 8.5q8 5 31 14h4q40 -12 80 -31q10 -23 10 -47q-25 -37 -113 -153q-49 -70 -72 -89 q-51 -39 -77 21h-23q1 6 -0.5 11.5t-5.5 13t-6 12.5zM932 1972q0 24 10 47q40 19 80 31h4q23 -9 31 -14q4 -2 13 -8t13 -9l4 -4h3q6 -6 10 -8q67 -144 129 -219q-2 -5 -6 -12.5t-5.5 -13t-0.5 -11.5h-23q-37 -89 -128 36q0 1 -22 32q-77 102 -112 153z" />
<glyph unicode="&#xcf;" horiz-adv-x="1359" d="M0 66q2 -54 63 -107q5 0 16 2.5t21.5 4.5t20.5 3t15.5 -3.5t4.5 -14.5q-10 0 -23.5 3.5t-23.5 3.5t-20 -7q31 -12 61 -12q20 0 15 12q5 -4 10.5 -5t12 -1.5t9.5 -1.5q5 7 -1.5 15t1.5 9q3 -7 14 -4.5t17 -3.5q-11 -2 -25 -16q55 19 291 39.5t293 33.5q-2 4 -2 7.5 t1.5 6.5t3 5t5.5 4l6 3t6.5 2.5t6.5 2.5q-3 4 -4 23t-11 26q-18 -7 -62.5 -9.5t-62.5 -8.5q19 112 44.5 214t60 223t55.5 206q3 0 7 4.5t8 3.5q11 48 103.5 290.5t100.5 291.5q2 1 5 2t5.5 1.5t4.5 3t2 5.5q7 19 40 87.5t38 107.5q-7 6 -28.5 15.5t-29.5 18.5 q7 20 -5.5 31.5t-25 21t-6.5 23.5q42 -3 74 -1t67.5 0.5t59.5 -9.5q3 5 2 9t-3.5 7.5t-4.5 5.5t0 4.5t8 4.5q8 -1 20 -4t19.5 -5t18 -1t20.5 6q-5 18 -19 28.5t-39.5 14.5t-42 5t-47.5 1h-12q-35 0 -147 -3t-181.5 -3.5t-140.5 2.5q-3 -1 -7.5 -9t-12.5 -6q-14 1 -50 1.5 t-56.5 2t-47 8.5t-43.5 19q-6 -10 -9 -22t-3 -19.5t2 -24t2 -22.5q29 -10 103 -7t91 -9q-7 -25 -31.5 -68t-31.5 -61q-25 -60 -63.5 -226.5t-49.5 -204.5q-17 -55 -86 -271t-116.5 -373t-73.5 -267q-1 -4 -8.5 -11.5t-8.5 -15.5q-4 -7 -1.5 -18t1.5 -16q-142 -10 -190 -4z M594 1794q0 74 16 107q22 41 107 67q24 -8 24 -39q2 1 2.5 3t0.5 5.5t1 6.5q7 -7 17.5 -6t21.5 -1q-4 -5 -14 0q1 -4 -4.5 -8t-5.5 -8q7 -2 10 2.5t10 3.5q3 -7 -5 -9t-9 -5q3 -4 14.5 -3.5t12.5 -4.5q5 11 4 12q6 5 7.5 -5t-5.5 -11q6 0 6 4q11 -17 7 -38.5t-1 -39.5 q-3 -2 -6 -1t-6 -1q0 -15 10 -15q-7 -3 -12 2l-4 11q0 -9 4 -11q1 -16 -19.5 -35.5t-23.5 -25.5h-9l-30 -4q-1 0 -3 -1t-3 -1l-2 4q-79 4 -91 31q2 3 5 1.5t6 -1.5q-1 3 -7 6t-9.5 6t-0.5 6zM602 1456q2 6 2.5 9t4 6t9.5 2q5 -5 -1 -11t-15 -6zM615.5 1034q0.5 7 6 14 t11.5 5q-1 -8 -8.5 -16.5t-8.5 -10.5q-1 1 -0.5 8zM752 1886q1 -1 5 -4t7 -4q0 6 2 6q-2 -4 3 -5t11 -1.5t6 -3.5q-2 0 -2.5 -4t-3.5 -4q8 -4 17 -2q0 2 3.5 7t2.5 9q-5 1 -5 2q3 2 -1 2q-6 -2 -24.5 2.5t-20.5 -0.5zM783 1894q-8 -3 1 -8l1 5l2 -2q4 -4 6 -5q0 2 3 3t3 3 q-5 7 -16 4zM936 1853q0 48 10 68q9 16 39 33h21q4 1 6 3t3.5 5t2.5 4q37 7 52 -3t13 -34q2 1 2.5 3t0.5 5.5t1 6.5q7 -7 17.5 -6t21.5 -1q-4 -5 -14 0q1 -4 -4.5 -8t-5.5 -8q7 -2 11 2.5t11 3.5q2 -7 -6.5 -9t-9.5 -5q3 -4 14.5 -3.5t14.5 -4.5q0 2 1 4.5t1.5 4t-0.5 3.5 q7 4 8.5 -5t-6.5 -11q6 0 6 4q11 -17 7 -38.5t-1 -39.5q-3 -2 -6 -1t-6 -1q0 -15 10 -15q-7 -3 -12 2q0 2 -1 5.5t-1 5.5q-3 -6 2 -11q2 -12 -5 -21.5t-19.5 -20.5t-18.5 -19h-9l-30 -4q-1 0 -3 -1t-3 -1l-2 4q-77 4 -91 31q1 3 5.5 1.5t7.5 -1.5q-2 3 -8.5 6t-10 6t-0.5 6 l-14 -4q0 41 -2 59zM1094 1886l12 -8q0 6 2 6q-1 -4 4 -5t11 -1.5t7 -3.5q-3 0 -3.5 -4t-2.5 -4q5 -5 15 -2q0 2 3.5 7t2.5 9q-5 1 -5 2q3 2 -1 2q-6 -2 -24.5 2.5t-20.5 -0.5zM1126 1886q1 7 6 2q3 -4 5 -4q0 2 2 3t2 3q-3 7 -15 4q-9 -3 0 -8z" />
<glyph unicode="&#xd0;" horiz-adv-x="921" d="M-115 772q0 4 1.5 5.5t4 2t5.5 0t5 -0.5t3 1t0 4q-9 14 -19 21q15 27 37 49q2 1 5 3t5 3q39 2 172 2q6 27 9 51q1 1 7 8t15 5q-7 4 -10 8t-1 8t5.5 6.5t9.5 7.5q2 6 -0.5 8t-6.5 1.5t-7.5 0.5t-3.5 5q7 40 35.5 106.5t36.5 104.5q-15 14 -9 48.5t25 43.5q-5 18 -4 26.5 t8.5 30.5t9.5 31q-10 6 -52.5 24.5t-60 39t-10.5 55.5q16 1 33.5 -11t32.5 -12q4 3 6.5 15.5t5.5 15.5q10 -3 30 -12t32 -11q15 19 24 68t10 51q179 -6 256 -115q6 2 13 -1.5t14 -2.5q-1 -9 0.5 -26.5t-1 -24t-13.5 -2.5q14 -17 14 -39q15 -10 59.5 -37t67 -42t60 -44 t58.5 -53t41.5 -59t28.5 -72q6 -22 7 -47t-4 -58t-8 -48t-11 -54q-30 -45 -101.5 -240t-97.5 -233q-1 -3 -3 -3.5t-3.5 0.5t-1.5 3l-8 -1l2 -2q5 -3 6 -5q-6 -5 -42 -40t-49.5 -48t-38 -39.5t-42.5 -48.5q-6 -5 -29.5 -22.5t-32 -24.5t-28 -23t-30.5 -26t-25.5 -25 t-26.5 -29q-24 -4 -68 -28.5t-85 -20.5q-31 3 -85.5 30.5t-64.5 49.5q-8 16 -8 47q-4 5 -1.5 39.5t1.5 46t4.5 52t7 56.5t9.5 60.5t11 62.5t11.5 63.5t12 64t12.5 63t12 61.5q-43 -3 -82 -6q-47 18 -107 78zM94 100q-1 -15 15 -21.5t30 1.5q-2 6 -7.5 9.5t-9.5 5t-14.5 3 t-13.5 2.5zM289 176q61 31 157 119q287 428 338 676q-24 56 -46.5 96t-55 83t-75.5 69.5t-95 35.5q6 -7 4.5 -17t-5 -16t-8.5 -15t-7 -13v-35q-41 -104 -50 -149q-18 -100 -30 -158q18 -2 47 -2q93 -7 121 -18q52 -22 14 -74l12 -19q-5 -3 -8 -7t-6.5 -11t-7.5 -12 q-41 6 -201 6q-77 -390 -98 -539z" />
<glyph unicode="&#xd1;" horiz-adv-x="1916" d="M2 -8q-11 56 39 149q7 14 38.5 108t39.5 124q70 251 155 444q16 88 89 263t86 263q9 28 36 78t41.5 90t5.5 70q28 -4 117 -11.5t158.5 -18t105.5 -27.5q4 -29 0 -47q2 -3 13 -16t14 -21q-3 -532 86 -901q27 52 58 150.5t64.5 187.5t74.5 141q44 108 147 334.5t152 351.5 q17 -5 75.5 -22.5t96 -29t85 -28t74.5 -29.5q-3 -8 -3.5 -14t3 -11t5.5 -7t9 -6.5t9 -6.5q0 -17 -9.5 -45.5t-2.5 -42.5q-15 -15 -26 -33.5t-23 -45.5t-19 -40q-10 -21 -44.5 -83.5t-53.5 -105t-27 -83.5q-66 -89 -129 -303q-9 -1 -19.5 -12t-19.5 -11q5 -11 -0.5 -21 t-17.5 -13q-8 -81 -17 -131q-6 -32 -69.5 -237t-65.5 -263q-1 -9 4 -40t0 -36q-12 -32 -96.5 -47.5t-173 -13.5t-129.5 14q-3 3 -8 11t-11 12t-16 4q9 21 -6 51t-16 41q47 90 47 432q-8 9 -17 35.5t-28 31.5q10 73 -13 189q0 1 -5 12t-4.5 20t9.5 15q1 5 0 8t-2.5 3.5 t-4 0.5t-4.5 -0.5t-3.5 1t-1.5 5.5q0 8 -1 64t-1 73t-2 64t-5 71.5t-8 57.5t-12 58q-22 -19 -43 -80q-8 -27 -34.5 -131.5t-49.5 -167.5q-11 -28 -43.5 -110t-53.5 -142t-34 -113q-88 -359 -161 -469q-17 -2 -29.5 10t-20.5 13q-6 -9 -5 -10.5t5 -6t4 -10.5 q-5 -12 -23.5 -23.5t-21.5 -15.5q-26 4 -96 5t-130.5 6t-86.5 20zM739 1751q31 85 99 111q7 3 24 14h4q8 4 29.5 10.5t55 13t71 3t63.5 -20.5q11 -10 24 -19.5t29 -18.5t26.5 -15t31 -16.5t27.5 -14.5q66 -36 123 0q8 4 34.5 15t43 21.5t28.5 27.5q3 3 9.5 5t8.5 -1 q4 -2 7.5 -6t6 -10t3.5 -7q4 -4 0 -12q-3 -7 -12.5 -27.5t-14.5 -29.5t-14.5 -23.5t-21.5 -24t-27 -16.5q-37 -18 -41 -22q-36 -22 -76 -19q-2 0 -5.5 1t-5.5 1t-3 -2q-74 -14 -160 43q-52 34 -107 51q-60 13 -110 -6q-15 -6 -53.5 -21t-59.5 -24q-20 -10 -31 4 q-14 11 -6 35z" />
<glyph unicode="&#xd2;" horiz-adv-x="1288" d="M0 264q0 11 6 30t7 29t-9 29q1 18 16.5 61.5t8.5 65.5q3 3 11 15.5t15 15.5q0 4 -7.5 5.5t-8.5 4.5q5 4 8 9.5t3.5 12.5t0 11.5t-2 13t-1.5 11.5q14 18 45 107.5t27 105.5q13 0 10 -15q3 2 9 5.5t9 4.5q2 4 -2 4.5t-9.5 0t-8.5 0.5q17 30 8 47q-1 7 3 8.5t12 1.5 q-5 6 9.5 27t4.5 34q7 -3 11.5 2.5t6.5 6.5q-1 2 -20 8q18 35 60 91.5t59 88.5q2 5 -2.5 8t-4.5 6q36 70 83 131t116 138q-1 2 -6.5 3t-9.5 5q17 14 39 14q0 9 -9 12q19 18 56.5 53t66.5 63.5t54 55.5q10 -2 87.5 -4.5t90.5 0.5q3 5 -37.5 7t-83 3t-43.5 3q14 8 36 34.5 t38 34.5q65 0 158.5 -8.5t109.5 -26.5q84 3 135 -39q24 -19 30.5 -25t15.5 -22t11 -36q-25 -25 -81 -60t-76 -51q-33 -11 -63 -32.5t-44 -36.5t-43.5 -52.5t-38.5 -48.5q-3 -1 -8.5 -4.5t-11 -5t-12.5 -0.5q-2 -4 0 -6.5t6.5 -4t5.5 -2.5q-6 -9 -35.5 -50.5t-41.5 -59.5 t-38 -58t-40.5 -67.5t-33.5 -65.5t-32 -74.5t-21 -72.5q-31 -39 -64 -162t-48 -215q-12 -81 -7 -127q1 -9 1 -36.5t1 -53t5 -41.5q5 -23 33 -50t32 -42q51 30 99.5 79.5t94 115t81 126t77.5 140.5q31 62 83.5 196.5t68.5 200.5q6 30 27 102t35 136.5t14 117.5q0 3 -3.5 11.5 t-3.5 11.5q2 10 13.5 35.5t11.5 38.5q1 11 -9 30.5t-7 36.5q24 5 42 5.5t29.5 -5t19.5 -12.5t11 -20.5t4.5 -25.5t0 -30.5t-3.5 -33t-5 -36t-4 -36.5q-1 -12 -2 -49t-6 -56q-4 -24 -18 -64.5t-17 -54.5q-16 -83 -27 -110q-3 -3 -13 -18t-17 -21q1 -17 -5 -31t-16 -28.5 t-14 -24.5q-5 -12 -22 -70t-35 -103t-33 -48q6 -54 -37 -103q-93 -232 -289 -413q-11 -50 -51.5 -75.5t-91.5 -25.5q-5 -4 -15 -18q-19 1 -94.5 3.5t-141 6t-89.5 8.5q-41 8 -70.5 36t-57 73t-40.5 59q1 2 1 8t1.5 10t5.5 3q0 4 -16 4q-6 12 -6.5 26t2 29.5t1.5 24.5 q-1 12 -10.5 32.5t-9.5 32.5zM20 336q4 -1 9.5 1.5t7.5 2.5q3 7 -1 10.5t-13 1.5q-3 -9 -3 -16zM31 233q7 2 12.5 -1.5t9.5 1.5q-1 3 -2.5 13t-3 14t-5 10t-9.5 9q-8 -9 -1 -20.5t-1 -25.5zM737 1972q0 21 11 47q41 20 79 31h4q23 -9 31 -14q4 -2 13.5 -8.5t13.5 -8.5l4 -4 h2q6 -6 10 -8q67 -144 129 -219q-2 -5 -6 -12.5t-5.5 -13t-0.5 -11.5h-23q-37 -88 -125 33q-6 9 -17 25l-7 10q-88 116 -113 153zM748 1262q18 -4 18 12q-18 4 -18 -12zM956 1569q16 0 50 5t57 3q-8 24 -53 19.5t-54 -27.5z" />
<glyph unicode="&#xd3;" horiz-adv-x="1288" d="M0 264q0 -12 9.5 -32.5t10.5 -32.5q1 -9 -1.5 -24.5t-2 -29.5t6.5 -26q16 0 16 -4q-4 1 -5.5 -3t-1.5 -10t-1 -8q13 -14 40.5 -59t57 -73t70.5 -36q24 -5 89.5 -8.5t141 -6t94.5 -3.5q10 14 15 18q51 0 91.5 25.5t51.5 75.5q196 181 289 413q43 49 37 103q15 3 33 48 t35 103t22 70q4 10 14 24.5t16 28.5t5 31q7 6 17 21t13 18q11 27 27 110q3 14 17 54.5t18 64.5q5 19 6 56t2 49q1 15 4 36.5t5 36t3.5 33t0 30.5t-4.5 25.5t-11 20.5t-19.5 12.5t-29.5 5t-42 -5.5q-3 -17 7 -36.5t9 -30.5q0 -13 -11.5 -38.5t-13.5 -35.5q0 -3 3.5 -11.5 t3.5 -11.5q0 -53 -14 -117.5t-35 -136.5t-27 -102q-16 -66 -68.5 -200.5t-83.5 -196.5q-42 -80 -77.5 -140.5t-81 -126t-94 -115t-99.5 -79.5q-4 15 -32 42t-33 50q-4 16 -5 41.5t-1 53t-1 36.5q-5 46 7 127q15 92 48 215t64 162q8 36 21 72.5t32 74.5t33.5 65.5t40.5 67.5 t38 58t41.5 59.5t35.5 50.5q-1 1 -5.5 2.5t-6.5 4t0 6.5q7 -1 12.5 0.5t11 5t8.5 4.5q9 11 38.5 48.5t43.5 52.5t44 36.5t63 32.5q20 16 76 51t81 60q-2 20 -11 36t-15.5 22t-30.5 25q-51 42 -135 39q-16 18 -109.5 26.5t-158.5 8.5q-16 -8 -38 -34.5t-36 -34.5 q1 -2 43.5 -3t83 -3t37.5 -7q-13 -3 -90.5 -0.5t-87.5 4.5q-25 -27 -54 -55.5t-66.5 -63.5t-56.5 -53q9 -3 9 -12q-22 0 -39 -14q4 -4 9.5 -5t6.5 -3q-69 -77 -116 -138t-83 -131q0 -3 4.5 -6t2.5 -8q-17 -32 -59 -88.5t-60 -91.5q19 -6 20 -8q-2 -1 -6.5 -6.5t-11.5 -2.5 q10 -13 -4.5 -34t-9.5 -27q-5 0 -8 -0.5t-5.5 -2.5t-1.5 -7q9 -17 -8 -47q3 -1 8.5 -0.5t9.5 0t2 -4.5q-3 -1 -9 -4.5t-9 -5.5q3 15 -10 15q4 -16 -27 -105.5t-45 -107.5q0 -3 1.5 -11.5t2 -13t0 -11.5t-3.5 -12.5t-8 -9.5q1 -3 8.5 -4.5t7.5 -5.5q-7 -3 -15 -15.5 t-11 -15.5q7 -22 -8.5 -65.5t-16.5 -61.5q10 -19 9 -29t-7 -29t-6 -30zM20 336q0 7 3 16q9 2 13 -1.5t1 -10.5q-2 0 -7.5 -2.5t-9.5 -1.5zM31 233q8 13 1 25.5t1 20.5q6 -3 9.5 -9t5 -10t3 -14t2.5 -13q-4 -5 -9.5 -1.5t-12.5 1.5zM748 1262q0 16 18 12q0 -16 -18 -12z M860 1788q62 75 129 219q4 2 10 8h2q4 4 5 4q4 3 13 9t13 8q8 5 31 14h4q40 -12 80 -31q10 -23 10 -47q-25 -37 -113 -153q-49 -70 -72 -89q-51 -39 -77 21h-23q1 6 -0.5 11.5t-5.5 13t-6 12.5zM956 1569q9 23 54 27.5t53 -19.5q-23 2 -57 -3t-50 -5z" />
<glyph unicode="&#xd4;" horiz-adv-x="1288" d="M0 264q0 -12 9.5 -32.5t10.5 -32.5q1 -9 -1.5 -24.5t-2 -29.5t6.5 -26q16 0 16 -4q-4 1 -5.5 -3t-1.5 -10t-1 -8q13 -14 40.5 -59t57 -73t70.5 -36q24 -5 89.5 -8.5t141 -6t94.5 -3.5q10 14 15 18q51 0 91.5 25.5t51.5 75.5q196 181 289 413q43 49 37 103q15 3 33 48 t35 103t22 70q4 10 14 24.5t16 28.5t5 31q7 6 17 21t13 18q11 27 27 110q3 14 17 54.5t18 64.5q5 19 6 56t2 49q1 15 4 36.5t5 36t3.5 33t0 30.5t-4.5 25.5t-11 20.5t-19.5 12.5t-29.5 5t-42 -5.5q-3 -17 7 -36.5t9 -30.5q0 -13 -11.5 -38.5t-13.5 -35.5q0 -3 3.5 -11.5 t3.5 -11.5q0 -53 -14 -117.5t-35 -136.5t-27 -102q-16 -66 -68.5 -200.5t-83.5 -196.5q-42 -80 -77.5 -140.5t-81 -126t-94 -115t-99.5 -79.5q-4 15 -32 42t-33 50q-4 16 -5 41.5t-1 53t-1 36.5q-5 46 7 127q15 92 48 215t64 162q8 36 21 72.5t32 74.5t33.5 65.5t40.5 67.5 t38 58t41.5 59.5t35.5 50.5q-1 1 -5.5 2.5t-6.5 4t0 6.5q7 -1 12.5 0.5t11 5t8.5 4.5q9 11 38.5 48.5t43.5 52.5t44 36.5t63 32.5q20 16 76 51t81 60q-2 20 -11 36t-15.5 22t-30.5 25q-51 42 -135 39q-16 18 -109.5 26.5t-158.5 8.5q-16 -8 -38 -34.5t-36 -34.5 q1 -2 43.5 -3t83 -3t37.5 -7q-13 -3 -90.5 -0.5t-87.5 4.5q-25 -27 -54 -55.5t-66.5 -63.5t-56.5 -53q9 -3 9 -12q-22 0 -39 -14q4 -4 9.5 -5t6.5 -3q-69 -77 -116 -138t-83 -131q0 -3 4.5 -6t2.5 -8q-17 -32 -59 -88.5t-60 -91.5q19 -6 20 -8q-2 -1 -6.5 -6.5t-11.5 -2.5 q10 -13 -4.5 -34t-9.5 -27q-5 0 -8 -0.5t-5.5 -2.5t-1.5 -7q9 -17 -8 -47q3 -1 8.5 -0.5t9.5 0t2 -4.5q-3 -1 -9 -4.5t-9 -5.5q3 15 -10 15q4 -16 -27 -105.5t-45 -107.5q0 -3 1.5 -11.5t2 -13t0 -11.5t-3.5 -12.5t-8 -9.5q1 -3 8.5 -4.5t7.5 -5.5q-7 -3 -15 -15.5 t-11 -15.5q7 -22 -8.5 -65.5t-16.5 -61.5q10 -19 9 -29t-7 -29t-6 -30zM20 336q0 7 3 16q9 2 13 -1.5t1 -10.5q-2 0 -7.5 -2.5t-9.5 -1.5zM31 233q8 13 1 25.5t1 20.5q6 -3 9.5 -9t5 -10t3 -14t2.5 -13q-4 -5 -9.5 -1.5t-12.5 1.5zM676 1788q62 75 129 219q4 2 10 8h2l4 4 q4 2 13 8.5t14 8.5q8 5 31 14h4q40 -12 80 -31q10 -23 10 -47q-25 -37 -113 -153q-49 -70 -72 -89q-51 -39 -77 21h-23q1 6 -0.5 11.5t-5.5 13t-6 12.5zM748 1262q0 16 18 12q0 -16 -18 -12zM956 1569q9 23 54 27.5t53 -19.5q-23 2 -57 -3t-50 -5zM973 1972q0 24 10 47 q40 19 80 31h4q23 -9 31 -14q4 -2 13 -8t13 -9l4 -4h2q5 -5 11 -8q67 -144 129 -219q-2 -6 -6 -13t-6 -12.5t-1 -11.5h-22q-37 -89 -128 36q0 1 -22 32q-77 102 -112 153z" />
<glyph unicode="&#xd5;" horiz-adv-x="1288" d="M0 264q0 11 6 30t7 29t-9 29q1 18 16.5 61.5t8.5 65.5q3 3 11 15.5t15 15.5q0 4 -7.5 5.5t-8.5 4.5q5 4 8 9.5t3.5 12.5t0 11.5t-2 13t-1.5 11.5q14 18 45 107.5t27 105.5q13 0 10 -15q3 2 9 5.5t9 4.5q2 4 -2 4.5t-9.5 0t-8.5 0.5q17 30 8 47q-1 7 3 8.5t12 1.5 q-5 6 9.5 27t4.5 34q7 -3 11.5 2.5t6.5 6.5q-1 2 -20 8q18 35 60 91.5t59 88.5q2 5 -2.5 8t-4.5 6q36 70 83 131t116 138q-1 2 -6.5 3t-9.5 5q17 14 39 14q0 9 -9 12q19 18 56.5 53t66.5 63.5t54 55.5q10 -2 87.5 -4.5t90.5 0.5q3 5 -37.5 7t-83 3t-43.5 3q14 8 36 34.5 t38 34.5q65 0 158.5 -8.5t109.5 -26.5q84 3 135 -39q24 -19 30.5 -25t15.5 -22t11 -36q-25 -25 -81 -60t-76 -51q-33 -11 -63 -32.5t-44 -36.5t-43.5 -52.5t-38.5 -48.5q-3 -1 -8.5 -4.5t-11 -5t-12.5 -0.5q-2 -4 0 -6.5t6.5 -4t5.5 -2.5q-6 -9 -35.5 -50.5t-41.5 -59.5 t-38 -58t-40.5 -67.5t-33.5 -65.5t-32 -74.5t-21 -72.5q-31 -39 -64 -162t-48 -215q-12 -81 -7 -127q1 -9 1 -36.5t1 -53t5 -41.5q5 -23 33 -50t32 -42q51 30 99.5 79.5t94 115t81 126t77.5 140.5q31 62 83.5 196.5t68.5 200.5q6 30 27 102t35 136.5t14 117.5q0 3 -3.5 11.5 t-3.5 11.5q2 10 13.5 35.5t11.5 38.5q1 11 -9 30.5t-7 36.5q24 5 42 5.5t29.5 -5t19.5 -12.5t11 -20.5t4.5 -25.5t0 -30.5t-3.5 -33t-5 -36t-4 -36.5q-1 -12 -2 -49t-6 -56q-4 -24 -18 -64.5t-17 -54.5q-16 -83 -27 -110q-3 -3 -13 -18t-17 -21q1 -17 -5 -31t-16 -28.5 t-14 -24.5q-5 -12 -22 -70t-35 -103t-33 -48q6 -54 -37 -103q-93 -232 -289 -413q-11 -50 -51.5 -75.5t-91.5 -25.5q-5 -4 -15 -18q-19 1 -94.5 3.5t-141 6t-89.5 8.5q-41 8 -70.5 36t-57 73t-40.5 59q1 2 1 8t1.5 10t5.5 3q0 4 -16 4q-6 12 -6.5 26t2 29.5t1.5 24.5 q-1 12 -10.5 32.5t-9.5 32.5zM20 336q4 -1 9.5 1.5t7.5 2.5q3 7 -1 10.5t-13 1.5q-3 -9 -3 -16zM31 233q7 2 12.5 -1.5t9.5 1.5q-1 3 -2.5 13t-3 14t-5 10t-9.5 9q-8 -9 -1 -20.5t-1 -25.5zM616 1751q31 85 99 111q7 3 24 14h4q8 4 29.5 10.5t55.5 13t71.5 3t63.5 -20.5 q11 -10 23.5 -19t29.5 -19l25.5 -15t31 -16.5t27.5 -14.5q66 -36 123 0q8 4 34.5 15t43 21.5t28.5 27.5q3 3 10 5t9 -1q4 -2 7 -6t5.5 -9.5t3.5 -7.5q4 -4 0 -12q-3 -7 -12.5 -27.5t-14.5 -29.5t-14.5 -23.5t-21.5 -24t-27 -16.5q-37 -18 -41 -22q-36 -22 -76 -19 q-2 0 -5.5 1t-5.5 1t-3 -2q-74 -14 -160 43q-53 35 -106 51q-61 13 -111 -6q-15 -6 -53.5 -21t-59.5 -24q-19 -10 -30 4q-15 12 -7 35zM748 1262q18 -4 18 12q-18 4 -18 -12zM956 1569q16 0 50 5t57 3q-8 24 -53 19.5t-54 -27.5z" />
<glyph unicode="&#xd6;" horiz-adv-x="1288" d="M0 264q0 -12 9.5 -32.5t10.5 -32.5q1 -9 -1.5 -24.5t-2 -29.5t6.5 -26q16 0 16 -4q-4 1 -5.5 -3t-1.5 -10t-1 -8q13 -14 40.5 -59t57 -73t70.5 -36q24 -5 89.5 -8.5t141 -6t94.5 -3.5q10 14 15 18q51 0 91.5 25.5t51.5 75.5q196 181 289 413q43 49 37 103q15 3 33 48 t35 103t22 70q4 10 14 24.5t16 28.5t5 31q7 6 17 21t13 18q11 27 27 110q3 14 17 54.5t18 64.5q5 19 6 56t2 49q1 15 4 36.5t5 36t3.5 33t0 30.5t-4.5 25.5t-11 20.5t-19.5 12.5t-29.5 5t-42 -5.5q-3 -17 7 -36.5t9 -30.5q0 -13 -11.5 -38.5t-13.5 -35.5q0 -3 3.5 -11.5 t3.5 -11.5q0 -53 -14 -117.5t-35 -136.5t-27 -102q-16 -66 -68.5 -200.5t-83.5 -196.5q-42 -80 -77.5 -140.5t-81 -126t-94 -115t-99.5 -79.5q-4 15 -32 42t-33 50q-4 16 -5 41.5t-1 53t-1 36.5q-5 46 7 127q15 92 48 215t64 162q8 36 21 72.5t32 74.5t33.5 65.5t40.5 67.5 t38 58t41.5 59.5t35.5 50.5q-1 1 -5.5 2.5t-6.5 4t0 6.5q7 -1 12.5 0.5t11 5t8.5 4.5q9 11 38.5 48.5t43.5 52.5t44 36.5t63 32.5q20 16 76 51t81 60q-2 20 -11 36t-15.5 22t-30.5 25q-51 42 -135 39q-16 18 -109.5 26.5t-158.5 8.5q-16 -8 -38 -34.5t-36 -34.5 q1 -2 43.5 -3t83 -3t37.5 -7q-13 -3 -90.5 -0.5t-87.5 4.5q-25 -27 -54 -55.5t-66.5 -63.5t-56.5 -53q9 -3 9 -12q-22 0 -39 -14q4 -4 9.5 -5t6.5 -3q-69 -77 -116 -138t-83 -131q0 -3 4.5 -6t2.5 -8q-17 -32 -59 -88.5t-60 -91.5q19 -6 20 -8q-2 -1 -6.5 -6.5t-11.5 -2.5 q10 -13 -4.5 -34t-9.5 -27q-5 0 -8 -0.5t-5.5 -2.5t-1.5 -7q9 -17 -8 -47q3 -1 8.5 -0.5t9.5 0t2 -4.5q-3 -1 -9 -4.5t-9 -5.5q3 15 -10 15q4 -16 -27 -105.5t-45 -107.5q0 -3 1.5 -11.5t2 -13t0 -11.5t-3.5 -12.5t-8 -9.5q1 -3 8.5 -4.5t7.5 -5.5q-7 -3 -15 -15.5 t-11 -15.5q7 -22 -8.5 -65.5t-16.5 -61.5q10 -19 9 -29t-7 -29t-6 -30zM20 336q0 7 3 16q9 2 13 -1.5t1 -10.5q-2 0 -7.5 -2.5t-9.5 -1.5zM31 233q8 13 1 25.5t1 20.5q6 -3 9.5 -9t5 -10t3 -14t2.5 -13q-4 -5 -9.5 -1.5t-12.5 1.5zM655 1794q0 72 17 107q22 41 106 67 q25 -8 25 -39q2 1 2.5 3t0.5 5.5t1 6.5q7 -7 17.5 -6t21.5 -1q-4 -6 -15 0q1 -4 -4.5 -8t-5.5 -8q7 -2 10.5 2.5t10.5 3.5q3 -7 -5.5 -9t-9.5 -5q3 -4 14.5 -3.5t12.5 -4.5q5 11 4 12q6 5 7.5 -5t-5.5 -11q6 0 6 4q11 -17 7 -38.5t-1 -39.5q-3 -2 -6 -1t-6 -1q0 -15 10 -15 q-7 -3 -12 2l-4 11q0 -9 4 -11q1 -16 -19.5 -35.5t-23.5 -25.5h-8l-31 -4q-1 0 -3 -1t-3 -1l-2 4q-78 4 -90 31q2 3 4 1.5t6 -1.5q-1 3 -7 6t-9 6t0 6zM748 1262q0 16 18 12q0 -16 -18 -12zM813 1886q1 -1 5 -4t7 -4q0 6 2 6q-2 -4 3.5 -5t11.5 -1.5t6 -3.5q-2 0 -2.5 -4 t-3.5 -4q8 -4 16 -2q0 2 3.5 7t2.5 9q-5 1 -5 2q3 2 -1 2q-6 -2 -24.5 2.5t-20.5 -0.5zM844 1893q-6 -2 2 -7l1 5l1 -2q3 -5 6 -5q0 2 3 3t3 3q-6 8 -16 3zM956 1569q9 23 54 27.5t53 -19.5q-23 2 -57 -3t-50 -5zM997 1853q0 46 11 68q9 16 39 33h20q4 1 6 3t3.5 5t2.5 4 q37 7 52.5 -3t13.5 -34q2 1 2.5 3t0.5 5.5t1 6.5q7 -7 17.5 -6t21.5 -1q-4 -5 -14 0q1 -4 -5 -8t-6 -8q7 -2 11.5 2.5t11.5 3.5q2 -7 -7 -9t-10 -5q3 -4 14.5 -3.5t14.5 -4.5q0 2 1 4.5t1.5 4t-0.5 3.5q7 4 8.5 -5t-6.5 -11q6 0 6 4q11 -17 7 -38.5t-1 -39.5q-3 -2 -6 -1 t-6 -1q0 -15 10 -15q-7 -3 -12 2q0 2 -1 5.5t-1 5.5q-3 -6 2 -11q2 -12 -5 -21.5t-19.5 -20.5t-18.5 -19h-8l-31 -4q-1 0 -3 -1t-3 -1l-2 4q-76 4 -90 31q2 3 5.5 1.5t6.5 -1.5q-2 3 -8 6t-9.5 6t-0.5 6l-15 -4q0 41 -2 59zM1155 1886l12 -8q0 6 2 6q-1 -4 4.5 -5t11.5 -1.5 t7 -3.5q-3 0 -3.5 -4t-2.5 -4q5 -5 14 -2q0 2 3.5 7t2.5 9q-5 1 -5 2q3 2 -1 2q-6 -2 -24.5 2.5t-20.5 -0.5zM1186 1893q-6 -2 2 -7q1 7 4 2q4 -3 6 -4q0 2 2 3t2 3q-4 8 -16 3z" />
<glyph unicode="&#xd7;" horiz-adv-x="550" d="M4 1092q6 5 12 -3t9 -4q4 16 4 29q30 6 61 0q6 0 10 -2q44 -47 156 -186q100 129 154 186q4 2 10 2q30 6 61 0q0 -13 4 -29q3 -4 9 4t12 3q10 -80 -6 -134q-64 -60 -148 -157q83 -109 92 -121q48 -68 58 -91q28 -67 -43 -71l-6 -22q-5 3 -10.5 3t-13 -1.5t-13.5 -1.5 q-30 46 -160 198q-126 -144 -162 -198q-6 0 -13.5 1.5t-13 1.5t-10.5 -3l-6 22q-96 5 -5 132q1 2 22 30q13 20 90 121q-84 97 -148 157q-16 54 -6 134z" />
<glyph unicode="&#xd8;" horiz-adv-x="1550" d="M-135 10q34 53 48 64q17 14 36 6l33 33q1 2 1.5 8t2.5 10t6 4q0 4 -17 4q-6 17 -5 27.5t4.5 27t2.5 25.5q-1 11 -10.5 32t-9.5 34q1 10 8 29.5t8 28.5t-6 30q1 17 17.5 61t9.5 66q1 1 11.5 13.5t17.5 16.5q0 4 -8.5 5t-8.5 4q6 5 9 10t3.5 12t0.5 11.5t-1.5 12.5t-1.5 11 q15 19 49.5 108t30.5 105q13 3 10 -12q4 1 9.5 4t9.5 4q1 3 -0.5 4t-4 1t-6 -0.5t-6 -1t-4.5 0.5q19 34 9 49q2 8 16 8q-5 6 10 28.5t4 33.5q8 -2 15 4l6 6q-1 3 -21 8q18 33 62.5 90t62.5 90q1 5 -3 8q-3 2 -1 5q57 113 205 268q-1 3 -6.5 4t-7.5 6q15 15 37 13q3 10 -9 14 q149 135 183 170q2 0 45 -1.5t85 -2.5t48 0q3 6 -37.5 8t-82.5 2.5t-42 3.5q14 9 36.5 35.5t37.5 34.5q242 -9 268 -35q83 3 133 -41q31 -24 43 -43q6 9 15.5 20.5t19 26.5t25.5 43q2 2 12 1t12 7q4 10 4.5 10.5t-6 0.5t-10.5 4q14 8 26.5 18.5t17.5 16.5t10.5 8.5t10 -2 t11.5 -17.5q-3 -12 -19.5 -49t-15.5 -57q2 -6 3 -7.5t4.5 -2t6.5 -1.5q-22 -39 -40 -61.5t-42.5 -47t-44.5 -48.5q18 -4 27.5 -16.5t10.5 -35.5t-0.5 -41t-7 -53t-7.5 -51q-10 -93 -13 -106q-5 -22 -20.5 -62t-20.5 -57q-15 -77 -26 -109q-7 -7 -18 -21t-17 -20 q1 -16 -5.5 -29.5t-17.5 -28t-16 -24.5t-23.5 -69.5t-38.5 -104.5t-36 -49q5 -49 -39 -100q-103 -233 -305 -414q-13 -49 -54.5 -74.5t-91.5 -25.5q-5 -3 -9.5 -10t-6.5 -9q-18 1 -94 3.5t-141 6.5t-89 9q-52 12 -92 69q-16 -15 -42 -37.5t-27 -23.5q-24 18 -44 19.5 t-29.5 -4t-20 2t-21.5 37.5zM-20 354q4 0 9 2.5t9 1.5q5 15 -12 15q-2 -3 -3 -6t-1.5 -7t-1.5 -6zM-12 254q6 1 11.5 -2t10.5 2q0 1 -0.5 6.5t-1 7t-1 6t-1.5 6.5t-2.5 5.5t-3 5t-4.5 3.5t-6 3q-7 -9 -0.5 -20t-1.5 -23zM248 397q10 13 4.5 25t3.5 20q6 -3 9 -8.5t3.5 -10 t1 -13.5t0.5 -13q-5 -5 -10 -1.5t-12 1.5zM254 500q0 7 6 16q19 3 10 -12q-2 0 -7 -2.5t-9 -1.5zM437 190q0 -26 3 -43q4 -23 31 -49.5t31 -42.5q53 30 104 79.5t98.5 115t85 126.5t82.5 142q34 59 91 195t73 202q7 24 33 100.5t41.5 139.5t17.5 117q-5 16 -4 22 q1 12 12.5 36t12.5 36q-103 -140 -320 -415t-354 -437q-4 -17 -14 -54.5t-12 -51.5q-14 -77 -9 -127q0 -8 -1.5 -36.5t-1.5 -54.5zM602 854q89 105 200.5 235.5t172 201t63.5 75.5q47 70 62 92q-22 -12 -47 -33q-34 -11 -65.5 -33t-45 -35.5t-47.5 -54.5t-41 -49 q-19 -10 -33 -8q-2 -7 5 -9.5t8 -4.5q-3 -4 -44 -60t-55.5 -77.5t-45.5 -69.5t-51 -88.5t-36 -81.5zM735 1280q22 -4 25 14q-20 0 -25 -14zM956 1587q14 1 50 6.5t59 3.5q-8 23 -52.5 18.5t-56.5 -28.5zM1141 1425q0 7 6 11t14 2q-3 -17 -20 -13zM1401 1733q14 23 59 27.5 t49 -19.5q-23 2 -57.5 -3t-50.5 -5z" />
<glyph unicode="&#xd9;" horiz-adv-x="1265" d="M0 121q22 242 80 414q83 235 92 292q7 51 41 129t41 101q6 17 10.5 51t5.5 41q8 32 34 85.5t34 76.5q-7 9 -5 21t5.5 18.5t10 17.5t9.5 18q11 26 31.5 86.5t41 104t46.5 68.5q2 7 -1.5 14t-2.5 12q46 23 146.5 -14.5t160.5 -77.5q4 -2 12.5 -2t10.5 -2q10 -9 30 -36 t33 -34q-4 -13 -3 -19.5t11 -10.5q-14 -79 -47 -95q-2 -4 0.5 -6t7 -3.5t5.5 -2.5q-27 -40 -84 -162q-7 1 -13 -2.5t-10 -3.5q2 -18 -15.5 -42.5t-19.5 -31.5l-5 -20l-5 -17q1 1 2 3q-2 -3 -3.5 -16t-6 -18.5t-14.5 -0.5q7 -33 -16.5 -78t-22.5 -64q-11 -8 -19 0q4 -4 4 -34 q-8 -2 -16 1.5t-10 -1.5q-6 -18 12 -15q-4 -6 -3.5 -13.5t-2.5 -12.5q-8 -4 -12 1t-9 -1q-1 -8 3 -8.5t10 2.5t8 2q0 -8 -3 -9.5t-7.5 -0.5t-8.5 -3q6 -6 7.5 -12.5t-0.5 -18t-2 -18.5q-2 1 -6 4.5t-9 3.5q2 -14 -7.5 -54.5t-21.5 -77.5t-26.5 -80t-15.5 -48 q-6 -6 -14.5 -6.5t-12.5 -7.5q0 -4 16 -4q-4 -27 -20 -66q-6 -5 -7.5 -2.5t-3.5 8.5t-6 7q-6 -3 -5 -6t4 -9.5t1 -11.5q1 -4 7 1.5t10 -1.5q-1 -9 -12.5 -29.5t-2.5 -36.5q-9 1 -14.5 -1.5t-11 -10t-6.5 -8.5l5 -5t4.5 -5t2.5 -5.5t0 -7.5q5 0 5.5 10.5t4.5 12.5 q6 -3 4.5 -17.5t-6.5 -19.5q-2 1 -6 9t-10 9q-9 -3 -15 -12q0 -8 12.5 -9.5t14.5 -4.5q-14 -71 -20 -88q19 -12 36.5 -57.5t38.5 -57.5q12 7 17.5 7.5t17.5 -7.5q109 63 189 217q136 233 248 584t145 665q8 3 18 1.5t13.5 -2.5t12.5 -5t15 -6q9 -2 15 8t14 9q7 -5 13.5 -19 t19.5 -16q-5 0 -8 -0.5t-4.5 -1.5t-2 -2t0.5 -4t2 -5t3.5 -6.5t4.5 -7.5q-9 -1 -17 4.5t-14 5.5q0 -13 14 -24q13 -11 17 10q7 0 3 -14q-3 -13 -10 -2q9 -35 2 -58q-3 0 -3.5 3t0 7t-0.5 7q-3 -8 -17.5 -9.5t-16.5 -3.5q-1 -6 0 -7.5t3.5 0t6.5 3t8 0.5q1 -5 -2 -7.5 t-7 -2.5t-7 -1.5t-2 -6.5q0 -4 16 -4q2 0 4 0.5t3 2.5t2 3.5t1 4.5v4.5v5.5v5q7 -4 7.5 -11.5t-2 -15t0.5 -18.5q-5 -3 -8 -2t-8 6.5t-8 6.5q0 -12 5.5 -17.5t14.5 -1.5q-1 -9 -7.5 -18.5t-2.5 -24.5q-7 -7 -23 -4q1 -6 -2 -13t2 -9q3 -6 4 -3.5t5.5 6t9.5 1.5q0 -4 -12 -29 q-5 -10 6 -10q1 -7 -3 -14t-3 -13q-2 5 -10.5 1.5t-16.5 -1.5q4 18 7.5 36.5t7.5 44.5t8 46q-13 -21 -22 -76t-13 -69q3 1 13.5 6t13.5 5t12 -3q-5 -22 -35 -12q-8 -8 -10 -23t8 -20q5 1 0 3q-10 5 -4 13q13 10 26 4q-15 -18 -30 -65.5t-19 -57.5q10 6 12 2t-2 -15 q0 -3 -0.5 -5t-1 -5t-1 -5.5t-0.5 -5.5t-0.5 -5.5t0 -5.5t0.5 -6t1 -6q-2 -5 -8.5 -1.5t-13.5 1.5q-3 -8 5.5 -11t6.5 -10q-45 -85 -59 -190q-3 1 -6.5 5t-6.5 5q-3 -4 -3.5 -19t-10.5 -18q-1 -7 1 -7t5 2t6 -3q-23 -40 -117.5 -279t-150.5 -313q-1 -4 1.5 -9t0.5 -11 q-31 -40 -50 -63t-56.5 -60t-69 -57t-76 -35.5t-90.5 -14.5q-53 1 -167 22.5t-185 39.5q-1 5 -5.5 22.5t-6.5 24.5t-7 21.5t-10 22t-12 17t-16.5 15t-20.5 8.5zM129 297q-2 -14 2 -18t14 2q3 9 -1 13t-15 3zM389 274q12 0 14 -5.5t2.5 -13.5t6.5 -11q-2 10 2 21.5t4 19.5 q-27 5 -29 -11zM526 731h19q3 11 -8 12t-11 -10v-2zM635 1972q0 24 10 47q40 19 80 31h4q23 -9 31 -14q4 -2 13 -8t13 -9q3 -2 5 -4h2q6 -6 10 -8q67 -144 129 -219q-2 -5 -6 -12.5t-5.5 -13t-0.5 -11.5h-23q-37 -88 -125 33q-6 9 -17 25l-7 10q-88 116 -113 153z" />
<glyph unicode="&#xda;" horiz-adv-x="1265" d="M0 121q11 -3 20.5 -8.5t16.5 -15t12 -17t10 -22t7 -21.5t6.5 -24.5t5.5 -22.5q71 -18 185 -39.5t167 -22.5q46 -1 90.5 14.5t76 35.5t69 57t56.5 60t50 63q2 6 -0.5 11t-1.5 9q56 74 150.5 313t117.5 279q-3 5 -6 3t-5 -2t-1 7q10 3 10.5 18t3.5 19q3 -1 6.5 -5t6.5 -5 q14 105 59 190q2 7 -6.5 10t-5.5 11q7 2 13.5 -1.5t8.5 1.5q-1 12 -1.5 15.5t1.5 15t2 13.5q3 12 2 15t-12 -2q4 10 19 57.5t30 65.5q-13 6 -26 -4q-6 -9 5 -14q4 -1 -1 -2q-10 5 -8 20t10 23q30 -10 35 12q-9 3 -12 3t-13.5 -5t-13.5 -6q4 14 13 69t22 76q-4 -20 -8 -46 t-7.5 -44.5t-7.5 -36.5q8 -2 16.5 1.5t10.5 -1.5q-1 6 3 13t3 14q-12 0 -3 17q3 4 4 6.5t3 7t2 8.5q-5 2 -9.5 -1.5t-5.5 -6t-4 3.5q-5 2 -2 9t2 13q16 -3 23 4q-4 15 2.5 24.5t7.5 18.5q-9 -4 -14.5 1.5t-5.5 17.5q3 -1 8 -6.5t8 -6.5t8 2q-3 11 -0.5 18.5t2 15t-7.5 11.5 q0 -23 -6 -25q-2 -1 -4 -1q-16 0 -16 4q-1 5 2 6.5t7 1.5t7 2.5t2 7.5q-4 1 -8 -0.5t-6.5 -3t-3.5 0t0 7.5q2 2 16.5 3.5t17.5 9.5q1 -3 0.5 -7t0 -7t3.5 -3q7 23 -2 58q7 -11 10 2q4 14 -3 14q-5 -25 -21 -7q-9 12 -10 21q6 0 14 -5.5t17 -4.5q-11 22 -10 23q1 4 14 4 q-13 2 -19.5 16t-13.5 19q-8 1 -14 -9t-15 -8q-6 2 -15 6t-12.5 5t-13.5 2.5t-18 -1.5q-33 -314 -145 -665t-248 -584q-80 -154 -189 -217q-12 8 -17.5 7.5t-17.5 -7.5q-21 12 -38.5 57.5t-36.5 57.5q6 17 20 88q-2 3 -14.5 4.5t-12.5 9.5q6 9 15 12q6 -1 10 -9t6 -9 q5 5 6.5 19.5t-4.5 17.5q-4 -2 -4.5 -12.5t-5.5 -10.5q1 5 -0.5 8.5t-6 8t-5.5 6.5q1 1 6.5 8.5t11 10t14.5 1.5q-6 16 -4 22.5t9.5 19.5t9.5 24q-4 7 -10 1.5t-7 -1.5q2 5 -1 11.5t-4 9.5t5 6q4 -1 6 -7t3.5 -8.5t7.5 2.5q16 39 20 66q-16 0 -16 4q4 7 12.5 7.5t14.5 6.5 q1 5 15.5 48t26.5 80t21.5 77.5t7.5 54.5q5 0 9 -3.5t6 -4.5q0 7 1 15.5t1.5 13t-1 10t-6.5 10.5q4 4 8.5 3t7.5 0.5t3 9.5q-2 1 -6 -1t-7.5 -3.5t-6 0.5t-1.5 8q5 6 9 1t12 -1q3 5 2.5 12.5t3.5 13.5q-18 -3 -12 15q2 5 10 1.5t16 -1.5q0 30 -4 34q8 -8 19 0q-1 19 22.5 64 t16.5 78q10 -5 14.5 0.5t6 18.5t3.5 16q-4 -10 -1 4q1 3 4 10l5 20q2 7 19.5 31.5t15.5 42.5q4 0 10 3.5t13 2.5q57 122 84 162q-1 1 -4 2t-5.5 1.5t-4 3t0.5 5.5q33 16 47 95q-10 4 -11 10.5t3 19.5q-13 7 -33 34t-30 36q-2 2 -10.5 2t-12.5 2q-60 40 -160.5 77.5 t-146.5 14.5q-1 -5 2.5 -12t1.5 -14q-26 -25 -46.5 -68.5t-41 -104t-31.5 -86.5q-3 -7 -9.5 -18t-10 -17.5t-5.5 -18.5t5 -21q-8 -23 -34 -76.5t-34 -85.5q-1 -7 -5.5 -41t-10.5 -51q-7 -23 -41 -101t-41 -129q-9 -57 -92 -292q-58 -172 -80 -414zM129 297q11 1 15 -3t1 -13 q-10 -6 -14 -2t-2 18zM389 274q2 16 29 11q0 -8 -4 -19.5t-2 -21.5q-5 3 -6.5 8t-1 10t-3 8.5t-12.5 3.5zM526 731q-1 11 9 12t10 -8q1 -2 0 -4h-19zM840 1788q62 75 129 219q4 2 10 8h2l4 4q4 2 13.5 8.5t13.5 8.5q10 6 30 14h5q38 -11 79 -31q11 -26 11 -47 q-25 -37 -113 -153q-50 -72 -75 -91q-49 -38 -75 23h-22q1 6 -0.5 11.5t-5.5 13t-6 12.5z" />
<glyph unicode="&#xdb;" horiz-adv-x="1265" d="M0 121q11 -3 20.5 -8.5t16.5 -15t12 -17t10 -22t7 -21.5t6.5 -24.5t5.5 -22.5q71 -18 185 -39.5t167 -22.5q46 -1 90.5 14.5t76 35.5t69 57t56.5 60t50 63q2 6 -0.5 11t-1.5 9q56 74 150.5 313t117.5 279q-3 5 -6 3t-5 -2t-1 7q10 3 10.5 18t3.5 19q3 -1 6.5 -5t6.5 -5 q14 105 59 190q2 7 -6.5 10t-5.5 11q7 2 13.5 -1.5t8.5 1.5q-1 12 -1.5 15.5t1.5 15t2 13.5q3 12 2 15t-12 -2q4 10 19 57.5t30 65.5q-13 6 -26 -4q-6 -9 5 -14q4 -1 -1 -2q-10 5 -8 20t10 23q30 -10 35 12q-9 3 -12 3t-13.5 -5t-13.5 -6q4 14 13 69t22 76q-4 -20 -8 -46 t-7.5 -44.5t-7.5 -36.5q8 -2 16.5 1.5t10.5 -1.5q-1 6 3 13t3 14q-12 0 -3 17q3 4 4 6.5t3 7t2 8.5q-5 2 -9.5 -1.5t-5.5 -6t-4 3.5q-5 2 -2 9t2 13q16 -3 23 4q-4 15 2.5 24.5t7.5 18.5q-9 -4 -14.5 1.5t-5.5 17.5q3 -1 8 -6.5t8 -6.5t8 2q-3 11 -0.5 18.5t2 15t-7.5 11.5 q0 -23 -6 -25q-2 -1 -4 -1q-16 0 -16 4q-1 5 2 6.5t7 1.5t7 2.5t2 7.5q-4 1 -8 -0.5t-6.5 -3t-3.5 0t0 7.5q2 2 16.5 3.5t17.5 9.5q1 -3 0.5 -7t0 -7t3.5 -3q7 23 -2 58q7 -11 10 2q4 14 -3 14q-5 -25 -21 -7q-9 12 -10 21q6 0 14 -5.5t17 -4.5q-11 22 -10 23q1 4 14 4 q-13 2 -19.5 16t-13.5 19q-8 1 -14 -9t-15 -8q-6 2 -15 6t-12.5 5t-13.5 2.5t-18 -1.5q-33 -314 -145 -665t-248 -584q-80 -154 -189 -217q-12 8 -17.5 7.5t-17.5 -7.5q-21 12 -38.5 57.5t-36.5 57.5q6 17 20 88q-2 3 -14.5 4.5t-12.5 9.5q6 9 15 12q6 -1 10 -9t6 -9 q5 5 6.5 19.5t-4.5 17.5q-4 -2 -4.5 -12.5t-5.5 -10.5q1 5 -0.5 8.5t-6 8t-5.5 6.5q1 1 6.5 8.5t11 10t14.5 1.5q-6 16 -4 22.5t9.5 19.5t9.5 24q-4 7 -10 1.5t-7 -1.5q2 5 -1 11.5t-4 9.5t5 6q4 -1 6 -7t3.5 -8.5t7.5 2.5q16 39 20 66q-16 0 -16 4q4 7 12.5 7.5t14.5 6.5 q1 5 15.5 48t26.5 80t21.5 77.5t7.5 54.5q5 0 9 -3.5t6 -4.5q0 7 1 15.5t1.5 13t-1 10t-6.5 10.5q4 4 8.5 3t7.5 0.5t3 9.5q-2 1 -6 -1t-7.5 -3.5t-6 0.5t-1.5 8q5 6 9 1t12 -1q3 5 2.5 12.5t3.5 13.5q-18 -3 -12 15q2 5 10 1.5t16 -1.5q0 30 -4 34q8 -8 19 0q-1 19 22.5 64 t16.5 78q10 -5 14.5 0.5t6 18.5t3.5 16q-4 -10 -1 4q1 3 4 10l5 20q2 7 19.5 31.5t15.5 42.5q4 0 10 3.5t13 2.5q57 122 84 162q-1 1 -4 2t-5.5 1.5t-4 3t0.5 5.5q33 16 47 95q-10 4 -11 10.5t3 19.5q-13 7 -33 34t-30 36q-2 2 -10.5 2t-12.5 2q-60 40 -160.5 77.5 t-146.5 14.5q-1 -5 2.5 -12t1.5 -14q-26 -25 -46.5 -68.5t-41 -104t-31.5 -86.5q-3 -7 -9.5 -18t-10 -17.5t-5.5 -18.5t5 -21q-8 -23 -34 -76.5t-34 -85.5q-1 -7 -5.5 -41t-10.5 -51q-7 -23 -41 -101t-41 -129q-9 -57 -92 -292q-58 -172 -80 -414zM129 297q11 1 15 -3t1 -13 q-10 -6 -14 -2t-2 18zM389 274q2 16 29 11q0 -8 -4 -19.5t-2 -21.5q-5 3 -6.5 8t-1 10t-3 8.5t-12.5 3.5zM526 731q-1 11 9 12t10 -8q1 -2 0 -4h-19zM594 1788q62 75 129 219q4 2 10 8h2l4 4q4 2 13 8.5t14 8.5q8 5 31 14h4q40 -12 80 -31q10 -23 10 -47q-25 -37 -113 -153 q-49 -70 -72 -89q-51 -39 -77 21h-23q1 6 -0.5 11.5t-5.5 13t-6 12.5zM891 1972q0 24 10 47q40 19 80 31h4q23 -9 31 -14q4 -2 13 -8t13 -9q1 0 5 -4h2q6 -6 10 -8q67 -144 129 -219q-2 -5 -6 -12.5t-5.5 -13t-0.5 -11.5h-23q-37 -88 -125 33q-6 9 -17 25l-7 10 q-88 116 -113 153z" />
</font>
</defs>
</svg>
